SplineFontDB: 3.2
FontName: Caladea-Italic
FullName: Caladea Italic
FamilyName: Caladea
Weight: Regular
Copyright: Copyright 2012 The Caladea Project Authors \\(https://github.com/huertatipografica/Caladea\\)
Version: 001.001
ItalicAngle: -9
UnderlinePosition: -204.8
UnderlineWidth: 102.4
Ascent: 1638
Descent: 410
InvalidEm: 0
sfntRevision: 0x00010041
LayerCount: 2
Layer: 0 0 "Back" 1
Layer: 1 0 "Fore" 0
XUID: [1021 282 2012869056 6773212]
StyleMap: 0x0001
FSType: 0
OS2Version: 4
OS2_WeightWidthSlopeOnly: 0
OS2_UseTypoMetrics: 1
CreationTime: 1578911677
ModificationTime: 1719082869
PfmFamily: 17
TTFWeight: 400
TTFWidth: 5
LineGap: 0
VLineGap: 0
Panose: 2 4 5 3 5 4 6 9 2 4
OS2TypoAscent: 1843
OS2TypoAOffset: 0
OS2TypoDescent: -512
OS2TypoDOffset: 0
OS2TypoLinegap: 0
OS2WinAscent: 2150
OS2WinAOffset: 0
OS2WinDescent: 512
OS2WinDOffset: 0
HheadAscent: 1843
HheadAOffset: 0
HheadDescent: -512
HheadDOffset: 0
OS2SubXSize: 1331
OS2SubYSize: 1229
OS2SubXOff: 0
OS2SubYOff: 205
OS2SupXSize: 1331
OS2SupYSize: 1229
OS2SupXOff: 113
OS2SupYOff: 717
OS2StrikeYSize: 102
OS2StrikeYPos: 573
OS2CapHeight: 1366
OS2XHeight: 956
OS2Vendor: 'HT  '
OS2CodePages: 20000093.00000000
OS2UnicodeRanges: 00000007.00000000.00000000.00000000
Lookup: 1 0 0 "'aalt' Access All Alternates in Latin lookup 0" { "'aalt' Access All Alternates in Latin lookup 0 subtable"  } ['aalt' ('DFLT' <'dflt' > 'latn' <'CAT ' 'dflt' > ) ]
Lookup: 3 0 0 "'aalt' Access All Alternates in Latin lookup 1" { "'aalt' Access All Alternates in Latin lookup 1 subtable"  } ['aalt' ('DFLT' <'dflt' > 'latn' <'CAT ' 'dflt' > ) ]

StartChar: .notdef
Encoding: 65536 -1 0
Width: 1398
GlyphClass: 1
Flags: HMW
HStem: 123 74<346 1118 346 1221> 936 41G<492 492 944 944> 1169 74<346 346 346 1118>
VStem: 244 102<197 1169 197 1243 197 1243> 1118 102<197 1169 1169 1169>
LayerCount: 2
Fore
SplineSet
1221 1243 m 1
 1221 123 l 1
 244 123 l 1
 244 1243 l 1
 1221 1243 l 1
346 1169 m 1
 346 197 l 1
 1118 197 l 1
 1118 1169 l 1
 346 1169 l 1
489 389 m 1
 676 690 l 1
 492 977 l 1
 604 975 l 1
 737 768 l 1
 866 975 l 1
 944 977 l 1
 776 707 l 1
 979 389 l 1
 866 391 l 1
 715 629 l 1
 567 389 l 1
 489 389 l 1
EndSplineSet
EndChar

StartChar: A
Encoding: 65 65 5
Width: 1183
GlyphClass: 2
Flags: HMW
HStem: 0 76<-63 -53 -53 -53 -53 418> 440 106<414 733 414 750 369 733> 1325 41G<653 786 786 786>
VStem: -63 1204<0 76>
AnchorPoint: "Anchor-3" 721 1366 basechar 0
AnchorPoint: "Anchor-2" 942 0 basechar 0
LayerCount: 2
Fore
SplineSet
-63 0 m 1
 -53 76 l 1
 0 84 51 92 96 123 c 1
 653 1366 l 1
 786 1366 l 1
 995 127 l 1
 1040 94 1094 84 1141 76 c 1
 1133 0 l 1
 590 0 l 1
 602 76 l 1
 692 86 754 106 797 129 c 1
 750 440 l 1
 369 440 l 1
 233 127 l 1
 290 96 362 84 428 76 c 1
 418 0 l 1
 -63 0 l 1
414 547 m 1
 733 547 l 1
 651 1094 l 1
 414 547 l 1
EndSplineSet
Substitution2: "Single Substitution lookup 14 subtable" ordfeminine
Substitution2: "'aalt' Access All Alternates in Latin lookup 0 subtable" ordfeminine
EndChar

StartChar: B
Encoding: 66 66 6
Width: 1097
GlyphClass: 2
Flags: HMW
HStem: 0 76<-4 8 8 8 8 494> 0 100<466 494> 670 100<473 557 459 594> 1270 96<670 688 688 756> 1290 76<193 688>
VStem: 848 184<331 507 324 510> 922 180<989 1149>
AnchorPoint: "Anchor-4" 459 0 basechar 0
AnchorPoint: "Anchor-3" 676 1366 basechar 0
LayerCount: 2
Fore
SplineSet
-4 0 m 1x74
 8 76 l 1
 92 86 146 100 193 129 c 1
 369 1237 l 1
 318 1268 259 1282 193 1290 c 1xac
 203 1366 l 1
 688 1366 l 2
 967 1366 1102 1265 1102 1087 c 0x72
 1102 890 992 768 795 721 c 1
 945 674 1032 575 1032 438 c 0
 1032 209 871 0 494 0 c 2
 -4 0 l 1x74
473 770 m 1
 594 770 l 2
 805 770 922 872 922 1085 c 0
 922 1212 842 1270 670 1270 c 0
 572 1268 551 1260 539 1184 c 2x72
 473 770 l 1
520 100 m 0x74
 717 100 848 223 848 438 c 0
 848 581 754 670 557 670 c 2
 459 670 l 1
 385 217 l 2
 383 199 379 176 379 162 c 0
 379 123 411 100 520 100 c 0x74
EndSplineSet
EndChar

StartChar: C
Encoding: 67 67 7
Width: 1013
GlyphClass: 2
Flags: HMW
HStem: -14 119<427 546> 1278 104
VStem: 70 199<318 650 318 725> 874 197<1129 1180>
AnchorPoint: "Anchor-5" 453 0 basechar 0
AnchorPoint: "Anchor-3" 729 1366 basechar 0
LayerCount: 2
Fore
SplineSet
451 -14 m 0
 228 -14 70 145 70 469 c 0
 70 981 286 1382 735 1382 c 0
 960 1382 1071 1270 1071 1145 c 0
 1071 1065 1030 967 936 967 c 0
 881 967 838 1000 834 1047 c 1
 861 1076 874 1112 874 1147 c 0
 874 1213 824 1274 715 1278 c 0
 410 1276 268 864 268 436 c 0
 268 200 361 104 494 104 c 0
 623 104 752 176 893 289 c 1
 958 201 l 1
 778 58 641 -14 451 -14 c 0
EndSplineSet
EndChar

StartChar: D
Encoding: 68 68 8
Width: 1224
GlyphClass: 2
Flags: HMW
HStem: 0 76<-4 6 6 6 6 420> 0 100<-4 683> 1264 102<551 635 635 647 551 551> 1290 76<193 635>
VStem: 1016 201<732 1043>
AnchorPoint: "Anchor-3" 731 1366 basechar 0
LayerCount: 2
Fore
SplineSet
-4 0 m 1x68
 6 76 l 1
 72 84 133 92 190 127 c 1
 367 1237 l 1
 316 1268 256 1282 193 1290 c 1x98
 203 1366 l 1
 635 1366 l 2
 997 1366 1217 1233 1217 883 c 0
 1217 326 932 0 420 0 c 2
 -4 0 l 1x68
494 100 m 0x68
 873 100 1016 561 1016 903 c 0
 1016 1184 866 1264 647 1264 c 2
 551 1264 l 1
 385 225 l 2
 381 198 377 180 377 160 c 0
 377 121 410 100 494 100 c 0x68
EndSplineSet
EndChar

StartChar: E
Encoding: 69 69 9
Width: 1036
GlyphClass: 2
Flags: HMW
HStem: 0 76<-2 8 8 8 8 901> 0 117<371 768 371 901> 643 104 1047 319<1010 1027> 1257 109<553 930 553 553> 1290 76<193 1102>
VStem: 981 105
AnchorPoint: "Anchor-3" 707 1366 basechar 0
AnchorPoint: "Anchor-2" 870 0 basechar 0
LayerCount: 2
Fore
SplineSet
-2 0 m 1x6a
 8 76 l 1
 76 84 136 94 193 129 c 1
 369 1237 l 1
 318 1268 261 1282 193 1290 c 1xa6
 203 1366 l 1
 1102 1366 l 1x6a
 1071 1057 l 1
 1055 1049 1036 1047 1018 1047 c 0
 1002 1047 991 1049 981 1051 c 1x72
 979 1114 971 1194 930 1257 c 1
 553 1257 l 1
 471 743 l 1
 678 752 l 2
 731 754 780 787 823 889 c 1
 889 889 l 1
 825 489 l 1
 762 489 l 1
 750 606 725 637 662 639 c 2
 455 647 l 1
 371 117 l 1
 768 117 l 1
 825 178 858 258 891 346 c 1
 901 348 916 350 932 350 c 0
 946 350 961 348 975 346 c 1
 901 0 l 1
 -2 0 l 1x6a
EndSplineSet
EndChar

StartChar: F
Encoding: 70 70 10
Width: 1017
GlyphClass: 1
Flags: HMW
HStem: 0 76<-6 6 6 6 6 557> 633 105 1047 319<1005 1020> 1257 109<551 918 551 551> 1290 76<193 1102>
VStem: -6 1108
LayerCount: 2
Fore
SplineSet
-6 0 m 1xd4
 6 76 l 1
 74 84 133 94 190 129 c 1
 367 1237 l 1
 316 1268 256 1282 193 1290 c 1xcc
 203 1366 l 1
 1102 1366 l 1xd4
 1069 1057 l 1
 1051 1051 1030 1047 1010 1047 c 0
 1000 1047 989 1049 979 1051 c 1xe4
 977 1114 961 1194 918 1257 c 1
 551 1257 l 1
 467 733 l 1
 680 743 l 2
 733 745 778 777 821 879 c 1
 887 879 l 1
 823 479 l 1
 760 479 l 1
 748 596 722 627 659 629 c 2
 451 637 l 1
 371 129 l 1
 422 96 501 84 567 76 c 1
 557 0 l 1
 -6 0 l 1xd4
EndSplineSet
EndChar

StartChar: G
Encoding: 71 71 11
Width: 1042
GlyphClass: 2
Flags: HMW
HStem: -16 117<445 559> 520 86<627 1012> 1278 104<560 767>
VStem: 68 199<311 652 311 725> 872 197<1129 1179>
AnchorPoint: "Anchor-4" 514 0 basechar 0
AnchorPoint: "Anchor-3" 737 1366 basechar 0
LayerCount: 2
Fore
SplineSet
487 -16 m 0
 258 -16 68 113 68 469 c 0
 68 981 284 1382 733 1382 c 0
 958 1382 1069 1270 1069 1145 c 0
 1069 1065 1028 967 934 967 c 0
 879 967 835 1000 831 1047 c 1
 858 1076 872 1112 872 1147 c 0
 872 1210 822 1278 713 1278 c 0
 408 1278 266 868 266 436 c 0
 266 186 373 100 518 100 c 0
 665 100 774 149 784 219 c 2
 827 483 l 1
 780 497 713 512 627 520 c 1
 639 606 l 1
 1012 606 l 1
 928 113 l 1
 793 23 630 -16 487 -16 c 0
EndSplineSet
EndChar

StartChar: H
Encoding: 72 72 12
Width: 1378
GlyphClass: 2
Flags: HMW
HStem: 0 76<8 18 18 18 18 539> 645 111<471 977 455 993> 1290 76<193 723 713 713 1413 1413>
VStem: 8 1417<0 1366>
AnchorPoint: "Anchor-3" 819 1366 basechar 0
LayerCount: 2
Fore
SplineSet
8 0 m 1
 18 76 l 1
 84 84 136 94 193 129 c 1
 369 1237 l 1
 318 1268 261 1282 193 1290 c 1
 203 1366 l 1
 723 1366 l 1
 713 1290 l 1
 645 1282 604 1270 549 1237 c 1
 471 756 l 1
 993 756 l 1
 1071 1237 l 1
 1016 1268 963 1282 897 1290 c 1
 905 1366 l 1
 1425 1366 l 1
 1413 1290 l 1
 1347 1282 1306 1270 1251 1237 c 1
 1075 129 l 1
 1132 96 1194 84 1262 76 c 1
 1251 0 l 1
 721 0 l 1
 731 76 l 1
 797 84 838 94 895 129 c 1
 977 645 l 1
 455 645 l 1
 373 129 l 1
 428 96 481 84 547 76 c 1
 539 0 l 1
 8 0 l 1
EndSplineSet
EndChar

StartChar: I
Encoding: 73 73 13
Width: 675
GlyphClass: 2
Flags: HMW
HStem: 0 76<6 16 16 16 16 547> 1290 76<193 733 723 723>
VStem: 6 727
AnchorPoint: "Anchor-3" 487 1366 basechar 0
AnchorPoint: "Anchor-2" 332 0 basechar 0
LayerCount: 2
Fore
SplineSet
6 0 m 1
 16 76 l 1
 82 84 136 94 193 129 c 1
 369 1237 l 1
 318 1268 261 1282 193 1290 c 1
 203 1366 l 1
 733 1366 l 1
 723 1290 l 1
 657 1282 606 1270 549 1237 c 1
 373 129 l 1
 428 96 491 84 557 76 c 1
 547 0 l 1
 6 0 l 1
EndSplineSet
EndChar

StartChar: J
Encoding: 74 74 14
Width: 618
GlyphClass: 2
Flags: HMW
HStem: 1290 76<172 715 702 702>
VStem: -137 852
AnchorPoint: "Anchor-3" 446 1366 basechar 0
LayerCount: 2
Fore
SplineSet
-125 -399 m 1
 -137 -338 l 1
 -8 -285 123 -197 154 2 c 2
 350 1237 l 1
 299 1268 240 1282 172 1290 c 1
 182 1366 l 1
 715 1366 l 1
 702 1290 l 1
 636 1282 585 1270 530 1237 c 1
 340 33 l 2
 301 -217 123 -338 -125 -399 c 1
EndSplineSet
EndChar

StartChar: K
Encoding: 75 75 15
Width: 1200
GlyphClass: 2
Flags: HMW
HStem: 0 76<6 18 18 18 18 549> 1290 76<193 705 694 694 1272 1272>
VStem: 6 1274
AnchorPoint: "Anchor-4" 637 0 basechar 0
LayerCount: 2
Fore
SplineSet
6 0 m 1
 18 76 l 1
 84 84 135 94 190 129 c 1
 369 1237 l 1
 320 1268 261 1282 193 1290 c 1
 203 1366 l 1
 705 1366 l 1
 694 1290 l 1
 639 1284 598 1273 553 1253 c 1
 373 129 l 1
 430 96 491 84 557 76 c 1
 549 0 l 1
 6 0 l 1
928 0 m 2
 848 0 807 21 760 119 c 2
 471 711 l 1
 899 1186 l 2
 919 1209 924 1221 924 1233 c 0
 924 1270 893 1288 823 1290 c 1
 834 1366 l 1
 1280 1366 l 1
 1272 1290 l 1
 1186 1286 1137 1276 1094 1229 c 2
 655 756 l 1
 954 170 l 2
 979 119 1037 90 1141 78 c 1
 1118 0 l 1
 928 0 l 2
EndSplineSet
EndChar

StartChar: L
Encoding: 76 76 16
Width: 970
GlyphClass: 2
Flags: HMW
HStem: 0 76<4 16 16 16 16 848> 0 117<518 717 518 848> 1290 76<193 754 743 743>
VStem: 4 920<0 346>
AnchorPoint: "Anchor-4" 463 0 basechar 0
AnchorPoint: "Anchor-3" 483 1366 basechar 0
LayerCount: 2
Fore
SplineSet
4 0 m 1x70
 16 76 l 1
 82 84 133 94 190 129 c 1xb0
 369 1237 l 1
 318 1268 259 1282 193 1290 c 1
 203 1366 l 1
 754 1366 l 1
 743 1290 l 1
 675 1282 604 1270 549 1237 c 1
 383 197 l 2
 375 136 397 117 518 117 c 2
 717 117 l 1
 778 189 815 278 840 346 c 1
 852 348 867 350 881 350 c 0
 893 350 908 348 924 346 c 1
 848 0 l 1
 4 0 l 1x70
EndSplineSet
EndChar

StartChar: M
Encoding: 77 77 17
Width: 1710
GlyphClass: 2
Flags: HMW
HStem: 0 76<6 16 16 16 16 498> 1290 76<193 557 1755 1755>
VStem: 6 1759<0 1366>
AnchorPoint: "Anchor-3" 999 1366 basechar 0
LayerCount: 2
Fore
SplineSet
6 0 m 1
 16 76 l 1
 84 84 133 94 190 129 c 1
 367 1237 l 1
 316 1268 261 1282 193 1290 c 1
 203 1366 l 1
 557 1366 l 1
 817 238 l 1
 1436 1366 l 1
 1765 1366 l 1
 1755 1290 l 1
 1689 1282 1638 1270 1581 1237 c 1
 1405 129 l 1
 1462 96 1523 84 1589 76 c 1
 1581 0 l 1
 1040 0 l 1
 1051 76 l 1
 1117 84 1168 94 1225 129 c 1
 1384 1049 l 1
 809 0 l 1
 698 0 l 1
 453 1049 l 1
 322 129 l 1
 379 96 440 84 506 76 c 1
 498 0 l 1
 6 0 l 1
EndSplineSet
EndChar

StartChar: N
Encoding: 78 78 18
Width: 1339
GlyphClass: 2
Flags: HMW
HStem: 0 76<16 16 16 498 4 16> 1290 76<193 518 1427 1427>
VStem: 4 1434<0 1366>
AnchorPoint: "Anchor-4" 711 0 basechar 0
AnchorPoint: "Anchor-3" 815 1366 basechar 0
LayerCount: 2
Fore
SplineSet
954 1366 m 1
 1438 1366 l 1
 1427 1290 l 1
 1361 1282 1310 1270 1253 1237 c 1
 1057 0 l 1
 973 0 l 1
 469 1059 l 1
 319 129 l 1
 378 96 440 84 506 76 c 1
 498 0 l 1
 4 0 l 1
 16 76 l 1
 82 84 131 94 188 127 c 1
 367 1237 l 1
 316 1268 259 1282 193 1290 c 1
 203 1366 l 1
 518 1366 l 1
 985 375 l 1
 1120 1237 l 1
 1071 1268 1012 1282 946 1290 c 1
 954 1366 l 1
EndSplineSet
EndChar

StartChar: O
Encoding: 79 79 19
Width: 1189
GlyphClass: 2
Flags: HMW
HStem: -14 96<449 662 449 735> 1284 98<593 807>
VStem: 70 203<340 705 340 720> 985 201<655 1022>
AnchorPoint: "Anchor-4" 506 0 basechar 0
AnchorPoint: "Anchor-3" 764 1366 basechar 0
LayerCount: 2
Fore
SplineSet
500 -14 m 0
 213 -14 70 172 70 504 c 0
 70 936 287 1382 758 1382 c 0
 1047 1382 1186 1198 1186 866 c 0
 1186 432 971 -14 500 -14 c 0
530 82 m 0
 792 82 985 418 985 893 c 0
 985 1151 889 1284 725 1284 c 0
 461 1284 272 940 272 469 c 0
 272 211 366 82 530 82 c 0
EndSplineSet
Substitution2: "Single Substitution lookup 14 subtable" ordmasculine
Substitution2: "'aalt' Access All Alternates in Latin lookup 0 subtable" ordmasculine
EndChar

StartChar: P
Encoding: 80 80 20
Width: 1030
GlyphClass: 1
Flags: HMW
HStem: 0 76<6 16 16 16 16 549> 600 92<463 520 463 520 449 520> 1280 86<638 684 684 771> 1290 76<193 684>
VStem: 924 184<942 1138>
LayerCount: 2
Fore
SplineSet
6 0 m 1xe8
 16 76 l 1
 84 84 133 94 190 129 c 1
 369 1237 l 1
 318 1268 261 1282 193 1290 c 1xd8
 203 1366 l 1
 684 1366 l 2
 969 1366 1108 1276 1108 1069 c 0
 1108 721 868 600 520 600 c 2
 449 600 l 1
 373 129 l 1
 428 96 491 84 557 76 c 1
 549 0 l 1
 6 0 l 1xe8
463 692 m 1
 520 692 l 2
 766 692 924 819 924 1065 c 0
 924 1210 841 1280 700 1280 c 0
 575 1280 555 1267 545 1206 c 2xe8
 463 692 l 1
EndSplineSet
EndChar

StartChar: Q
Encoding: 81 81 21
Width: 1273
GlyphClass: 1
Flags: HMW
HStem: -4 86 1284 98<669 892>
VStem: 125 203<327 696 327 708> 1040 201<678 1032>
LayerCount: 2
Fore
SplineSet
924 -344 m 1
 688 -303 575 -166 524 -12 c 1
 243 4 125 174 125 479 c 0
 125 936 338 1382 793 1382 c 0
 1110 1382 1241 1211 1241 887 c 0
 1241 469 1063 64 688 -4 c 1
 717 -131 819 -234 954 -283 c 1
 952 -310 944 -330 924 -344 c 1
561 82 m 0
 833 82 1040 411 1040 913 c 0
 1040 1151 977 1284 807 1284 c 0
 531 1284 328 950 328 442 c 0
 328 211 393 82 561 82 c 0
EndSplineSet
EndChar

StartChar: R
Encoding: 82 82 22
Width: 1175
GlyphClass: 2
Flags: HMW
HStem: 0 76<6 16 16 16 16 547> 627 94<467 489 451 500> 1280 86<630 694 694 761> 1290 76<193 694>
VStem: 922 186<963 1138>
AnchorPoint: "Anchor-4" 678 0 basechar 0
AnchorPoint: "Anchor-3" 729 1366 basechar 0
LayerCount: 2
Fore
SplineSet
6 0 m 1xe8
 16 76 l 1
 82 84 136 94 193 129 c 1
 369 1237 l 1
 318 1268 261 1282 193 1290 c 1xd8
 203 1366 l 1
 694 1366 l 2
 966 1366 1108 1268 1108 1071 c 0
 1108 854 989 714 782 659 c 1
 833 628 864 573 889 483 c 2
 975 178 l 2
 991 119 1032 96 1151 78 c 1
 1128 0 l 1
 942 0 l 2
 854 0 814 27 791 125 c 2
 715 449 l 2
 676 613 659 627 489 627 c 2
 451 627 l 1
 373 127 l 1
 428 96 491 84 557 76 c 1
 547 0 l 1
 6 0 l 1xe8
467 721 m 1
 500 721 l 2
 715 721 922 803 922 1067 c 0
 922 1208 842 1280 680 1280 c 0
 580 1280 557 1269 545 1212 c 2xe8
 467 721 l 1
EndSplineSet
EndChar

StartChar: S
Encoding: 83 83 23
Width: 847
GlyphClass: 2
Flags: HMW
HStem: -14 109<334 420> 1278 104<512 573>
VStem: 172 180<1013 1116> 596 186<240 359> 725 195<1151 1194>
AnchorPoint: "Anchor-5" 332 0 basechar 0
AnchorPoint: "Anchor-4" 360 0 basechar 0
AnchorPoint: "Anchor-3" 610 1366 basechar 0
LayerCount: 2
Fore
SplineSet
330 -14 m 0xf0
 183 -14 76 31 -20 90 c 1
 70 426 l 1
 164 412 l 1
 156 365 152 315 152 270 c 0
 152 233 156 197 162 170 c 1
 207 125 293 94 375 94 c 0
 498 94 596 178 596 301 c 0xf0
 596 418 477 526 373 635 c 0
 267 744 172 850 172 989 c 0
 172 1243 399 1382 614 1382 c 0
 811 1382 920 1284 920 1157 c 0
 920 1089 876 1008 788 1008 c 0
 733 1008 692 1036 688 1075 c 1
 713 1104 725 1136 725 1165 c 0xe8
 725 1222 677 1274 573 1278 c 0
 450 1278 352 1190 352 1067 c 0
 352 958 451 862 557 756 c 0
 663 647 782 531 782 373 c 0
 782 74 510 -14 330 -14 c 0xf0
EndSplineSet
EndChar

StartChar: T
Encoding: 84 84 24
Width: 1034
GlyphClass: 2
Flags: HMW
HStem: 0 76<156 168 168 168 168 737> 1022 350<101 121> 1260 113
VStem: 1020 92<1026 1026>
AnchorPoint: "Anchor-4" 446 0 basechar 0
AnchorPoint: "Anchor-3" 647 1366 basechar 0
LayerCount: 2
Fore
SplineSet
156 0 m 1xb0
 168 76 l 1
 248 82 315 100 360 127 c 1
 543 1260 l 1
 410 1260 323 1257 266 1255 c 1xb0
 207 1179 170 1083 158 1026 c 1
 142 1024 125 1022 109 1022 c 0
 95 1022 80 1022 68 1026 c 1xd0
 121 1372 l 1
 223 1370 428 1366 618 1366 c 0
 876 1366 1097 1368 1165 1372 c 1xb0
 1112 1026 l 1
 1096 1022 1081 1022 1067 1022 c 0
 1051 1022 1034 1024 1020 1026 c 1xd0
 1028 1102 1018 1188 985 1251 c 1
 928 1255 846 1258 723 1260 c 1
 543 127 l 1
 584 102 666 86 748 76 c 1
 737 0 l 1
 156 0 l 1xb0
EndSplineSet
EndChar

StartChar: U
Encoding: 85 85 25
Width: 1275
GlyphClass: 2
Flags: HMW
HStem: -14 106<519 695 519 719> 1290 76<135 678 666 666 1380 1380>
VStem: 170 186<240 344>
AnchorPoint: "Anchor-3" 803 1366 basechar 0
AnchorPoint: "Anchor-2" 713 0 basechar 0
LayerCount: 2
Fore
SplineSet
580 -14 m 0
 297 -14 170 86 170 307 c 0
 170 381 184 455 311 1237 c 1
 262 1268 203 1282 135 1290 c 1
 145 1366 l 1
 678 1366 l 1
 666 1290 l 1
 603 1282 551 1270 496 1239 c 1
 369 455 356 398 356 322 c 0
 356 158 438 92 600 92 c 0
 790 92 915 213 950 434 c 2
 1079 1237 l 1
 1028 1268 971 1282 903 1290 c 1
 913 1366 l 1
 1393 1366 l 1
 1380 1290 l 1
 1317 1282 1265 1270 1210 1239 c 1
 1081 434 l 2
 1036 147 859 -14 580 -14 c 0
EndSplineSet
EndChar

StartChar: V
Encoding: 86 86 26
Width: 1132
GlyphClass: 1
Flags: HMW
HStem: -14 43G<541 541> 1290 76<96 616 606 606 1262 1262>
VStem: 96 1176<1290 1366>
LayerCount: 2
Fore
SplineSet
430 0 m 1
 227 1247 l 1
 188 1267 143 1284 96 1290 c 1
 106 1366 l 1
 616 1366 l 1
 606 1290 l 1
 540 1282 489 1270 426 1237 c 1
 563 297 l 1
 975 1239 l 1
 926 1268 869 1282 803 1290 c 1
 813 1366 l 1
 1272 1366 l 1
 1262 1290 l 1
 1205 1282 1159 1271 1114 1251 c 1
 541 -14 l 1
 506 -16 457 -10 430 0 c 1
EndSplineSet
EndChar

StartChar: W
Encoding: 87 87 27
Width: 1734
GlyphClass: 2
Flags: HMW
HStem: -14 43G<435 453 1122 1141> 1290 76<96 616 606 606 1870 1870>
VStem: 96 1784<1290 1366>
AnchorPoint: "Anchor-3" 1038 1366 basechar 0
LayerCount: 2
Fore
SplineSet
453 -14 m 1
 418 -14 373 -14 342 0 c 1
 233 1245 l 1
 192 1265 145 1284 96 1290 c 1
 106 1366 l 1
 616 1366 l 1
 606 1290 l 1
 540 1282 489 1270 426 1237 c 1
 483 307 l 1
 975 1329 l 1
 1010 1341 1051 1346 1098 1346 c 1
 1169 311 l 1
 1595 1237 l 1
 1544 1268 1487 1282 1421 1290 c 1
 1432 1366 l 1
 1880 1366 l 1
 1870 1290 l 1
 1827 1280 1772 1264 1731 1239 c 1
 1141 -14 l 1
 1104 -14 1069 -14 1030 0 c 1
 936 977 l 1
 453 -14 l 1
EndSplineSet
EndChar

StartChar: X
Encoding: 88 88 28
Width: 1116
GlyphClass: 1
Flags: HMW
HStem: 0 76<-106 -94 -94 -94 -94 381> 0 78<874 1065> 1290 76<123 344 1192 1192>
VStem: -106 1309
LayerCount: 2
Fore
SplineSet
-106 0 m 1xb0
 -94 76 l 1
 -26 84 25 96 72 125 c 1xb0
 487 690 l 1
 285 1196 l 2
 265 1247 217 1288 123 1290 c 1
 133 1366 l 1
 344 1366 l 2
 399 1366 419 1352 446 1286 c 2
 629 836 l 1
 893 1237 l 1
 842 1268 785 1282 717 1290 c 1
 727 1366 l 1
 1202 1366 l 1
 1192 1290 l 1
 1129 1282 1079 1270 1028 1241 c 1
 674 723 l 1
 899 170 l 2
 922 115 965 88 1065 78 c 1x70
 1053 0 l 1
 874 0 l 2
 792 0 756 21 715 125 c 2
 532 578 l 1
 205 129 l 1
 252 100 321 82 389 76 c 1
 381 0 l 1
 -106 0 l 1xb0
EndSplineSet
EndChar

StartChar: Y
Encoding: 89 89 29
Width: 1071
GlyphClass: 2
Flags: HMW
HStem: 0 76<172 182 182 182 182 754> 1290 76<90 598 588 588 1206 1206>
VStem: 90 1126<1290 1366>
AnchorPoint: "Anchor-3" 670 1366 basechar 0
LayerCount: 2
Fore
SplineSet
172 0 m 1
 182 76 l 1
 248 84 320 94 377 129 c 1
 442 557 l 1
 217 1251 l 1
 178 1269 135 1284 90 1290 c 1
 100 1366 l 1
 598 1366 l 1
 588 1290 l 1
 527 1282 477 1272 424 1243 c 1
 584 711 l 1
 903 1237 l 1
 852 1268 792 1282 729 1290 c 1
 739 1366 l 1
 1217 1366 l 1
 1206 1290 l 1
 1143 1282 1093 1272 1040 1241 c 1
 629 584 l 1
 557 129 l 1
 614 96 696 84 762 76 c 1
 754 0 l 1
 172 0 l 1
EndSplineSet
EndChar

StartChar: Z
Encoding: 90 90 30
Width: 989
GlyphClass: 2
Flags: HMW
HStem: -6 115 1239 135 1290 84
VStem: 10 1057
AnchorPoint: "Anchor-3" 647 1366 basechar 0
LayerCount: 2
Fore
SplineSet
27 -6 m 1xd0
 10 90 l 1
 819 1253 l 1
 692 1251 479 1245 342 1239 c 1
 301 1165 277 1092 254 1022 c 1
 240 1020 223 1018 209 1018 c 0
 197 1018 174 1018 164 1022 c 1
 186 1319 l 1
 236 1374 l 1
 363 1366 489 1366 616 1366 c 0
 761 1366 906 1366 1051 1374 c 1xd0
 1067 1290 l 1xb0
 246 109 l 1
 418 111 577 117 729 127 c 1
 776 197 807 267 842 365 c 1
 856 367 877 369 891 369 c 0
 907 369 928 367 942 365 c 1
 877 55 l 1
 815 -6 l 1
 690 0 555 0 430 0 c 0
 293 0 164 0 27 -6 c 1xd0
EndSplineSet
EndChar

StartChar: a
Encoding: 97 97 31
Width: 1054
GlyphClass: 2
Flags: HMW
HStem: -14 106<354 406> 879 98<489 581 409 610> 934 41G<849 892>
VStem: 82 182<247 459 247 511> 627 180<51 172>
AnchorPoint: "Anchor-3" 608 956 basechar 0
AnchorPoint: "Anchor-2" 907 0 basechar 0
LayerCount: 2
Fore
SplineSet
338 -14 m 0xd8
 168 -14 82 92 82 330 c 0
 82 692 271 977 547 977 c 0
 615 977 690 961 770 924 c 1
 790 947 823 975 874 975 c 0xd8
 909 975 938 971 938 971 c 1xb8
 854 459 807 187 807 158 c 0
 807 135 819 127 846 127 c 0
 885 127 938 156 954 166 c 1
 975 100 l 1
 930 61 823 -14 733 -14 c 0
 661 -14 627 18 627 84 c 0
 627 113 633 150 643 201 c 1
 580 107 473 -14 338 -14 c 0xd8
391 92 m 0
 502 92 651 297 702 616 c 2
 737 829 l 1
 684 864 633 879 588 879 c 0
 391 879 264 588 264 330 c 0
 264 164 317 92 391 92 c 0
EndSplineSet
Substitution2: "Single Substitution lookup 14 subtable" ordfeminine
Substitution2: "'aalt' Access All Alternates in Latin lookup 0 subtable" ordfeminine
EndChar

StartChar: b
Encoding: 98 98 32
Width: 1015
GlyphClass: 1
Flags: HMW
HStem: -14 92<383 511 383 578> 868 106 1317 80<137 137 137 162 125 137> 1317 109
VStem: 111 176<134 153> 754 182<469 706>
LayerCount: 2
Fore
SplineSet
432 -14 m 0xd4
 315 -14 231 2 168 29 c 0
 127 45 111 76 111 115 c 0
 111 191 285 1200 285 1241 c 0
 285 1288 250 1317 162 1317 c 2
 125 1317 l 1
 137 1397 l 1xec
 172 1403 285 1425 383 1425 c 0
 420 1425 445 1423 459 1421 c 1
 483 1376 l 1
 385 774 l 1
 448 866 549 975 674 975 c 0
 850 975 936 872 936 608 c 0
 936 272 723 -14 432 -14 c 0xd4
434 78 m 0xdc
 588 78 754 314 754 625 c 0
 754 787 699 870 623 868 c 0
 449 866 287 389 287 156 c 0
 287 113 332 78 434 78 c 0xdc
EndSplineSet
EndChar

StartChar: c
Encoding: 99 99 33
Width: 888
GlyphClass: 2
Flags: HMW
HStem: -14 106<401 517 401 525> 883 92<484 598>
VStem: 82 182<260 480 260 524> 659 182<776 822>
AnchorPoint: "Anchor-5" 414 0 basechar 0
AnchorPoint: "Anchor-3" 588 1034 basechar 0
LayerCount: 2
Fore
SplineSet
426 -14 m 0
 203 -14 82 98 82 340 c 0
 82 709 274 975 555 975 c 0
 745 975 842 879 842 766 c 0
 842 692 787 618 715 618 c 0
 664 618 629 649 625 692 c 1
 650 727 659 754 659 799 c 0
 659 846 626 883 569 883 c 0
 399 883 264 610 264 350 c 0
 264 170 346 92 457 92 c 0
 578 92 721 205 721 205 c 1
 776 129 l 1
 776 129 625 -14 426 -14 c 0
EndSplineSet
EndChar

StartChar: d
Encoding: 100 100 34
Width: 1050
GlyphClass: 1
Flags: HMW
HStem: -14 106<358 408> 883 92<487 585 410 613> 1317 80<657 657 657 682 645 657> 1317 109
VStem: 82 182<256 462 256 522>
LayerCount: 2
Fore
SplineSet
342 -14 m 0xd8
 182 -14 82 74 82 342 c 0
 82 702 283 975 537 975 c 0
 633 975 715 952 754 932 c 1
 762 975 801 1198 803 1233 c 0
 807 1286 772 1317 682 1317 c 2
 645 1317 l 1
 657 1397 l 1xe8
 696 1405 801 1425 903 1425 c 0
 932 1425 954 1423 979 1421 c 1
 1004 1376 l 1
 992 1296 807 174 807 156 c 0
 807 138 819 127 846 127 c 0
 887 127 944 160 954 166 c 1
 975 100 l 1
 930 61 823 -14 733 -14 c 0
 661 -14 627 19 627 78 c 0
 627 109 633 148 643 201 c 1
 580 107 473 -14 342 -14 c 0xd8
395 92 m 0
 501 92 651 297 702 616 c 2
 737 831 l 1
 696 858 643 883 584 883 c 0
 391 883 264 573 264 350 c 0
 264 162 321 92 395 92 c 0
EndSplineSet
EndChar

StartChar: e
Encoding: 101 101 35
Width: 892
GlyphClass: 2
Flags: HMW
HStem: -14 106<395 489> 399 100<276 399 276 439> 881 94<492 608>
VStem: 80 186<262 352 352 399 262 519> 684 180<686 793>
AnchorPoint: "Anchor-3" 575 956 basechar 0
AnchorPoint: "Anchor-2" 674 0 basechar 0
LayerCount: 2
Fore
SplineSet
408 -14 m 0
 162 -14 80 162 80 322 c 0
 80 717 287 975 584 975 c 0
 781 975 864 869 864 758 c 0
 864 559 612 399 266 399 c 1
 266 352 l 2
 266 172 343 92 449 92 c 0
 555 92 672 174 729 217 c 1
 788 141 l 1
 714 67 572 -14 408 -14 c 0
276 500 m 1
 522 500 684 610 684 762 c 0
 684 823 647 881 569 881 c 0
 413 881 309 715 276 500 c 1
EndSplineSet
EndChar

StartChar: f
Encoding: 102 102 36
Width: 581
GlyphClass: 1
Flags: HMW
HStem: -449 98<-75 -20 -75 55> 846 70<88 88 88 227 76 88> 846 100<401 614 422 600> 1331 96<527 602>
VStem: -295 184<-308 -281 -308 -245> 662 170<1248 1282>
LayerCount: 2
Fore
SplineSet
-94 -449 m 0xbc
 -211 -449 -295 -389 -295 -291 c 0
 -295 -199 -233 -156 -174 -156 c 0
 -129 -156 -86 -180 -76 -229 c 1
 -99 -241 -111 -268 -111 -293 c 0
 -111 -324 -94 -350 -55 -350 c 0
 15 -350 48 -293 68 -209 c 0
 91 -111 95 22 115 143 c 2
 227 846 l 1
 76 846 l 1xbc
 88 915 l 1
 143 925 197 938 244 956 c 1xdc
 262 1051 l 2
 311 1307 424 1427 610 1427 c 0
 735 1427 831 1355 831 1255 c 0
 831 1161 764 1106 705 1106 c 0
 666 1106 626 1129 612 1180 c 1
 643 1198 662 1233 662 1264 c 0
 662 1301 632 1331 571 1331 c 0
 483 1331 426 1243 426 1110 c 0
 426 1057 428 1029 428 1006 c 0
 428 983 426 962 422 946 c 1
 614 946 l 1
 600 846 l 1
 401 846 l 1
 287 121 l 2
 250 -112 205 -449 -94 -449 c 0xbc
EndSplineSet
EndChar

StartChar: g
Encoding: 103 103 37
Width: 1009
GlyphClass: 2
Flags: HMW
HStem: -449 94<213 386 213 407> -14 106<347 407> 883 92<487 565 392 612>
VStem: -104 209<-267 -225 -267 -187> 82 182<279 462 279 497>
AnchorPoint: "Anchor-3" 600 956 basechar 0
LayerCount: 2
Fore
SplineSet
244 -449 m 0xf0
 54 -449 -104 -376 -104 -231 c 0
 -104 -143 -33 -92 35 -92 c 0
 80 -92 121 -115 139 -164 c 1
 116 -182 104 -211 104 -240 c 0
 104 -295 151 -354 274 -354 c 0xf0
 497 -354 580 -170 621 74 c 2
 641 199 l 1
 578 105 471 -14 342 -14 c 0
 133 -14 82 141 82 352 c 0xe8
 82 641 248 975 537 975 c 0
 594 975 672 969 766 926 c 1
 786 951 821 975 872 975 c 0
 897 975 915 973 938 971 c 1
 805 152 l 2
 739 -258 570 -449 244 -449 c 0xf0
395 92 m 0xe8
 506 92 669 328 702 594 c 2
 733 834 l 1
 694 861 641 883 584 883 c 0
 391 883 264 573 264 350 c 0
 264 207 299 92 395 92 c 0xe8
EndSplineSet
EndChar

StartChar: h
Encoding: 104 104 38
Width: 1081
GlyphClass: 2
Flags: HMW
HStem: -14 43G<717 809> -14 141<717 894> 0 43G<84 260 84 84> 862 113<622 672> 1317 80<131 131 131 152 121 131>
VStem: 651 182<62 187> 750 180<715 770>
AnchorPoint: "Anchor-3" 748 1366 basechar 0
LayerCount: 2
Fore
SplineSet
768 -14 m 0x9c
 666 -14 651 33 651 92 c 0x9c
 651 151 750 653 750 723 c 0
 750 817 702 862 641 862 c 0
 500 862 367 652 322 367 c 2
 260 0 l 1
 84 0 l 1
 272 1180 l 2
 274 1196 279 1214 279 1237 c 0
 279 1290 248 1315 152 1317 c 2
 121 1317 l 1
 131 1397 l 1
 172 1405 295 1425 379 1425 c 0
 406 1425 430 1423 455 1421 c 1
 479 1376 l 1
 375 735 l 1
 438 846 544 975 698 975 c 0
 845 975 930 895 930 756 c 0x3a
 930 674 834 209 834 166 c 0
 834 139 844 127 877 127 c 0
 912 127 971 160 981 166 c 1x5c
 1001 100 l 1
 956 61 850 -14 768 -14 c 0x9c
EndSplineSet
EndChar

StartChar: i
Encoding: 105 105 39
Width: 538
GlyphClass: 2
Flags: HMW
HStem: -14 43G<179 262> -14 141<179 351> 850 125<136 343> 934 41G<285 343> 1083 238<312 355>
VStem: 109 186<54 193> 225 217<1184 1219>
AnchorPoint: "Anchor-3" 295 956 basechar 0
AnchorPoint: "Anchor-2" 465 100 basechar 0
LayerCount: 2
Fore
SplineSet
319 1083 m 0x9a
 262 1083 225 1123 225 1180 c 0
 225 1258 276 1321 348 1321 c 0
 409 1321 442 1280 442 1223 c 0
 442 1145 391 1083 319 1083 c 0x9a
219 -14 m 0x9c
 139 -14 109 16 109 92 c 0
 109 151 213 762 213 795 c 0
 213 834 188 850 145 850 c 0
 127 850 107 848 82 846 c 1xac
 72 911 l 1
 111 929 236 975 334 975 c 0
 352 975 373 973 389 969 c 1
 414 930 l 1
 406 881 295 213 295 172 c 0
 295 139 301 127 334 127 c 0
 369 127 428 160 438 166 c 1x5c
 459 100 l 1
 414 61 305 -14 219 -14 c 0x9c
EndSplineSet
Substitution2: "Single Substitution lookup 12 subtable" dotlessi
EndChar

StartChar: j
Encoding: 106 106 40
Width: 497
GlyphClass: 2
Flags: HMW
HStem: -449 98<-76 15 -76 46> 850 125<138 341> 934 41G<292 341> 1083 238<339 382>
VStem: -301 184<-310 -281 -310 -247> 252 217<1184 1219>
AnchorPoint: "Anchor-3" 322 956 basechar 0
LayerCount: 2
Fore
SplineSet
346 1083 m 0xbc
 289 1083 252 1123 252 1180 c 0
 252 1258 303 1321 375 1321 c 0
 436 1321 469 1280 469 1223 c 0
 469 1145 418 1083 346 1083 c 0xbc
-98 -449 m 0
 -217 -449 -301 -387 -301 -287 c 0
 -301 -207 -244 -156 -178 -156 c 0
 -133 -156 -90 -180 -82 -229 c 1
 -105 -241 -117 -268 -117 -293 c 0
 -117 -328 -92 -350 -59 -350 c 0
 91 -350 76 -82 113 143 c 0
 142 323 215 770 215 799 c 0
 215 834 194 850 147 850 c 0
 129 850 109 848 84 846 c 1xdc
 74 911 l 1
 160 948 252 975 332 975 c 0
 350 975 367 973 385 969 c 1
 412 930 l 1
 276 98 l 2
 239 -131 191 -449 -98 -449 c 0
EndSplineSet
Substitution2: "Single Substitution lookup 12 subtable" uni0237
EndChar

StartChar: k
Encoding: 107 107 41
Width: 1001
GlyphClass: 2
Flags: HMW
HStem: -14 43G<734 801> -14 141<734 865> 0 43G<84 84 84 260> 934 41G<819 868> 1317 80<131 131 131 147 121 131>
VStem: 84 889<0 100> 651 285 702 233<791 930>
AnchorPoint: "Anchor-4" 494 0 basechar 0
LayerCount: 2
Fore
SplineSet
84 0 m 1x3c
 274 1190 l 2
 276 1204 279 1223 279 1235 c 0
 279 1286 251 1317 147 1317 c 2
 121 1317 l 1
 131 1397 l 1
 172 1405 289 1425 379 1425 c 0
 408 1425 439 1423 455 1421 c 1
 479 1376 l 1
 346 543 l 1
 608 647 702 760 702 821 c 0x39
 702 848 684 864 655 866 c 1
 647 932 l 1
 706 957 780 975 858 975 c 0
 878 975 897 973 913 969 c 1
 936 930 l 1x3a
 936 840 833 682 600 555 c 1
 811 147 l 2
 817 135 830 127 848 127 c 0
 883 127 934 156 952 166 c 1x5c
 973 100 l 1
 928 61 842 -14 760 -14 c 0
 709 -14 680 12 649 80 c 2x9c
 461 485 l 1
 420 467 375 448 328 432 c 1
 260 0 l 1
 84 0 l 1x3c
EndSplineSet
EndChar

StartChar: l
Encoding: 108 108 42
Width: 524
GlyphClass: 2
Flags: HMW
HStem: -14 43G<165 247> -14 141<165 334> 1317 80<125 125 125 143 113 125> 1317 109
VStem: 94 182<50 170>
AnchorPoint: "Anchor-4" 211 0 basechar 0
AnchorPoint: "Anchor-3" 362 1386 basechar 0
LayerCount: 2
Fore
SplineSet
201 -14 m 0xa8
 129 -14 94 14 94 86 c 0
 94 190 270 1194 270 1241 c 0
 270 1290 237 1315 143 1317 c 2
 113 1317 l 1
 125 1397 l 1xa8
 125 1397 269 1425 371 1425 c 0
 400 1425 421 1423 446 1421 c 1
 471 1376 l 1
 459 1292 276 183 276 158 c 0
 276 138 288 127 313 127 c 0
 354 127 401 152 424 166 c 1x58
 444 100 l 1
 399 61 293 -14 201 -14 c 0xa8
EndSplineSet
EndChar

StartChar: m
Encoding: 109 109 43
Width: 1638
GlyphClass: 1
Flags: HMW
HStem: -14 43G<1281 1363> -14 141<1281 1450> 0 43G<94 268 94 94 645 819 645 645> 850 123 862 113<629 680 1181 1229>
VStem: 217 176 758 180<745 770> 1208 184<53 163> 1307 180<721 770>
LayerCount: 2
Fore
SplineSet
1393 156 m 0x4f
 1393 140 1403 127 1432 127 c 0
 1469 127 1528 160 1538 166 c 1x4f
 1559 100 l 1
 1514 61 1407 -14 1319 -14 c 0
 1243 -14 1208 14 1208 92 c 0x8f
 1208 155 1307 653 1307 723 c 0
 1307 817 1259 862 1198 862 c 0
 1022 862 909 617 850 211 c 2
 819 0 l 1
 645 0 l 1
 663 129 758 653 758 723 c 0
 758 817 710 862 649 862 c 0x2e80
 477 862 361 580 322 334 c 2
 268 0 l 1
 94 0 l 1
 112 127 217 768 217 791 c 0
 217 838 192 850 147 850 c 0
 129 850 109 848 84 846 c 1x37
 74 911 l 1
 107 944 252 973 338 973 c 0
 356 973 371 971 383 969 c 1
 403 930 l 1
 383 735 l 1
 444 846 551 975 707 975 c 0
 861 975 938 890 938 745 c 1
 1001 854 1105 975 1255 975 c 0
 1402 975 1487 895 1487 756 c 0x2e80
 1487 686 1393 170 1393 156 c 0x4f
EndSplineSet
EndChar

StartChar: n
Encoding: 110 110 44
Width: 1089
GlyphClass: 2
Flags: HMW
HStem: -14 43G<724 815> -14 141<724 902> 0 43G<94 268 94 94> 862 113<629 680>
VStem: 217 176 659 186<59 198> 758 180<708 770>
AnchorPoint: "Anchor-4" 492 0 basechar 0
AnchorPoint: "Anchor-3" 602 956 basechar 0
LayerCount: 2
Fore
SplineSet
774 -14 m 0x9c
 674 -14 659 33 659 86 c 0x9c
 659 154 758 655 758 723 c 0
 758 817 710 862 649 862 c 0
 477 862 361 580 322 334 c 2
 268 0 l 1
 94 0 l 1
 94 0 217 766 217 795 c 0
 217 836 192 850 147 850 c 0
 129 850 109 848 84 846 c 1
 74 911 l 1
 74 911 213 975 332 975 c 0
 348 975 367 973 383 969 c 1
 403 930 l 1
 383 735 l 1
 444 846 551 975 707 975 c 0
 854 975 938 895 938 756 c 0x3a
 938 660 846 229 846 166 c 0
 846 137 856 127 885 127 c 0
 920 127 979 160 989 166 c 1x5c
 1010 100 l 1
 965 61 856 -14 774 -14 c 0x9c
EndSplineSet
Substitution2: "'sups' Superscript in Latin lookup 5 subtable" uni207F
Substitution2: "'aalt' Access All Alternates in Latin lookup 0 subtable" uni207F
EndChar

StartChar: o
Encoding: 111 111 45
Width: 989
GlyphClass: 2
Flags: HMW
HStem: -14 98<366 493 366 579> 877 98<497 624>
VStem: 82 190<251 473 251 498> 719 190<484 711>
AnchorPoint: "Anchor-3" 604 956 basechar 0
AnchorPoint: "Anchor-2" 528 0 basechar 0
LayerCount: 2
Fore
SplineSet
416 -14 m 0
 197 -14 82 115 82 336 c 0
 82 660 249 975 575 975 c 0
 794 975 909 846 909 625 c 0
 909 299 742 -14 416 -14 c 0
416 84 m 0
 570 84 719 332 719 637 c 0
 719 784 671 877 575 877 c 0
 417 877 272 625 272 322 c 0
 272 181 316 84 416 84 c 0
EndSplineSet
Substitution2: "Single Substitution lookup 14 subtable" ordmasculine
Substitution2: "'aalt' Access All Alternates in Latin lookup 0 subtable" ordmasculine
EndChar

StartChar: p
Encoding: 112 112 46
Width: 1028
GlyphClass: 2
Flags: HMW
HStem: -449 106<118 283> -14 92<462 538 400 635> 868 106<616 680>
VStem: 45 178<-396 -282> 219 170 764 182<497 681>
AnchorPoint: "Anchor-3" 645 956 basechar 0
LayerCount: 2
Fore
SplineSet
162 -449 m 0xf4
 74 -449 45 -426 45 -367 c 0xf4
 45 -293 219 770 219 799 c 0
 219 834 195 850 150 850 c 0
 132 850 111 848 86 846 c 1
 74 911 l 1
 107 925 218 975 324 975 c 0
 344 975 363 973 379 969 c 1
 399 930 l 1
 379 750 l 1xec
 440 846 549 975 684 975 c 0
 895 975 946 817 946 608 c 0
 946 317 780 -14 489 -14 c 0
 434 -14 358 -10 268 29 c 1
 243 -127 223 -266 223 -297 c 0
 223 -328 233 -342 264 -342 c 0
 301 -342 357 -334 375 -330 c 1
 393 -393 l 1
 332 -422 244 -449 162 -449 c 0xf4
442 78 m 0
 632 78 764 385 764 608 c 0
 764 753 729 868 631 868 c 0
 502 868 328 559 293 158 c 0
 289 105 358 78 442 78 c 0
EndSplineSet
EndChar

StartChar: q
Encoding: 113 113 47
Width: 1048
GlyphClass: 1
Flags: HMW
HStem: -449 43G<630 715> -449 106<630 797> -14 106<348 413> 883 92<489 567 393 615>
VStem: 82 184<279 462 279 497>
LayerCount: 2
Fore
SplineSet
674 -449 m 0xb8
 586 -449 555 -430 555 -369 c 0
 555 -322 628 78 651 211 c 1
 590 117 481 -14 344 -14 c 0
 135 -14 82 141 82 352 c 0
 82 641 248 975 539 975 c 0
 596 975 676 969 772 924 c 1
 792 949 828 975 879 975 c 0
 897 975 918 973 936 971 c 1
 737 -285 l 2
 731 -326 749 -342 778 -342 c 0
 815 -342 865 -334 883 -330 c 1x78
 903 -393 l 1
 840 -422 756 -449 674 -449 c 0xb8
397 92 m 0
 503 92 649 295 702 610 c 2
 739 831 l 1
 698 858 645 883 586 883 c 0
 393 883 266 573 266 350 c 0
 266 207 299 92 397 92 c 0
EndSplineSet
EndChar

StartChar: r
Encoding: 114 114 48
Width: 770
GlyphClass: 2
Flags: HMW
HStem: 0 43G<96 96 96 276> 838 137 850 125<138 345> 934 41G<286 345 605 706>
VStem: 621 190<781 798>
AnchorPoint: "Anchor-4" 186 0 basechar 0
AnchorPoint: "Anchor-3" 528 1034 basechar 0
LayerCount: 2
Fore
SplineSet
96 0 m 1xc8
 102 47 215 744 215 791 c 0
 215 838 190 850 147 850 c 0
 129 850 109 848 84 846 c 1xa8
 74 911 l 1
 121 931 236 975 336 975 c 0
 354 975 371 973 389 969 c 1xc8
 412 930 l 1x98
 381 725 l 1
 459 881 550 975 659 975 c 0
 751 975 811 897 811 819 c 0
 811 743 764 672 672 672 c 0
 631 672 610 695 604 707 c 1
 614 725 621 753 621 780 c 0
 621 815 609 838 582 838 c 0
 502 838 364 666 315 297 c 2
 276 0 l 1
 96 0 l 1xc8
EndSplineSet
EndChar

StartChar: s
Encoding: 115 115 49
Width: 743
GlyphClass: 2
Flags: HMW
HStem: -14 98<245 347 245 370> 883 92<395 474>
VStem: 135 164<713 777> 446 172<201 252> 547 168<780 824>
AnchorPoint: "Anchor-5" 281 0 basechar 0
AnchorPoint: "Anchor-4" 309 0 basechar 0
AnchorPoint: "Anchor-3" 455 956 basechar 0
LayerCount: 2
Fore
SplineSet
270 -14 m 0xf0
 166 -14 53 27 6 66 c 1
 68 317 l 1
 141 305 l 1
 139 285 137 258 137 231 c 0
 137 133 188 84 301 84 c 0
 393 84 446 143 446 213 c 0xf0
 446 291 373 346 299 412 c 0
 219 482 135 561 135 684 c 0
 135 870 281 975 459 975 c 0
 617 975 715 895 715 793 c 0
 715 719 672 666 598 666 c 0
 555 666 516 686 502 721 c 1
 529 737 547 764 547 797 c 0xe8
 547 852 514 883 434 883 c 0
 356 883 299 830 299 752 c 0
 299 674 368 614 444 553 c 0
 528 483 618 410 618 287 c 0
 618 115 469 -14 270 -14 c 0xf0
EndSplineSet
EndChar

StartChar: t
Encoding: 116 116 50
Width: 696
GlyphClass: 2
Flags: HMW
HStem: -14 127<337 353> 846 111<387 733 406 711>
VStem: 109 178<158 185>
AnchorPoint: "Anchor-4" 303 0 basechar 0
AnchorPoint: "Anchor-3" 387 1124 basechar 0
LayerCount: 2
Fore
SplineSet
274 -14 m 0
 163 -14 109 50 109 154 c 0
 109 217 205 805 211 846 c 1
 63 846 l 1
 76 913 l 1
 252 960 297 1038 356 1155 c 1
 438 1155 l 1
 406 956 l 1
 733 956 l 1
 711 846 l 1
 387 846 l 1
 381 805 287 256 287 180 c 0
 287 135 313 113 360 113 c 0
 428 113 514 170 584 217 c 1
 633 147 l 1
 545 77 432 -14 274 -14 c 0
EndSplineSet
EndChar

StartChar: u
Encoding: 117 117 51
Width: 1087
GlyphClass: 2
Flags: HMW
HStem: -14 111<381 432> 850 125<138 352> 934 41G<290 352 881 919>
VStem: 121 180<182 238> 659 180<52 174>
AnchorPoint: "Anchor-3" 606 956 basechar 0
AnchorPoint: "Anchor-2" 942 0 basechar 0
LayerCount: 2
Fore
SplineSet
391 969 m 2xb0
 418 930 l 1xb0
 400 830 301 305 301 225 c 0
 301 139 351 96 412 96 c 0
 582 96 698 381 737 627 c 2
 791 956 l 1
 811 962 854 975 907 975 c 0
 930 975 951 973 967 971 c 1
 961 926 840 187 840 162 c 0
 840 137 854 127 883 127 c 0
 920 127 977 160 987 166 c 1
 1008 100 l 1
 963 61 856 -14 764 -14 c 0
 688 -14 659 18 659 86 c 0
 659 111 670 164 682 238 c 1
 621 125 512 -14 352 -14 c 0
 205 -14 121 66 121 207 c 0
 121 268 215 754 215 795 c 0
 215 830 198 850 147 850 c 0
 129 850 109 848 84 846 c 1xd8
 74 911 l 1
 125 934 244 975 336 975 c 0
 369 975 381 971 391 969 c 2xb0
EndSplineSet
EndChar

StartChar: v
Encoding: 118 118 52
Width: 882
GlyphClass: 1
Flags: HMW
HStem: -14 43G<340 356> 930 45
VStem: 2 893<911 930>
LayerCount: 2
Fore
SplineSet
356 -14 m 1
 323 -14 279 -12 246 0 c 1
 145 750 l 2
 135 828 112 842 14 846 c 1
 2 911 l 1
 39 927 154 975 236 975 c 0
 254 975 279 973 291 971 c 1
 391 217 l 1
 481 360 612 592 639 670 c 0
 655 719 664 751 664 788 c 0
 664 845 636 868 573 866 c 1
 565 942 l 1
 633 960 704 975 784 975 c 0
 813 975 841 973 872 969 c 1
 895 930 l 1
 887 885 841 741 735 573 c 2
 356 -14 l 1
EndSplineSet
EndChar

StartChar: w
Encoding: 119 119 53
Width: 1421
GlyphClass: 2
Flags: HMW
HStem: -14 43G<352 352 872 893> 866 106 915 41G 930 43
VStem: 2 1432<911 930>
AnchorPoint: "Anchor-3" 758 956 basechar 0
LayerCount: 2
Fore
SplineSet
246 0 m 1xa8
 143 750 l 2
 133 826 94 850 12 846 c 1
 2 911 l 1
 2 911 135 975 233 975 c 0
 251 975 275 973 291 971 c 1
 389 219 l 1
 467 348 590 561 639 702 c 0
 664 774 666 899 666 956 c 1
 695 964 721 975 766 975 c 0
 786 975 803 973 821 971 c 1x98
 930 217 l 1
 1030 375 1206 676 1206 795 c 0
 1206 846 1186 866 1112 866 c 1xc8
 1106 942 l 1
 1174 960 1249 973 1327 973 c 0
 1356 973 1382 973 1411 969 c 1
 1434 930 l 1x98
 1420 867 1374 729 1274 573 c 2
 893 -14 l 1
 852 -14 813 -12 784 0 c 1
 705 551 l 1
 352 -14 l 1
 317 -12 271 -10 246 0 c 1xa8
EndSplineSet
EndChar

StartChar: x
Encoding: 120 120 54
Width: 913
GlyphClass: 1
Flags: HMW
HStem: -14 43G<622 688> -14 141<622 753> 0 76<-4 295> 932 41G<268 311> 934 41G<764 827>
VStem: -25 938<39 930>
LayerCount: 2
Fore
SplineSet
647 -14 m 0x8c
 596 -14 570 10 537 86 c 2x8c
 401 389 l 1
 286 274 219 182 219 133 c 0
 219 98 246 80 295 76 c 1
 285 0 l 1
 -4 0 l 1
 -25 39 l 1
 6 92 86 200 233 350 c 2
 360 479 l 1
 242 752 l 2
 207 834 176 848 102 846 c 1
 92 911 l 1
 143 948 231 973 305 973 c 0
 317 973 330 973 340 971 c 1x34
 502 594 l 1
 596 690 670 774 670 823 c 0
 670 860 628 866 612 866 c 1
 604 942 l 1
 637 952 713 975 815 975 c 0
 840 975 866 973 891 969 c 1
 913 930 l 1
 886 871 792 755 651 614 c 2
 541 504 l 1
 684 176 l 2
 698 141 710 127 735 127 c 0
 770 127 830 160 840 166 c 1x4c
 860 100 l 1
 815 61 729 -14 647 -14 c 0x8c
EndSplineSet
EndChar

StartChar: y
Encoding: 121 121 55
Width: 882
GlyphClass: 2
Flags: HMW
HStem: -449 43G<169 248> -449 164<169 284> 934 41G<193 245 764 826>
VStem: 76 152<-366 -222> 76 274<-366 -328 -370 -288>
AnchorPoint: "Anchor-5" 424 0 basechar 0
AnchorPoint: "Anchor-3" 483 956 basechar 0
LayerCount: 2
Fore
SplineSet
211 -449 m 0xb0
 127 -449 76 -404 76 -328 c 0
 76 -248 146 -142 244 12 c 1
 145 750 l 2
 137 816 104 846 14 846 c 1
 2 911 l 1
 41 927 150 975 236 975 c 0
 254 975 275 973 291 971 c 1
 391 215 l 1
 481 356 566 508 627 645 c 0
 652 700 664 748 664 797 c 0
 664 846 636 868 573 866 c 1
 565 942 l 1
 604 950 713 975 815 975 c 0
 838 975 862 971 872 969 c 2
 895 930 l 1
 881 867 827 714 735 573 c 2
 264 -150 l 2
 246 -179 227 -207 227 -238 c 0
 227 -269 247 -285 276 -285 c 0x70
 290 -285 308 -280 326 -270 c 1x68
 342 -295 350 -318 350 -338 c 0xa8
 350 -401 285 -449 211 -449 c 0xb0
EndSplineSet
EndChar

StartChar: z
Encoding: 122 122 56
Width: 886
GlyphClass: 2
Flags: HMW
HStem: -6 43G<674 674> 0 94<310 442> 862 98 885 76
VStem: 8 860<78 885>
AnchorPoint: "Anchor-5" 399 0 basechar 0
AnchorPoint: "Anchor-3" 524 956 basechar 0
LayerCount: 2
Fore
SplineSet
31 -8 m 1xa8
 8 78 l 1
 657 862 l 1
 548 868 437 868 324 862 c 1
 293 829 258 731 242 674 c 1
 226 668 204 664 186 664 c 0
 168 664 149 666 133 672 c 1
 152 918 l 1
 199 961 l 1
 252 961 426 956 553 956 c 0
 680 956 782 959 852 961 c 1xa8
 868 885 l 1
 225 94 l 1
 340 96 456 96 571 94 c 1
 622 168 643 233 668 305 c 1
 678 307 693 311 709 311 c 0
 734 311 758 307 776 303 c 1
 721 43 l 1
 674 -6 l 1
 623 -2 498 0 387 0 c 0x58
 233 0 107 -6 31 -8 c 1xa8
EndSplineSet
EndChar

StartChar: Aacute
Encoding: 193 193 57
Width: 1183
GlyphClass: 2
Flags: HMW
HStem: 0 76<-63 -53 -53 -53 -53 418> 440 106<414 733 414 750 369 733> 1325 41G<653 786 786 786>
VStem: -63 1204<0 76>
AnchorPoint: "Anchor-3" 721 1366 basechar 0
AnchorPoint: "Anchor-2" 942 0 basechar 0
LayerCount: 2
Fore
SplineSet
684 1444 m 1
 639 1495 l 1
 831 1724 l 2
 854 1753 878 1765 907 1765 c 0
 946 1765 981 1737 981 1696 c 0
 981 1665 971 1643 934 1616 c 2
 684 1444 l 1
-63 0 m 1
 -53 76 l 1
 0 84 51 92 96 123 c 1
 653 1366 l 1
 786 1366 l 1
 995 127 l 1
 1040 94 1094 84 1141 76 c 1
 1133 0 l 1
 590 0 l 1
 602 76 l 1
 692 86 754 106 797 129 c 1
 750 440 l 1
 369 440 l 1
 233 127 l 1
 290 96 362 84 428 76 c 1
 418 0 l 1
 -63 0 l 1
414 547 m 1
 733 547 l 1
 651 1094 l 1
 414 547 l 1
EndSplineSet
EndChar

StartChar: Abreve
Encoding: 258 258 58
Width: 1183
GlyphClass: 2
Flags: HMW
HStem: 0 76<-63 -53 -53 -53 -53 418> 440 106<414 733 414 750 369 733> 1325 41G<653 786 786 786> 1456 111<712 800 712 809>
VStem: 539 82<1665 1681>
AnchorPoint: "Anchor-3" 721 1366 basechar 0
AnchorPoint: "Anchor-2" 942 0 basechar 0
LayerCount: 2
Fore
SplineSet
741 1456 m 0
 616 1456 539 1538 539 1681 c 1
 553 1706 592 1716 621 1712 c 1
 621 1618 668 1567 756 1567 c 0
 844 1567 916 1626 932 1712 c 1
 959 1716 996 1712 1014 1700 c 1
 985 1553 876 1456 741 1456 c 0
-63 0 m 1
 -53 76 l 1
 0 84 51 92 96 123 c 1
 653 1366 l 1
 786 1366 l 1
 995 127 l 1
 1040 94 1094 84 1141 76 c 1
 1133 0 l 1
 590 0 l 1
 602 76 l 1
 692 86 754 106 797 129 c 1
 750 440 l 1
 369 440 l 1
 233 127 l 1
 290 96 362 84 428 76 c 1
 418 0 l 1
 -63 0 l 1
414 547 m 1
 733 547 l 1
 651 1094 l 1
 414 547 l 1
EndSplineSet
EndChar

StartChar: Acircumflex
Encoding: 194 194 59
Width: 1183
GlyphClass: 2
Flags: HMW
HStem: 0 76<-63 -53 -53 -53 -53 418> 440 106<414 733 414 750 369 733> 1325 41G<653 786 786 786>
VStem: -63 1204<0 76>
AnchorPoint: "Anchor-3" 721 1366 basechar 0
AnchorPoint: "Anchor-2" 942 0 basechar 0
LayerCount: 2
Fore
SplineSet
539 1456 m 1
 485 1505 l 1
 705 1716 l 2
 732 1743 753 1757 782 1757 c 0
 805 1757 826 1745 846 1716 c 2
 995 1505 l 1
 942 1456 l 1
 764 1614 l 1
 539 1456 l 1
-63 0 m 1
 -53 76 l 1
 0 84 51 92 96 123 c 1
 653 1366 l 1
 786 1366 l 1
 995 127 l 1
 1040 94 1094 84 1141 76 c 1
 1133 0 l 1
 590 0 l 1
 602 76 l 1
 692 86 754 106 797 129 c 1
 750 440 l 1
 369 440 l 1
 233 127 l 1
 290 96 362 84 428 76 c 1
 418 0 l 1
 -63 0 l 1
414 547 m 1
 733 547 l 1
 651 1094 l 1
 414 547 l 1
EndSplineSet
EndChar

StartChar: Adieresis
Encoding: 196 196 60
Width: 1183
GlyphClass: 2
Flags: HMW
HStem: 0 76<-63 -53 -53 -53 -53 418> 440 106<414 733 414 750 369 733> 1325 41G<653 786 786 786> 1487 215<564 607 906 949>
VStem: 487 197<1578 1611> 829 197<1578 1611>
AnchorPoint: "Anchor-3" 721 1366 basechar 0
AnchorPoint: "Anchor-2" 942 0 basechar 0
LayerCount: 2
Fore
SplineSet
573 1487 m 0
 518 1487 487 1518 487 1569 c 0
 487 1653 530 1702 598 1702 c 0
 653 1702 684 1669 684 1620 c 0
 684 1536 641 1487 573 1487 c 0
915 1487 m 0
 860 1487 829 1518 829 1569 c 0
 829 1653 872 1702 940 1702 c 0
 995 1702 1026 1669 1026 1620 c 0
 1026 1536 983 1487 915 1487 c 0
-63 0 m 1
 -53 76 l 1
 0 84 51 92 96 123 c 1
 653 1366 l 1
 786 1366 l 1
 995 127 l 1
 1040 94 1094 84 1141 76 c 1
 1133 0 l 1
 590 0 l 1
 602 76 l 1
 692 86 754 106 797 129 c 1
 750 440 l 1
 369 440 l 1
 233 127 l 1
 290 96 362 84 428 76 c 1
 418 0 l 1
 -63 0 l 1
414 547 m 1
 733 547 l 1
 651 1094 l 1
 414 547 l 1
EndSplineSet
EndChar

StartChar: Agrave
Encoding: 192 192 61
Width: 1183
GlyphClass: 2
Flags: HMW
HStem: 0 76<-63 -53 -53 -53 -53 418> 440 106<414 733 414 750 369 733> 1325 41G<653 786 786 786>
VStem: -63 1204<0 76>
AnchorPoint: "Anchor-3" 721 1366 basechar 0
AnchorPoint: "Anchor-2" 942 0 basechar 0
LayerCount: 2
Fore
SplineSet
815 1444 m 1
 565 1616 l 2
 532 1639 518 1663 518 1694 c 0
 518 1737 553 1765 592 1765 c 0
 619 1765 641 1758 666 1729 c 2
 860 1495 l 1
 815 1444 l 1
-63 0 m 1
 -53 76 l 1
 0 84 51 92 96 123 c 1
 653 1366 l 1
 786 1366 l 1
 995 127 l 1
 1040 94 1094 84 1141 76 c 1
 1133 0 l 1
 590 0 l 1
 602 76 l 1
 692 86 754 106 797 129 c 1
 750 440 l 1
 369 440 l 1
 233 127 l 1
 290 96 362 84 428 76 c 1
 418 0 l 1
 -63 0 l 1
414 547 m 1
 733 547 l 1
 651 1094 l 1
 414 547 l 1
EndSplineSet
EndChar

StartChar: Amacron
Encoding: 256 256 62
Width: 1183
GlyphClass: 2
Flags: HMW
HStem: 0 76<-63 -53 -53 -53 -53 418> 440 106<414 733 414 750 369 733> 1325 41G<653 786 786 786> 1524 100<459 961 475 944>
VStem: -63 1204<0 76>
AnchorPoint: "Anchor-3" 721 1366 basechar 0
AnchorPoint: "Anchor-2" 942 0 basechar 0
LayerCount: 2
Fore
SplineSet
459 1524 m 1
 475 1624 l 1
 961 1624 l 1
 944 1524 l 1
 459 1524 l 1
-63 0 m 1
 -53 76 l 1
 0 84 51 92 96 123 c 1
 653 1366 l 1
 786 1366 l 1
 995 127 l 1
 1040 94 1094 84 1141 76 c 1
 1133 0 l 1
 590 0 l 1
 602 76 l 1
 692 86 754 106 797 129 c 1
 750 440 l 1
 369 440 l 1
 233 127 l 1
 290 96 362 84 428 76 c 1
 418 0 l 1
 -63 0 l 1
414 547 m 1
 733 547 l 1
 651 1094 l 1
 414 547 l 1
EndSplineSet
EndChar

StartChar: Aogonek
Encoding: 260 260 63
Width: 1183
GlyphClass: 2
Flags: HMW
HStem: -418 100<684 792> 0 76<-53 -53 -53 418 -63 -53> 440 106<414 733 414 750 369 733> 1325 41G<653 786 786 786>
VStem: 582 127<-269 -250>
AnchorPoint: "Anchor-3" 721 1366 basechar 0
LayerCount: 2
Fore
SplineSet
1133 0 m 1
 977 0 l 2
 885 0 819 -59 780 -102 c 0
 739 -147 709 -201 709 -246 c 0
 709 -293 735 -317 774 -317 c 0
 809 -317 840 -302 877 -279 c 1
 907 -340 l 1
 854 -389 782 -418 725 -418 c 0
 643 -418 582 -369 582 -291 c 0
 582 -209 641 -143 696 -82 c 0
 778 4 805 60 791 162 c 2
 750 440 l 1
 369 440 l 1
 233 127 l 1
 290 96 362 84 428 76 c 1
 418 0 l 1
 -63 0 l 1
 -53 76 l 1
 0 84 51 92 96 123 c 1
 653 1366 l 1
 786 1366 l 1
 995 127 l 1
 1040 94 1094 84 1141 76 c 1
 1133 0 l 1
414 547 m 1
 733 547 l 1
 651 1094 l 1
 414 547 l 1
EndSplineSet
EndChar

StartChar: Aring
Encoding: 197 197 64
Width: 1183
GlyphClass: 2
Flags: HMW
HStem: 0 76<-63 -53 -53 -53 -53 418> 440 106<414 733 414 750 369 733> 1325 41G<653 786 786 786> 1440 74<722 770 722 791> 1706 72<748 796>
VStem: 578 94<1567 1626 1567 1634> 846 94<1593 1653>
AnchorPoint: "Anchor-3" 721 1366 basechar 0
AnchorPoint: "Anchor-2" 942 0 basechar 0
LayerCount: 2
Fore
SplineSet
731 1440 m 0
 643 1440 578 1493 578 1583 c 0
 578 1685 669 1778 786 1778 c 0
 874 1778 940 1724 940 1634 c 0
 940 1532 850 1440 731 1440 c 0
743 1513 m 0
 796 1513 846 1558 846 1628 c 0
 846 1677 817 1706 774 1706 c 0
 721 1706 672 1661 672 1591 c 0
 672 1542 700 1513 743 1513 c 0
-63 0 m 1
 -53 76 l 1
 0 84 51 92 96 123 c 1
 653 1366 l 1
 786 1366 l 1
 995 127 l 1
 1040 94 1094 84 1141 76 c 1
 1133 0 l 1
 590 0 l 1
 602 76 l 1
 692 86 754 106 797 129 c 1
 750 440 l 1
 369 440 l 1
 233 127 l 1
 290 96 362 84 428 76 c 1
 418 0 l 1
 -63 0 l 1
414 547 m 1
 733 547 l 1
 651 1094 l 1
 414 547 l 1
EndSplineSet
EndChar

StartChar: Aringacute
Encoding: 506 506 65
Width: 1183
GlyphClass: 2
Flags: HMW
HStem: 0 76<-53 -53 -53 418 -63 -53> 440 106<414 733 414 750 369 733> 1602 72<768 816>
VStem: 598 94<1462 1522 1462 1530> 866 94<1489 1548>
AnchorPoint: "Anchor-3" 721 1366 basechar 0
AnchorPoint: "Anchor-2" 942 0 basechar 0
LayerCount: 2
Fore
SplineSet
934 1780 m 2
 666 1657 l 1
 633 1714 l 1
 854 1901 l 2
 881 1926 907 1931 934 1927 c 0
 971 1921 999 1888 993 1847 c 0
 987 1818 975 1798 934 1780 c 2
995 127 m 1
 1040 94 1094 84 1141 76 c 1
 1133 0 l 1
 590 0 l 1
 602 76 l 1
 692 86 754 106 797 129 c 1
 750 440 l 1
 369 440 l 1
 233 127 l 1
 290 96 362 84 428 76 c 1
 418 0 l 1
 -63 0 l 1
 -53 76 l 1
 0 84 51 92 96 123 c 1
 653 1364 l 1
 618 1389 598 1428 598 1479 c 0
 598 1581 690 1673 807 1673 c 0
 895 1673 961 1620 961 1530 c 0
 961 1440 889 1355 791 1339 c 1
 995 127 l 1
795 1602 m 0
 742 1602 692 1557 692 1487 c 0
 692 1438 721 1409 764 1409 c 0
 817 1409 866 1454 866 1524 c 0
 866 1573 838 1602 795 1602 c 0
414 547 m 1
 733 547 l 1
 651 1094 l 1
 414 547 l 1
EndSplineSet
EndChar

StartChar: Atilde
Encoding: 195 195 66
Width: 1183
GlyphClass: 2
Flags: HMW
HStem: 0 76<-63 -53 -53 -53 -53 418> 440 106<414 733 414 750 369 733> 1325 41G<653 786 786 786> 1501 125<830 896 830 901> 1575 125<607 673>
VStem: -63 1204<0 76>
AnchorPoint: "Anchor-3" 721 1366 basechar 0
AnchorPoint: "Anchor-2" 942 0 basechar 0
LayerCount: 2
Fore
SplineSet
494 1499 m 1xec
 465 1507 448 1524 434 1540 c 1
 465 1593 551 1700 657 1700 c 0xec
 743 1700 792 1626 868 1626 c 0
 923 1626 969 1667 1012 1706 c 1
 1041 1696 1057 1681 1073 1665 c 1
 1040 1612 950 1501 852 1501 c 0xf4
 758 1501 713 1575 633 1575 c 0
 582 1575 537 1538 494 1499 c 1xec
-63 0 m 1xf4
 -53 76 l 1
 0 84 51 92 96 123 c 1
 653 1366 l 1
 786 1366 l 1
 995 127 l 1
 1040 94 1094 84 1141 76 c 1
 1133 0 l 1
 590 0 l 1
 602 76 l 1
 692 86 754 106 797 129 c 1
 750 440 l 1
 369 440 l 1
 233 127 l 1
 290 96 362 84 428 76 c 1
 418 0 l 1
 -63 0 l 1xf4
414 547 m 1
 733 547 l 1
 651 1094 l 1
 414 547 l 1
EndSplineSet
EndChar

StartChar: AE
Encoding: 198 198 67
Width: 1708
GlyphClass: 2
Flags: HMW
HStem: 0 76<-72 -61 -61 -61 -61 399> 0 117<979 1358 979 1491> 514 96<584 874 514 891> 644 105 1257 109<1174 1520 1174 1174>
VStem: 1352 63<489 489> 1571 105
AnchorPoint: "Anchor-4" 1040 0 basechar 0
AnchorPoint: "Anchor-3" 1165 1423 basechar 0
LayerCount: 2
Fore
SplineSet
-72 0 m 1x6e
 -61 76 l 1
 -4 82 57 96 98 137 c 1xae
 977 1366 l 1
 1692 1366 l 1
 1661 1057 l 1
 1647 1049 1628 1044 1610 1044 c 0
 1598 1044 1585 1047 1571 1051 c 1
 1569 1114 1561 1194 1520 1257 c 1
 1174 1257 l 1
 1085 745 l 1
 1280 754 l 2
 1352 756 1395 844 1413 889 c 1
 1479 889 l 1
 1415 489 l 1
 1352 489 l 1
 1344 536 1345 637 1257 641 c 2
 1069 647 l 1
 979 117 l 1
 1358 117 l 1
 1421 189 1456 278 1481 346 c 1
 1493 348 1508 350 1522 350 c 0
 1534 350 1549 348 1565 346 c 1
 1491 0 l 1
 606 0 l 1x7e
 618 76 l 1
 684 84 746 94 807 129 c 1
 874 514 l 1
 514 514 l 1
 231 119 l 1
 286 92 351 82 410 76 c 1xae
 399 0 l 1
 -72 0 l 1x6e
584 610 m 1
 891 610 l 1
 991 1182 l 1
 584 610 l 1
EndSplineSet
EndChar

StartChar: AEacute
Encoding: 508 508 68
Width: 1708
GlyphClass: 2
Flags: HMW
HStem: 0 76<-72 -61 -61 -61 -61 399> 0 117<979 1358 979 1491> 514 96<584 874 514 891> 644 105 1257 109<1174 1520 1174 1174>
VStem: 1352 63<489 489> 1571 105
AnchorPoint: "Anchor-4" 1040 0 basechar 0
AnchorPoint: "Anchor-3" 1165 1423 basechar 0
LayerCount: 2
Fore
SplineSet
1128 1501 m 1x6e
 1083 1552 l 1
 1276 1782 l 2
 1299 1811 1323 1823 1352 1823 c 0
 1391 1823 1425 1794 1425 1753 c 0
 1425 1722 1415 1700 1378 1673 c 2
 1128 1501 l 1x6e
-72 0 m 1
 -61 76 l 1
 -4 82 57 96 98 137 c 1xae
 977 1366 l 1
 1692 1366 l 1
 1661 1057 l 1
 1647 1049 1628 1044 1610 1044 c 0
 1598 1044 1585 1047 1571 1051 c 1
 1569 1114 1561 1194 1520 1257 c 1
 1174 1257 l 1
 1085 745 l 1
 1280 754 l 2
 1352 756 1395 844 1413 889 c 1
 1479 889 l 1
 1415 489 l 1
 1352 489 l 1
 1344 536 1345 637 1257 641 c 2
 1069 647 l 1
 979 117 l 1
 1358 117 l 1
 1421 189 1456 278 1481 346 c 1
 1493 348 1508 350 1522 350 c 0
 1534 350 1549 348 1565 346 c 1
 1491 0 l 1
 606 0 l 1x7e
 618 76 l 1
 684 84 746 94 807 129 c 1
 874 514 l 1
 514 514 l 1
 231 119 l 1
 286 92 351 82 410 76 c 1xae
 399 0 l 1
 -72 0 l 1
584 610 m 1
 891 610 l 1
 991 1182 l 1
 584 610 l 1
EndSplineSet
EndChar

StartChar: Cacute
Encoding: 262 262 69
Width: 1013
GlyphClass: 2
Flags: HMW
HStem: -14 119<427 546> 1278 104
VStem: 70 199<318 650 318 725> 874 197<1129 1180>
AnchorPoint: "Anchor-5" 453 0 basechar 0
AnchorPoint: "Anchor-3" 729 1366 basechar 0
LayerCount: 2
Fore
SplineSet
692 1444 m 1
 647 1495 l 1
 840 1724 l 2
 863 1753 886 1765 915 1765 c 0
 954 1765 989 1737 989 1696 c 0
 989 1665 979 1643 942 1616 c 2
 692 1444 l 1
451 -14 m 0
 228 -14 70 145 70 469 c 0
 70 981 286 1382 735 1382 c 0
 960 1382 1071 1270 1071 1145 c 0
 1071 1065 1030 967 936 967 c 0
 881 967 838 1000 834 1047 c 1
 861 1076 874 1112 874 1147 c 0
 874 1213 824 1274 715 1278 c 0
 410 1276 268 864 268 436 c 0
 268 200 361 104 494 104 c 0
 623 104 752 176 893 289 c 1
 958 201 l 1
 778 58 641 -14 451 -14 c 0
EndSplineSet
EndChar

StartChar: Ccaron
Encoding: 268 268 70
Width: 1013
GlyphClass: 2
Flags: HMW
HStem: -14 119<427 546> 1278 104
VStem: 70 199<318 650 318 725> 874 197<1129 1180>
AnchorPoint: "Anchor-5" 453 0 basechar 0
AnchorPoint: "Anchor-3" 729 1366 basechar 0
LayerCount: 2
Fore
SplineSet
737 1456 m 0
 712 1456 692 1468 672 1497 c 2
 524 1706 l 1
 578 1757 l 1
 754 1604 l 1
 985 1757 l 1
 1030 1706 l 1
 815 1497 l 2
 784 1468 762 1456 737 1456 c 0
451 -14 m 0
 228 -14 70 145 70 469 c 0
 70 981 286 1382 735 1382 c 0
 960 1382 1071 1270 1071 1145 c 0
 1071 1065 1030 967 936 967 c 0
 881 967 838 1000 834 1047 c 1
 861 1076 874 1112 874 1147 c 0
 874 1213 824 1274 715 1278 c 0
 410 1276 268 864 268 436 c 0
 268 200 361 104 494 104 c 0
 623 104 752 176 893 289 c 1
 958 201 l 1
 778 58 641 -14 451 -14 c 0
EndSplineSet
EndChar

StartChar: Ccedilla
Encoding: 199 199 71
Width: 1013
GlyphClass: 2
Flags: HMW
HStem: -418 68<358 412 358 431> -14 119<434 434> 1278 104
VStem: 70 199<318 650 318 725> 201 100<-296 -268> 487 102<-274 -212> 874 197<1129 1180>
AnchorPoint: "Anchor-5" 453 0 basechar 0
AnchorPoint: "Anchor-3" 729 1366 basechar 0
LayerCount: 2
Fore
SplineSet
936 967 m 0xf6
 881 967 838 1000 834 1047 c 1
 861 1076 874 1112 874 1147 c 0
 874 1213 824 1274 715 1278 c 0
 410 1276 268 864 268 436 c 0xf6
 268 200 361 104 494 104 c 0
 623 104 752 176 893 289 c 1
 958 201 l 1
 794 70 666 0 502 -12 c 1
 459 -94 l 1
 539 -110 590 -143 590 -221 c 0
 590 -327 498 -418 365 -418 c 0
 248 -418 201 -358 201 -297 c 0
 201 -240 240 -203 283 -203 c 0
 295 -203 305 -205 319 -211 c 1
 309 -227 301 -247 301 -272 c 0xee
 301 -319 336 -350 381 -350 c 0
 442 -350 487 -308 487 -242 c 0
 487 -183 438 -164 387 -156 c 1
 356 -115 l 1
 434 -14 l 1
 219 -6 70 154 70 469 c 0
 70 981 286 1382 735 1382 c 0
 960 1382 1071 1270 1071 1145 c 0
 1071 1065 1030 967 936 967 c 0xf6
EndSplineSet
EndChar

StartChar: Ccircumflex
Encoding: 264 264 72
Width: 1013
GlyphClass: 2
Flags: HMW
HStem: -14 119<427 546> 1278 104
VStem: 70 199<318 650 318 725> 874 197<1129 1180>
AnchorPoint: "Anchor-5" 453 0 basechar 0
AnchorPoint: "Anchor-3" 729 1366 basechar 0
LayerCount: 2
Fore
SplineSet
547 1456 m 1
 494 1505 l 1
 713 1716 l 2
 740 1743 762 1757 791 1757 c 0
 814 1757 834 1745 854 1716 c 2
 1004 1505 l 1
 950 1456 l 1
 772 1614 l 1
 547 1456 l 1
451 -14 m 0
 228 -14 70 145 70 469 c 0
 70 981 286 1382 735 1382 c 0
 960 1382 1071 1270 1071 1145 c 0
 1071 1065 1030 967 936 967 c 0
 881 967 838 1000 834 1047 c 1
 861 1076 874 1112 874 1147 c 0
 874 1213 824 1274 715 1278 c 0
 410 1276 268 864 268 436 c 0
 268 200 361 104 494 104 c 0
 623 104 752 176 893 289 c 1
 958 201 l 1
 778 58 641 -14 451 -14 c 0
EndSplineSet
EndChar

StartChar: Cdotaccent
Encoding: 266 266 73
Width: 1013
GlyphClass: 2
Flags: HMW
HStem: -14 119<427 546> 1278 104 1479 238<746 790>
VStem: 70 199<318 650 318 725> 659 217<1579 1614> 874 197<1129 1180>
AnchorPoint: "Anchor-5" 453 0 basechar 0
AnchorPoint: "Anchor-3" 729 1366 basechar 0
LayerCount: 2
Fore
SplineSet
754 1479 m 0xf8
 697 1479 659 1518 659 1575 c 0
 659 1653 710 1716 782 1716 c 0
 843 1716 877 1675 877 1618 c 0
 877 1540 826 1479 754 1479 c 0xf8
451 -14 m 0
 228 -14 70 145 70 469 c 0
 70 981 286 1382 735 1382 c 0
 960 1382 1071 1270 1071 1145 c 0
 1071 1065 1030 967 936 967 c 0
 881 967 838 1000 834 1047 c 1
 861 1076 874 1112 874 1147 c 0xf4
 874 1213 824 1274 715 1278 c 0
 410 1276 268 864 268 436 c 0
 268 200 361 104 494 104 c 0
 623 104 752 176 893 289 c 1
 958 201 l 1
 778 58 641 -14 451 -14 c 0
EndSplineSet
EndChar

StartChar: Dcaron
Encoding: 270 270 74
Width: 1224
GlyphClass: 2
Flags: HMW
HStem: 0 76<-4 6 6 6 6 420> 0 100<-4 683> 1264 102<551 635 635 647 551 551> 1290 76<193 635>
VStem: 1016 201<732 1043>
AnchorPoint: "Anchor-3" 731 1366 basechar 0
LayerCount: 2
Fore
SplineSet
739 1456 m 0x68
 714 1456 694 1468 674 1497 c 2
 526 1706 l 1
 580 1757 l 1
 756 1604 l 1
 987 1757 l 1
 1032 1706 l 1
 817 1497 l 2
 786 1468 764 1456 739 1456 c 0x68
-4 0 m 1
 6 76 l 1
 72 84 133 92 190 127 c 1
 367 1237 l 1
 316 1268 256 1282 193 1290 c 1x98
 203 1366 l 1
 635 1366 l 2
 997 1366 1217 1233 1217 883 c 0
 1217 326 932 0 420 0 c 2
 -4 0 l 1
494 100 m 0x68
 873 100 1016 561 1016 903 c 0
 1016 1184 866 1264 647 1264 c 2
 551 1264 l 1
 385 225 l 2
 381 198 377 180 377 160 c 0
 377 121 410 100 494 100 c 0x68
EndSplineSet
EndChar

StartChar: Dcroat
Encoding: 272 272 75
Width: 1323
GlyphClass: 2
Flags: HMW
HStem: 0 76<6 6 6 420 -4 6> 0 100<-4 683> 623 90<240 268 225 283 463 793> 1264 102<551 635 635 647 551 551> 1290 76<193 635>
VStem: 1016 201<732 1043>
AnchorPoint: "Anchor-3" 731 1366 basechar 0
LayerCount: 2
Fore
SplineSet
635 1366 m 2x74
 997 1366 1217 1233 1217 883 c 0
 1217 326 932 0 420 0 c 2
 -4 0 l 1x74
 6 76 l 1
 72 84 133 92 190 127 c 1
 268 623 l 1
 225 623 l 1
 240 713 l 1
 283 713 l 1
 367 1237 l 1
 316 1268 256 1282 193 1290 c 1xac
 203 1366 l 1
 635 1366 l 2x74
494 100 m 0
 873 100 1016 561 1016 903 c 0
 1016 1184 866 1264 647 1264 c 2
 551 1264 l 1
 463 713 l 1
 807 713 l 1
 793 623 l 1
 449 623 l 1
 385 225 l 2
 381 198 377 180 377 160 c 0
 377 121 410 100 494 100 c 0
EndSplineSet
EndChar

StartChar: Eth
Encoding: 208 208 76
Width: 1323
GlyphClass: 2
Flags: HMW
HStem: 0 76<6 6 6 420 -4 6> 0 100<-4 683> 623 90<240 268 225 283 463 793> 1264 102<551 635 635 647 551 551> 1290 76<193 635>
VStem: 1016 201<732 1043>
AnchorPoint: "Anchor-3" 731 1366 basechar 0
LayerCount: 2
Fore
SplineSet
635 1366 m 2x74
 997 1366 1217 1233 1217 883 c 0
 1217 326 932 0 420 0 c 2
 -4 0 l 1x74
 6 76 l 1
 72 84 133 92 190 127 c 1
 268 623 l 1
 225 623 l 1
 240 713 l 1
 283 713 l 1
 367 1237 l 1
 316 1268 256 1282 193 1290 c 1xac
 203 1366 l 1
 635 1366 l 2x74
494 100 m 0
 873 100 1016 561 1016 903 c 0
 1016 1184 866 1264 647 1264 c 2
 551 1264 l 1
 463 713 l 1
 807 713 l 1
 793 623 l 1
 449 623 l 1
 385 225 l 2
 381 198 377 180 377 160 c 0
 377 121 410 100 494 100 c 0
EndSplineSet
EndChar

StartChar: Eacute
Encoding: 201 201 77
Width: 1036
GlyphClass: 2
Flags: HMW
HStem: 0 76<-2 8 8 8 8 901> 0 117<371 768 371 901> 643 104 1047 319<1010 1027> 1257 109<553 930 553 553> 1290 76<193 1102>
VStem: 981 105
AnchorPoint: "Anchor-3" 707 1366 basechar 0
AnchorPoint: "Anchor-2" 870 0 basechar 0
LayerCount: 2
Fore
SplineSet
670 1444 m 1x6a
 625 1495 l 1
 817 1724 l 2
 840 1753 864 1765 893 1765 c 0
 932 1765 967 1737 967 1696 c 0
 967 1665 957 1643 920 1616 c 2
 670 1444 l 1x6a
-2 0 m 1
 8 76 l 1
 76 84 136 94 193 129 c 1
 369 1237 l 1
 318 1268 261 1282 193 1290 c 1xa6
 203 1366 l 1
 1102 1366 l 1x6a
 1071 1057 l 1
 1055 1049 1036 1047 1018 1047 c 0
 1002 1047 991 1049 981 1051 c 1x72
 979 1114 971 1194 930 1257 c 1
 553 1257 l 1
 471 743 l 1
 678 752 l 2
 731 754 780 787 823 889 c 1
 889 889 l 1
 825 489 l 1
 762 489 l 1
 750 606 725 637 662 639 c 2
 455 647 l 1
 371 117 l 1
 768 117 l 1
 825 178 858 258 891 346 c 1
 901 348 916 350 932 350 c 0
 946 350 961 348 975 346 c 1
 901 0 l 1
 -2 0 l 1
EndSplineSet
EndChar

StartChar: Ebreve
Encoding: 276 276 78
Width: 1036
GlyphClass: 2
Flags: HMW
HStem: 0 76<-2 8 8 8 8 901> 0 117<371 768 371 901> 643 104 1047 319<1010 1027> 1257 109<553 930 553 553> 1290 76<193 1102> 1456 111<697 785 697 795>
VStem: 524 82<1665 1681> 981 105
AnchorPoint: "Anchor-3" 707 1366 basechar 0
AnchorPoint: "Anchor-2" 870 0 basechar 0
LayerCount: 2
Fore
SplineSet
727 1456 m 0x6b80
 602 1456 524 1538 524 1681 c 1
 538 1706 577 1716 606 1712 c 1
 606 1618 653 1567 741 1567 c 0
 829 1567 902 1626 918 1712 c 1
 945 1716 981 1712 999 1700 c 1
 970 1553 862 1456 727 1456 c 0x6b80
-2 0 m 1
 8 76 l 1
 76 84 136 94 193 129 c 1
 369 1237 l 1
 318 1268 261 1282 193 1290 c 1xa780
 203 1366 l 1
 1102 1366 l 1x6b80
 1071 1057 l 1
 1055 1049 1036 1047 1018 1047 c 0
 1002 1047 991 1049 981 1051 c 1x7380
 979 1114 971 1194 930 1257 c 1
 553 1257 l 1
 471 743 l 1
 678 752 l 2
 731 754 780 787 823 889 c 1
 889 889 l 1
 825 489 l 1
 762 489 l 1
 750 606 725 637 662 639 c 2
 455 647 l 1
 371 117 l 1
 768 117 l 1
 825 178 858 258 891 346 c 1
 901 348 916 350 932 350 c 0
 946 350 961 348 975 346 c 1
 901 0 l 1
 -2 0 l 1
EndSplineSet
EndChar

StartChar: Ecaron
Encoding: 282 282 79
Width: 1036
GlyphClass: 2
Flags: HMW
HStem: 0 76<-2 8 8 8 8 901> 0 117<371 768 371 901> 643 104 1047 319<1010 1027> 1257 109<553 930 553 553> 1290 76<193 1102>
VStem: 981 105
AnchorPoint: "Anchor-3" 707 1366 basechar 0
AnchorPoint: "Anchor-2" 870 0 basechar 0
LayerCount: 2
Fore
SplineSet
715 1456 m 0x6a
 690 1456 669 1468 649 1497 c 2
 502 1706 l 1
 555 1757 l 1
 731 1604 l 1
 963 1757 l 1
 1008 1706 l 1
 793 1497 l 2
 762 1468 740 1456 715 1456 c 0x6a
-2 0 m 1
 8 76 l 1
 76 84 136 94 193 129 c 1
 369 1237 l 1
 318 1268 261 1282 193 1290 c 1xa6
 203 1366 l 1
 1102 1366 l 1x6a
 1071 1057 l 1
 1055 1049 1036 1047 1018 1047 c 0
 1002 1047 991 1049 981 1051 c 1x72
 979 1114 971 1194 930 1257 c 1
 553 1257 l 1
 471 743 l 1
 678 752 l 2
 731 754 780 787 823 889 c 1
 889 889 l 1
 825 489 l 1
 762 489 l 1
 750 606 725 637 662 639 c 2
 455 647 l 1
 371 117 l 1
 768 117 l 1
 825 178 858 258 891 346 c 1
 901 348 916 350 932 350 c 0
 946 350 961 348 975 346 c 1
 901 0 l 1
 -2 0 l 1
EndSplineSet
EndChar

StartChar: Ecircumflex
Encoding: 202 202 80
Width: 1036
GlyphClass: 2
Flags: HMW
HStem: 0 76<-2 8 8 8 8 901> 0 117<371 768 371 901> 643 104 1047 319<1010 1027> 1257 109<553 930 553 553> 1290 76<193 1102>
VStem: 981 105
AnchorPoint: "Anchor-3" 707 1366 basechar 0
AnchorPoint: "Anchor-2" 870 0 basechar 0
LayerCount: 2
Fore
SplineSet
524 1456 m 1x6a
 471 1505 l 1
 690 1716 l 2
 717 1743 739 1757 768 1757 c 0
 791 1757 811 1745 831 1716 c 2
 981 1505 l 1
 928 1456 l 1
 750 1614 l 1
 524 1456 l 1x6a
-2 0 m 1
 8 76 l 1
 76 84 136 94 193 129 c 1
 369 1237 l 1
 318 1268 261 1282 193 1290 c 1xa6
 203 1366 l 1
 1102 1366 l 1x6a
 1071 1057 l 1
 1055 1049 1036 1047 1018 1047 c 0
 1002 1047 991 1049 981 1051 c 1x72
 979 1114 971 1194 930 1257 c 1
 553 1257 l 1
 471 743 l 1
 678 752 l 2
 731 754 780 787 823 889 c 1
 889 889 l 1
 825 489 l 1
 762 489 l 1
 750 606 725 637 662 639 c 2
 455 647 l 1
 371 117 l 1
 768 117 l 1
 825 178 858 258 891 346 c 1
 901 348 916 350 932 350 c 0
 946 350 961 348 975 346 c 1
 901 0 l 1
 -2 0 l 1
EndSplineSet
EndChar

StartChar: Edieresis
Encoding: 203 203 81
Width: 1036
GlyphClass: 2
Flags: HMW
HStem: 0 76<-2 8 8 8 8 901> 0 117<371 768 371 901> 643 104 1047 319<1010 1027> 1257 109<553 930 553 553> 1290 76<193 1102> 1487 215<550 593 892 935>
VStem: 473 197<1578 1611> 815 197<1578 1611> 981 105
AnchorPoint: "Anchor-3" 707 1366 basechar 0
AnchorPoint: "Anchor-2" 870 0 basechar 0
LayerCount: 2
Fore
SplineSet
559 1487 m 0x6b40
 504 1487 473 1518 473 1569 c 0
 473 1653 516 1702 584 1702 c 0
 639 1702 670 1669 670 1620 c 0
 670 1536 627 1487 559 1487 c 0x6b40
901 1487 m 0x6b80
 846 1487 815 1518 815 1569 c 0
 815 1653 858 1702 926 1702 c 0
 981 1702 1012 1669 1012 1620 c 0
 1012 1536 969 1487 901 1487 c 0x6b80
-2 0 m 1
 8 76 l 1
 76 84 136 94 193 129 c 1
 369 1237 l 1
 318 1268 261 1282 193 1290 c 1xa740
 203 1366 l 1
 1102 1366 l 1x6b40
 1071 1057 l 1
 1055 1049 1036 1047 1018 1047 c 0
 1002 1047 991 1049 981 1051 c 1x7340
 979 1114 971 1194 930 1257 c 1x6b40
 553 1257 l 1
 471 743 l 1
 678 752 l 2
 731 754 780 787 823 889 c 1
 889 889 l 1
 825 489 l 1
 762 489 l 1
 750 606 725 637 662 639 c 2
 455 647 l 1
 371 117 l 1
 768 117 l 1
 825 178 858 258 891 346 c 1
 901 348 916 350 932 350 c 0
 946 350 961 348 975 346 c 1
 901 0 l 1
 -2 0 l 1
EndSplineSet
EndChar

StartChar: Edotaccent
Encoding: 278 278 82
Width: 1036
GlyphClass: 2
Flags: HMW
HStem: 0 76<-2 8 8 8 8 901> 0 117<371 768 371 901> 643 104 1047 319<1010 1027> 1257 109<553 930 553 553> 1290 76<193 1102> 1479 238<724 767>
VStem: 637 217<1579 1614> 981 105
AnchorPoint: "Anchor-3" 707 1366 basechar 0
AnchorPoint: "Anchor-2" 870 0 basechar 0
LayerCount: 2
Fore
SplineSet
731 1479 m 0x6b80
 674 1479 637 1518 637 1575 c 0
 637 1653 688 1716 760 1716 c 0
 821 1716 854 1675 854 1618 c 0
 854 1540 803 1479 731 1479 c 0x6b80
-2 0 m 1
 8 76 l 1
 76 84 136 94 193 129 c 1
 369 1237 l 1
 318 1268 261 1282 193 1290 c 1xa780
 203 1366 l 1
 1102 1366 l 1x6b80
 1071 1057 l 1
 1055 1049 1036 1047 1018 1047 c 0
 1002 1047 991 1049 981 1051 c 1x7380
 979 1114 971 1194 930 1257 c 1
 553 1257 l 1
 471 743 l 1
 678 752 l 2
 731 754 780 787 823 889 c 1
 889 889 l 1
 825 489 l 1
 762 489 l 1
 750 606 725 637 662 639 c 2
 455 647 l 1
 371 117 l 1
 768 117 l 1
 825 178 858 258 891 346 c 1
 901 348 916 350 932 350 c 0
 946 350 961 348 975 346 c 1
 901 0 l 1
 -2 0 l 1
EndSplineSet
EndChar

StartChar: Egrave
Encoding: 200 200 83
Width: 1036
GlyphClass: 2
Flags: HMW
HStem: 0 76<-2 8 8 8 8 901> 0 117<371 768 371 901> 643 104 1047 319<1010 1027> 1257 109<553 930 553 553> 1290 76<193 1102>
VStem: 981 105
AnchorPoint: "Anchor-3" 707 1366 basechar 0
AnchorPoint: "Anchor-2" 870 0 basechar 0
LayerCount: 2
Fore
SplineSet
801 1444 m 1x6a
 551 1616 l 2
 518 1639 504 1663 504 1694 c 0
 504 1737 539 1765 578 1765 c 0
 605 1765 626 1758 651 1729 c 2
 846 1495 l 1
 801 1444 l 1x6a
-2 0 m 1
 8 76 l 1
 76 84 136 94 193 129 c 1
 369 1237 l 1
 318 1268 261 1282 193 1290 c 1xa6
 203 1366 l 1
 1102 1366 l 1x6a
 1071 1057 l 1
 1055 1049 1036 1047 1018 1047 c 0
 1002 1047 991 1049 981 1051 c 1x72
 979 1114 971 1194 930 1257 c 1
 553 1257 l 1
 471 743 l 1
 678 752 l 2
 731 754 780 787 823 889 c 1
 889 889 l 1
 825 489 l 1
 762 489 l 1
 750 606 725 637 662 639 c 2
 455 647 l 1
 371 117 l 1
 768 117 l 1
 825 178 858 258 891 346 c 1
 901 348 916 350 932 350 c 0
 946 350 961 348 975 346 c 1
 901 0 l 1
 -2 0 l 1
EndSplineSet
EndChar

StartChar: Emacron
Encoding: 274 274 84
Width: 1036
GlyphClass: 2
Flags: HMW
HStem: 0 76<-2 8 8 8 8 901> 0 117<371 768 371 901> 643 104 1047 319<1010 1027> 1257 109<553 930 553 553> 1290 76<193 1102> 1524 100<444 946 461 930>
VStem: 981 105
AnchorPoint: "Anchor-3" 707 1366 basechar 0
AnchorPoint: "Anchor-2" 870 0 basechar 0
LayerCount: 2
Fore
SplineSet
444 1524 m 1x6b
 461 1624 l 1
 946 1624 l 1
 930 1524 l 1
 444 1524 l 1x6b
-2 0 m 1
 8 76 l 1
 76 84 136 94 193 129 c 1
 369 1237 l 1
 318 1268 261 1282 193 1290 c 1xa7
 203 1366 l 1
 1102 1366 l 1x6b
 1071 1057 l 1
 1055 1049 1036 1047 1018 1047 c 0
 1002 1047 991 1049 981 1051 c 1x73
 979 1114 971 1194 930 1257 c 1
 553 1257 l 1
 471 743 l 1
 678 752 l 2
 731 754 780 787 823 889 c 1
 889 889 l 1
 825 489 l 1
 762 489 l 1
 750 606 725 637 662 639 c 2
 455 647 l 1
 371 117 l 1
 768 117 l 1
 825 178 858 258 891 346 c 1
 901 348 916 350 932 350 c 0
 946 350 961 348 975 346 c 1
 901 0 l 1
 -2 0 l 1
EndSplineSet
EndChar

StartChar: Eogonek
Encoding: 280 280 85
Width: 1036
GlyphClass: 2
Flags: HMW
HStem: -418 100<612 720> 0 76<8 8 8 690 -2 8> 0 117<371 690 371 901 371 870> 643 104 1047 319<1010 1027> 1257 109<553 930 553 553> 1290 76<193 1102>
VStem: 510 127<-269 -250> 981 105
AnchorPoint: "Anchor-3" 707 1366 basechar 0
AnchorPoint: "Anchor-2" 870 0 basechar 0
LayerCount: 2
Fore
SplineSet
203 1366 m 1x3580
 1102 1366 l 1x3580
 1071 1057 l 1
 1055 1049 1036 1047 1018 1047 c 0
 1002 1047 991 1049 981 1051 c 1x3980
 979 1114 971 1194 930 1257 c 1
 553 1257 l 1
 471 743 l 1
 678 752 l 2
 731 754 780 787 823 889 c 1
 889 889 l 1
 825 489 l 1
 762 489 l 1
 750 606 725 637 662 639 c 2
 455 647 l 1
 371 117 l 1
 768 117 l 1
 825 178 858 258 891 346 c 1
 901 348 916 350 932 350 c 0
 946 350 961 348 975 346 c 1
 901 0 l 1
 870 0 l 2
 817 -4 746 -61 707 -104 c 0
 668 -147 637 -201 637 -246 c 0
 637 -293 663 -317 702 -317 c 0
 737 -317 768 -302 805 -279 c 1
 836 -340 l 1
 783 -389 710 -418 653 -418 c 0
 571 -418 510 -369 510 -291 c 0
 510 -209 569 -143 608 -100 c 0
 639 -67 667 -35 690 0 c 1
 -2 0 l 1xb580
 8 76 l 1
 76 84 136 94 193 129 c 1
 369 1237 l 1
 318 1268 261 1282 193 1290 c 1x5380
 203 1366 l 1x3580
EndSplineSet
EndChar

StartChar: uni1EBC
Encoding: 7868 7868 86
Width: 1036
GlyphClass: 2
Flags: HMW
HStem: 0 76<-2 8 8 8 8 901> 0 117<371 768 371 901> 643 104 1047 319<1010 1027> 1257 109<553 930 553 553> 1290 76<193 1102> 1501 125<816 882 816 887> 1575 125<593 658>
VStem: 981 105
AnchorPoint: "Anchor-3" 707 1366 basechar 0
AnchorPoint: "Anchor-2" 870 0 basechar 0
LayerCount: 2
Fore
SplineSet
479 1499 m 1x6980
 450 1507 434 1524 420 1540 c 1
 451 1593 537 1700 643 1700 c 0x6980
 729 1700 778 1626 854 1626 c 0
 909 1626 954 1667 997 1706 c 1
 1026 1696 1043 1681 1059 1665 c 1
 1026 1612 936 1501 838 1501 c 0x6a80
 744 1501 698 1575 618 1575 c 0
 567 1575 522 1538 479 1499 c 1x6980
-2 0 m 1x6a80
 8 76 l 1
 76 84 136 94 193 129 c 1
 369 1237 l 1
 318 1268 261 1282 193 1290 c 1xa680
 203 1366 l 1
 1102 1366 l 1x6a80
 1071 1057 l 1
 1055 1049 1036 1047 1018 1047 c 0
 1002 1047 991 1049 981 1051 c 1x7280
 979 1114 971 1194 930 1257 c 1
 553 1257 l 1
 471 743 l 1
 678 752 l 2
 731 754 780 787 823 889 c 1
 889 889 l 1
 825 489 l 1
 762 489 l 1
 750 606 725 637 662 639 c 2
 455 647 l 1
 371 117 l 1
 768 117 l 1
 825 178 858 258 891 346 c 1
 901 348 916 350 932 350 c 0
 946 350 961 348 975 346 c 1
 901 0 l 1
 -2 0 l 1x6a80
EndSplineSet
EndChar

StartChar: Gbreve
Encoding: 286 286 87
Width: 1042
GlyphClass: 2
Flags: HMW
HStem: -16 117<445 559> 520 86<627 1012> 1278 104<560 767> 1456 111<728 816 728 825>
VStem: 68 199<311 652 311 725> 555 82<1665 1681> 872 197<1129 1179>
AnchorPoint: "Anchor-4" 514 0 basechar 0
AnchorPoint: "Anchor-3" 737 1366 basechar 0
LayerCount: 2
Fore
SplineSet
758 1456 m 0
 633 1456 555 1538 555 1681 c 1
 569 1706 608 1716 637 1712 c 1
 637 1618 684 1567 772 1567 c 0
 860 1567 932 1626 948 1712 c 1
 975 1716 1012 1712 1030 1700 c 1
 1001 1553 893 1456 758 1456 c 0
487 -16 m 0
 258 -16 68 113 68 469 c 0
 68 981 284 1382 733 1382 c 0
 958 1382 1069 1270 1069 1145 c 0
 1069 1065 1028 967 934 967 c 0
 879 967 835 1000 831 1047 c 1
 858 1076 872 1112 872 1147 c 0
 872 1210 822 1278 713 1278 c 0
 408 1278 266 868 266 436 c 0
 266 186 373 100 518 100 c 0
 665 100 774 149 784 219 c 2
 827 483 l 1
 780 497 713 512 627 520 c 1
 639 606 l 1
 1012 606 l 1
 928 113 l 1
 793 23 630 -16 487 -16 c 0
EndSplineSet
EndChar

StartChar: Gcircumflex
Encoding: 284 284 88
Width: 1042
GlyphClass: 2
Flags: HMW
HStem: -16 117<445 559> 520 86<627 1012> 1278 104<560 767>
VStem: 68 199<311 652 311 725> 872 197<1129 1179>
AnchorPoint: "Anchor-4" 514 0 basechar 0
AnchorPoint: "Anchor-3" 737 1366 basechar 0
LayerCount: 2
Fore
SplineSet
555 1456 m 1
 502 1505 l 1
 721 1716 l 2
 748 1743 770 1757 799 1757 c 0
 822 1757 842 1745 862 1716 c 2
 1012 1505 l 1
 958 1456 l 1
 780 1614 l 1
 555 1456 l 1
487 -16 m 0
 258 -16 68 113 68 469 c 0
 68 981 284 1382 733 1382 c 0
 958 1382 1069 1270 1069 1145 c 0
 1069 1065 1028 967 934 967 c 0
 879 967 835 1000 831 1047 c 1
 858 1076 872 1112 872 1147 c 0
 872 1210 822 1278 713 1278 c 0
 408 1278 266 868 266 436 c 0
 266 186 373 100 518 100 c 0
 665 100 774 149 784 219 c 2
 827 483 l 1
 780 497 713 512 627 520 c 1
 639 606 l 1
 1012 606 l 1
 928 113 l 1
 793 23 630 -16 487 -16 c 0
EndSplineSet
EndChar

StartChar: uni0122
Encoding: 290 290 89
Width: 1042
GlyphClass: 2
Flags: HMW
HStem: -432 43G<430 430> -16 117<445 559> 520 86<627 1012> 1278 104<560 767>
VStem: 68 199<311 652 311 725> 430 152<-195 -180> 872 197<1129 1179>
AnchorPoint: "Anchor-4" 514 0 basechar 0
AnchorPoint: "Anchor-3" 737 1366 basechar 0
LayerCount: 2
Fore
SplineSet
487 -16 m 0
 258 -16 68 113 68 469 c 0
 68 981 284 1382 733 1382 c 0
 958 1382 1069 1270 1069 1145 c 0
 1069 1065 1028 967 934 967 c 0
 879 967 835 1000 831 1047 c 1
 858 1076 872 1112 872 1147 c 0
 872 1210 822 1278 713 1278 c 0
 408 1278 266 868 266 436 c 0
 266 186 373 100 518 100 c 0
 665 100 774 149 784 219 c 2
 827 483 l 1
 780 497 713 512 627 520 c 1
 639 606 l 1
 1012 606 l 1
 928 113 l 1
 793 23 630 -16 487 -16 c 0
430 -432 m 1
 360 -406 l 1
 411 -314 430 -240 430 -197 c 0
 430 -164 420 -141 397 -121 c 1
 424 -88 460 -76 487 -76 c 0
 546 -76 582 -109 582 -158 c 0
 582 -232 506 -344 430 -432 c 1
EndSplineSet
EndChar

StartChar: Gdotaccent
Encoding: 288 288 90
Width: 1042
GlyphClass: 2
Flags: HMW
HStem: -16 117<445 559> 520 86<627 1012> 1278 104<560 767> 1479 238<755 798>
VStem: 68 199<311 652 311 725> 668 217<1579 1614> 872 197<1129 1179>
AnchorPoint: "Anchor-4" 514 0 basechar 0
AnchorPoint: "Anchor-3" 737 1366 basechar 0
LayerCount: 2
Fore
SplineSet
762 1479 m 0xfc
 705 1479 668 1518 668 1575 c 0
 668 1653 719 1716 791 1716 c 0
 852 1716 885 1675 885 1618 c 0
 885 1540 834 1479 762 1479 c 0xfc
487 -16 m 0
 258 -16 68 113 68 469 c 0
 68 981 284 1382 733 1382 c 0
 958 1382 1069 1270 1069 1145 c 0
 1069 1065 1028 967 934 967 c 0
 879 967 835 1000 831 1047 c 1
 858 1076 872 1112 872 1147 c 0xfa
 872 1210 822 1278 713 1278 c 0
 408 1278 266 868 266 436 c 0
 266 186 373 100 518 100 c 0
 665 100 774 149 784 219 c 2
 827 483 l 1
 780 497 713 512 627 520 c 1
 639 606 l 1
 1012 606 l 1
 928 113 l 1
 793 23 630 -16 487 -16 c 0
EndSplineSet
EndChar

StartChar: Hbar
Encoding: 294 294 91
Width: 1378
GlyphClass: 2
Flags: HMW
HStem: 0 76<18 18 18 539 8 18> 645 111<471 977 455 993> 930 90<170 319 158 334 514 1022 1217 1372> 1290 76<193 723 713 713 1413 1413>
VStem: 8 1417<0 1366>
AnchorPoint: "Anchor-3" 819 1366 basechar 0
LayerCount: 2
Fore
SplineSet
1413 1290 m 1
 1347 1282 1306 1270 1251 1237 c 1
 1217 1020 l 1
 1386 1020 l 1
 1372 930 l 1
 1202 930 l 1
 1075 129 l 1
 1132 96 1194 84 1262 76 c 1
 1251 0 l 1
 721 0 l 1
 731 76 l 1
 797 84 838 94 895 129 c 1
 977 645 l 1
 455 645 l 1
 373 129 l 1
 428 96 481 84 547 76 c 1
 539 0 l 1
 8 0 l 1
 18 76 l 1
 84 84 136 94 193 129 c 1
 319 930 l 1
 158 930 l 1
 170 1020 l 1
 334 1020 l 1
 369 1237 l 1
 318 1268 261 1282 193 1290 c 1
 203 1366 l 1
 723 1366 l 1
 713 1290 l 1
 645 1282 604 1270 549 1237 c 1
 514 1020 l 1
 1036 1020 l 1
 1071 1237 l 1
 1016 1268 963 1282 897 1290 c 1
 905 1366 l 1
 1425 1366 l 1
 1413 1290 l 1
993 756 m 1
 1022 930 l 1
 500 930 l 1
 471 756 l 1
 993 756 l 1
EndSplineSet
EndChar

StartChar: Hcircumflex
Encoding: 292 292 92
Width: 1378
GlyphClass: 2
Flags: HMW
HStem: 0 76<8 18 18 18 18 539> 645 111<471 977 455 993> 1290 76<193 723 713 713 1413 1413>
VStem: 8 1417<0 1366>
AnchorPoint: "Anchor-3" 819 1366 basechar 0
LayerCount: 2
Fore
SplineSet
637 1456 m 1
 584 1505 l 1
 803 1716 l 2
 830 1743 852 1757 881 1757 c 0
 904 1757 924 1745 944 1716 c 2
 1094 1505 l 1
 1040 1456 l 1
 862 1614 l 1
 637 1456 l 1
8 0 m 1
 18 76 l 1
 84 84 136 94 193 129 c 1
 369 1237 l 1
 318 1268 261 1282 193 1290 c 1
 203 1366 l 1
 723 1366 l 1
 713 1290 l 1
 645 1282 604 1270 549 1237 c 1
 471 756 l 1
 993 756 l 1
 1071 1237 l 1
 1016 1268 963 1282 897 1290 c 1
 905 1366 l 1
 1425 1366 l 1
 1413 1290 l 1
 1347 1282 1306 1270 1251 1237 c 1
 1075 129 l 1
 1132 96 1194 84 1262 76 c 1
 1251 0 l 1
 721 0 l 1
 731 76 l 1
 797 84 838 94 895 129 c 1
 977 645 l 1
 455 645 l 1
 373 129 l 1
 428 96 481 84 547 76 c 1
 539 0 l 1
 8 0 l 1
EndSplineSet
EndChar

StartChar: Iacute
Encoding: 205 205 93
Width: 675
GlyphClass: 2
Flags: HMW
HStem: 0 76<6 16 16 16 16 547> 1290 76<193 733 723 723>
VStem: 6 741
AnchorPoint: "Anchor-3" 487 1366 basechar 0
AnchorPoint: "Anchor-2" 332 0 basechar 0
LayerCount: 2
Fore
SplineSet
451 1444 m 1
 406 1495 l 1
 598 1724 l 2
 621 1753 645 1765 674 1765 c 0
 713 1765 748 1737 748 1696 c 0
 748 1665 737 1643 700 1616 c 2
 451 1444 l 1
6 0 m 1
 16 76 l 1
 82 84 136 94 193 129 c 1
 369 1237 l 1
 318 1268 261 1282 193 1290 c 1
 203 1366 l 1
 733 1366 l 1
 723 1290 l 1
 657 1282 606 1270 549 1237 c 1
 373 129 l 1
 428 96 491 84 557 76 c 1
 547 0 l 1
 6 0 l 1
EndSplineSet
EndChar

StartChar: Ibreve
Encoding: 300 300 94
Width: 675
GlyphClass: 2
Flags: HMW
HStem: 0 76<6 16 16 16 16 547> 1290 76<193 733 723 723> 1456 111<478 566 478 575>
VStem: 305 82<1665 1681>
AnchorPoint: "Anchor-3" 487 1366 basechar 0
AnchorPoint: "Anchor-2" 332 0 basechar 0
LayerCount: 2
Fore
SplineSet
508 1456 m 0
 383 1456 305 1538 305 1681 c 1
 319 1706 358 1716 387 1712 c 1
 387 1618 434 1567 522 1567 c 0
 610 1567 682 1626 698 1712 c 1
 725 1716 762 1712 780 1700 c 1
 751 1553 643 1456 508 1456 c 0
6 0 m 1
 16 76 l 1
 82 84 136 94 193 129 c 1
 369 1237 l 1
 318 1268 261 1282 193 1290 c 1
 203 1366 l 1
 733 1366 l 1
 723 1290 l 1
 657 1282 606 1270 549 1237 c 1
 373 129 l 1
 428 96 491 84 557 76 c 1
 547 0 l 1
 6 0 l 1
EndSplineSet
EndChar

StartChar: Icircumflex
Encoding: 206 206 95
Width: 675
GlyphClass: 2
Flags: HMW
HStem: 0 76<6 16 16 16 16 547> 1290 76<193 733 723 723>
VStem: 6 756
AnchorPoint: "Anchor-3" 487 1366 basechar 0
AnchorPoint: "Anchor-2" 332 0 basechar 0
LayerCount: 2
Fore
SplineSet
305 1456 m 1
 252 1505 l 1
 471 1716 l 2
 498 1743 520 1757 549 1757 c 0
 572 1757 592 1745 612 1716 c 2
 762 1505 l 1
 709 1456 l 1
 530 1614 l 1
 305 1456 l 1
6 0 m 1
 16 76 l 1
 82 84 136 94 193 129 c 1
 369 1237 l 1
 318 1268 261 1282 193 1290 c 1
 203 1366 l 1
 733 1366 l 1
 723 1290 l 1
 657 1282 606 1270 549 1237 c 1
 373 129 l 1
 428 96 491 84 557 76 c 1
 547 0 l 1
 6 0 l 1
EndSplineSet
EndChar

StartChar: Idieresis
Encoding: 207 207 96
Width: 675
GlyphClass: 2
Flags: HMW
HStem: 0 76<6 16 16 16 16 547> 1290 76<193 733 723 723> 1487 215<331 374 673 716>
VStem: 254 197<1578 1611> 596 197<1578 1611>
AnchorPoint: "Anchor-3" 487 1366 basechar 0
AnchorPoint: "Anchor-2" 332 0 basechar 0
LayerCount: 2
Fore
SplineSet
340 1487 m 0
 285 1487 254 1518 254 1569 c 0
 254 1653 297 1702 365 1702 c 0
 420 1702 451 1669 451 1620 c 0
 451 1536 408 1487 340 1487 c 0
682 1487 m 0
 627 1487 596 1518 596 1569 c 0
 596 1653 639 1702 707 1702 c 0
 762 1702 793 1669 793 1620 c 0
 793 1536 750 1487 682 1487 c 0
6 0 m 1
 16 76 l 1
 82 84 136 94 193 129 c 1
 369 1237 l 1
 318 1268 261 1282 193 1290 c 1
 203 1366 l 1
 733 1366 l 1
 723 1290 l 1
 657 1282 606 1270 549 1237 c 1
 373 129 l 1
 428 96 491 84 557 76 c 1
 547 0 l 1
 6 0 l 1
EndSplineSet
EndChar

StartChar: Idotaccent
Encoding: 304 304 97
Width: 675
GlyphClass: 2
Flags: HMW
HStem: 0 76<6 16 16 16 16 547> 1290 76<193 733 723 723> 1479 238<505 548>
VStem: 418 217<1579 1614>
AnchorPoint: "Anchor-3" 487 1366 basechar 0
AnchorPoint: "Anchor-2" 332 0 basechar 0
LayerCount: 2
Fore
SplineSet
512 1479 m 0
 455 1479 418 1518 418 1575 c 0
 418 1653 469 1716 541 1716 c 0
 602 1716 635 1675 635 1618 c 0
 635 1540 584 1479 512 1479 c 0
6 0 m 1
 16 76 l 1
 82 84 136 94 193 129 c 1
 369 1237 l 1
 318 1268 261 1282 193 1290 c 1
 203 1366 l 1
 733 1366 l 1
 723 1290 l 1
 657 1282 606 1270 549 1237 c 1
 373 129 l 1
 428 96 491 84 557 76 c 1
 547 0 l 1
 6 0 l 1
EndSplineSet
EndChar

StartChar: Igrave
Encoding: 204 204 98
Width: 675
GlyphClass: 2
Flags: HMW
HStem: 0 76<6 16 16 16 16 547> 1290 76<193 733 723 723>
VStem: 6 727
AnchorPoint: "Anchor-3" 487 1366 basechar 0
AnchorPoint: "Anchor-2" 332 0 basechar 0
LayerCount: 2
Fore
SplineSet
582 1444 m 1
 332 1616 l 2
 299 1639 285 1663 285 1694 c 0
 285 1737 319 1765 358 1765 c 0
 385 1765 407 1758 432 1729 c 2
 627 1495 l 1
 582 1444 l 1
6 0 m 1
 16 76 l 1
 82 84 136 94 193 129 c 1
 369 1237 l 1
 318 1268 261 1282 193 1290 c 1
 203 1366 l 1
 733 1366 l 1
 723 1290 l 1
 657 1282 606 1270 549 1237 c 1
 373 129 l 1
 428 96 491 84 557 76 c 1
 547 0 l 1
 6 0 l 1
EndSplineSet
EndChar

StartChar: Imacron
Encoding: 298 298 99
Width: 675
GlyphClass: 2
Flags: HMW
HStem: 0 76<6 16 16 16 16 547> 1290 76<193 733 723 723> 1524 100<225 727 242 711>
VStem: 6 727
AnchorPoint: "Anchor-3" 487 1366 basechar 0
AnchorPoint: "Anchor-2" 332 0 basechar 0
LayerCount: 2
Fore
SplineSet
225 1524 m 1
 242 1624 l 1
 727 1624 l 1
 711 1524 l 1
 225 1524 l 1
6 0 m 1
 16 76 l 1
 82 84 136 94 193 129 c 1
 369 1237 l 1
 318 1268 261 1282 193 1290 c 1
 203 1366 l 1
 733 1366 l 1
 723 1290 l 1
 657 1282 606 1270 549 1237 c 1
 373 129 l 1
 428 96 491 84 557 76 c 1
 547 0 l 1
 6 0 l 1
EndSplineSet
EndChar

StartChar: Iogonek
Encoding: 302 302 100
Width: 655
GlyphClass: 1
Flags: HMW
HStem: -418 100<53 161> 0 76<311 537> 1290 76<172 713 702 702>
VStem: -49 127<-269 -250>
LayerCount: 2
Fore
SplineSet
526 0 m 1
 311 0 l 2
 258 -4 186 -61 147 -104 c 0
 108 -147 78 -201 78 -246 c 0
 78 -293 104 -317 143 -317 c 0
 178 -317 209 -302 246 -279 c 1
 276 -340 l 1
 223 -389 151 -418 94 -418 c 0
 12 -418 -49 -369 -49 -291 c 0
 -49 -209 4 -148 63 -80 c 0
 131 -2 156 31 172 129 c 2
 348 1237 l 1
 297 1268 240 1282 172 1290 c 1
 182 1366 l 1
 713 1366 l 1
 702 1290 l 1
 636 1282 585 1270 528 1237 c 1
 352 129 l 1
 407 96 471 84 537 76 c 1
 526 0 l 1
EndSplineSet
EndChar

StartChar: Itilde
Encoding: 296 296 101
Width: 675
GlyphClass: 2
Flags: HMW
HStem: 0 76<6 16 16 16 16 547> 1290 76<193 733 723 723> 1501 125<597 663 597 668> 1575 125<374 439>
VStem: 6 834
AnchorPoint: "Anchor-3" 487 1366 basechar 0
AnchorPoint: "Anchor-2" 332 0 basechar 0
LayerCount: 2
Fore
SplineSet
260 1499 m 1xd8
 231 1507 215 1524 201 1540 c 1
 232 1593 318 1700 424 1700 c 0xd8
 510 1700 559 1626 635 1626 c 0
 690 1626 735 1667 778 1706 c 1
 807 1696 824 1681 840 1665 c 1
 807 1612 716 1501 618 1501 c 0xe8
 524 1501 479 1575 399 1575 c 0
 348 1575 303 1538 260 1499 c 1xd8
6 0 m 1xe8
 16 76 l 1
 82 84 136 94 193 129 c 1
 369 1237 l 1
 318 1268 261 1282 193 1290 c 1
 203 1366 l 1
 733 1366 l 1
 723 1290 l 1
 657 1282 606 1270 549 1237 c 1
 373 129 l 1
 428 96 491 84 557 76 c 1
 547 0 l 1
 6 0 l 1xe8
EndSplineSet
EndChar

StartChar: Jcircumflex
Encoding: 308 308 102
Width: 618
GlyphClass: 2
Flags: HMW
HStem: 1290 76<172 715 702 702>
VStem: -137 858
AnchorPoint: "Anchor-3" 446 1366 basechar 0
LayerCount: 2
Fore
SplineSet
264 1456 m 1
 211 1505 l 1
 430 1716 l 2
 457 1743 479 1757 508 1757 c 0
 531 1757 551 1745 571 1716 c 2
 721 1505 l 1
 668 1456 l 1
 489 1614 l 1
 264 1456 l 1
-125 -399 m 1
 -137 -338 l 1
 -8 -285 123 -197 154 2 c 2
 350 1237 l 1
 299 1268 240 1282 172 1290 c 1
 182 1366 l 1
 715 1366 l 1
 702 1290 l 1
 636 1282 585 1270 530 1237 c 1
 340 33 l 2
 301 -217 123 -338 -125 -399 c 1
EndSplineSet
EndChar

StartChar: uni0136
Encoding: 310 310 103
Width: 1200
GlyphClass: 2
Flags: HMW
HStem: -432 43G<553 553> 0 76<6 18 18 18 18 549> 1290 76<193 705 694 694 1272 1272>
VStem: 553 152<-195 -180>
AnchorPoint: "Anchor-4" 637 0 basechar 0
LayerCount: 2
Fore
SplineSet
6 0 m 1
 18 76 l 1
 84 84 135 94 190 129 c 1
 369 1237 l 1
 320 1268 261 1282 193 1290 c 1
 203 1366 l 1
 705 1366 l 1
 694 1290 l 1
 639 1284 598 1273 553 1253 c 1
 373 129 l 1
 430 96 491 84 557 76 c 1
 549 0 l 1
 6 0 l 1
928 0 m 2
 848 0 807 21 760 119 c 2
 471 711 l 1
 899 1186 l 2
 919 1209 924 1221 924 1233 c 0
 924 1270 893 1288 823 1290 c 1
 834 1366 l 1
 1280 1366 l 1
 1272 1290 l 1
 1186 1286 1137 1276 1094 1229 c 2
 655 756 l 1
 954 170 l 2
 979 119 1037 90 1141 78 c 1
 1118 0 l 1
 928 0 l 2
553 -432 m 1
 483 -406 l 1
 534 -314 553 -240 553 -197 c 0
 553 -164 543 -141 520 -121 c 1
 547 -88 583 -76 610 -76 c 0
 669 -76 705 -109 705 -158 c 0
 705 -232 629 -344 553 -432 c 1
EndSplineSet
EndChar

StartChar: Lacute
Encoding: 313 313 104
Width: 970
GlyphClass: 2
Flags: HMW
HStem: 0 76<4 16 16 16 16 848> 0 117<518 717 518 848> 1290 76<193 754 743 743>
VStem: 4 920<0 346>
AnchorPoint: "Anchor-4" 463 0 basechar 0
AnchorPoint: "Anchor-3" 483 1366 basechar 0
LayerCount: 2
Fore
SplineSet
446 1444 m 1x70
 401 1495 l 1
 594 1724 l 2
 617 1753 641 1765 670 1765 c 0
 709 1765 743 1737 743 1696 c 0
 743 1665 733 1643 696 1616 c 2
 446 1444 l 1x70
4 0 m 1
 16 76 l 1
 82 84 133 94 190 129 c 1xb0
 369 1237 l 1
 318 1268 259 1282 193 1290 c 1
 203 1366 l 1
 754 1366 l 1
 743 1290 l 1
 675 1282 604 1270 549 1237 c 1
 383 197 l 2
 375 136 397 117 518 117 c 2
 717 117 l 1
 778 189 815 278 840 346 c 1
 852 348 867 350 881 350 c 0
 893 350 908 348 924 346 c 1
 848 0 l 1
 4 0 l 1
EndSplineSet
EndChar

StartChar: Lcaron
Encoding: 317 317 105
Width: 970
GlyphClass: 2
Flags: HMW
HStem: 0 76<4 16 16 16 16 848> 0 117<518 717 518 848> 1290 76<193 754 743 743> 1333 41G<935 948>
VStem: 897 141<1231 1260>
AnchorPoint: "Anchor-4" 463 0 basechar 0
AnchorPoint: "Anchor-3" 483 1366 basechar 0
LayerCount: 2
Fore
SplineSet
891 973 m 1x68
 817 1004 l 1
 872 1115 897 1190 897 1239 c 0
 897 1280 883 1312 854 1335 c 1
 883 1368 921 1374 948 1374 c 0
 1009 1370 1038 1323 1038 1274 c 0x58
 1038 1188 961 1073 891 973 c 1x68
4 0 m 1
 16 76 l 1
 82 84 133 94 190 129 c 1
 369 1237 l 1
 318 1268 259 1282 193 1290 c 1
 203 1366 l 1
 754 1366 l 1
 743 1290 l 1
 675 1282 604 1270 549 1237 c 1xa8
 383 197 l 2
 375 136 397 117 518 117 c 2
 717 117 l 1
 778 189 815 278 840 346 c 1
 852 348 867 350 881 350 c 0
 893 350 908 348 924 346 c 1
 848 0 l 1
 4 0 l 1
EndSplineSet
EndChar

StartChar: uni013B
Encoding: 315 315 106
Width: 970
GlyphClass: 2
Flags: HMW
HStem: -432 43G<379 379> 0 76<4 16 16 16 16 848> 0 117<518 717 518 848> 1290 76<193 754 743 743>
VStem: 379 152<-195 -180>
AnchorPoint: "Anchor-4" 463 0 basechar 0
AnchorPoint: "Anchor-3" 483 1366 basechar 0
LayerCount: 2
Fore
SplineSet
4 0 m 1xb8
 16 76 l 1
 82 84 133 94 190 129 c 1xd8
 369 1237 l 1
 318 1268 259 1282 193 1290 c 1
 203 1366 l 1
 754 1366 l 1
 743 1290 l 1
 675 1282 604 1270 549 1237 c 1
 383 197 l 2
 375 136 397 117 518 117 c 2
 717 117 l 1
 778 189 815 278 840 346 c 1
 852 348 867 350 881 350 c 0
 893 350 908 348 924 346 c 1
 848 0 l 1
 4 0 l 1xb8
379 -432 m 1
 309 -406 l 1
 360 -314 379 -240 379 -197 c 0
 379 -164 369 -141 346 -121 c 1
 373 -88 409 -76 436 -76 c 0
 495 -76 530 -109 530 -158 c 0
 530 -232 455 -344 379 -432 c 1
EndSplineSet
EndChar

StartChar: Ldot
Encoding: 319 319 107
Width: 970
GlyphClass: 2
Flags: HMW
HStem: 0 76<4 16 16 16 16 848> 0 117<518 717 518 848> 586 238<759 802> 1290 76<193 754 743 743>
VStem: 672 217<686 721>
AnchorPoint: "Anchor-4" 463 0 basechar 0
AnchorPoint: "Anchor-3" 483 1366 basechar 0
LayerCount: 2
Fore
SplineSet
4 0 m 1x58
 16 76 l 1
 82 84 133 94 190 129 c 1xb8
 369 1237 l 1
 318 1268 259 1282 193 1290 c 1
 203 1366 l 1
 754 1366 l 1
 743 1290 l 1
 675 1282 604 1270 549 1237 c 1
 383 197 l 2
 375 136 397 117 518 117 c 2
 717 117 l 1
 778 189 815 278 840 346 c 1
 852 348 867 350 881 350 c 0
 893 350 908 348 924 346 c 1
 848 0 l 1
 4 0 l 1x58
766 586 m 0
 709 586 672 625 672 682 c 0
 672 760 723 823 795 823 c 0
 856 823 889 782 889 725 c 0
 889 647 838 586 766 586 c 0
EndSplineSet
Ligature2: "Ligature Substitution lookup 13 subtable" L periodcentered
EndChar

StartChar: Lslash
Encoding: 321 321 108
Width: 1077
GlyphClass: 2
Flags: HMW
HStem: 0 76<16 16 16 848 4 16> 0 117<518 717 518 848> 1290 76<193 754 743 743>
VStem: 4 920<0 346>
AnchorPoint: "Anchor-4" 463 0 basechar 0
AnchorPoint: "Anchor-3" 483 1366 basechar 0
LayerCount: 2
Fore
SplineSet
881 350 m 0x70
 893 350 908 348 924 346 c 1
 848 0 l 1
 4 0 l 1x70
 16 76 l 1
 82 84 133 94 190 129 c 1xb0
 254 528 l 1
 106 451 l 1
 66 545 l 1
 274 655 l 1
 369 1237 l 1
 318 1268 259 1282 193 1290 c 1
 203 1366 l 1
 754 1366 l 1
 743 1290 l 1
 675 1282 604 1270 549 1237 c 1
 473 760 l 1
 799 932 l 1
 840 838 l 1
 453 633 l 1
 383 197 l 2
 375 136 397 117 518 117 c 2
 717 117 l 1
 778 189 815 278 840 346 c 1
 852 348 867 350 881 350 c 0x70
EndSplineSet
EndChar

StartChar: Nacute
Encoding: 323 323 109
Width: 1339
GlyphClass: 2
Flags: HMW
HStem: 0 76<16 16 16 498 4 16> 1290 76<193 518 1427 1427>
VStem: 4 1434<0 1366>
AnchorPoint: "Anchor-4" 711 0 basechar 0
AnchorPoint: "Anchor-3" 815 1366 basechar 0
LayerCount: 2
Fore
SplineSet
1028 1616 m 2
 778 1444 l 1
 733 1495 l 1
 926 1724 l 2
 949 1753 972 1765 1001 1765 c 0
 1040 1765 1075 1737 1075 1696 c 0
 1075 1665 1065 1643 1028 1616 c 2
954 1366 m 1
 1438 1366 l 1
 1427 1290 l 1
 1361 1282 1310 1270 1253 1237 c 1
 1057 0 l 1
 973 0 l 1
 469 1059 l 1
 319 129 l 1
 378 96 440 84 506 76 c 1
 498 0 l 1
 4 0 l 1
 16 76 l 1
 82 84 131 94 188 127 c 1
 367 1237 l 1
 316 1268 259 1282 193 1290 c 1
 203 1366 l 1
 518 1366 l 1
 985 375 l 1
 1120 1237 l 1
 1071 1268 1012 1282 946 1290 c 1
 954 1366 l 1
EndSplineSet
EndChar

StartChar: Ncaron
Encoding: 327 327 110
Width: 1339
GlyphClass: 2
Flags: HMW
HStem: 0 76<16 16 16 498 4 16> 1290 76<193 518 1427 1427>
VStem: 4 1434<0 1366>
AnchorPoint: "Anchor-4" 711 0 basechar 0
AnchorPoint: "Anchor-3" 815 1366 basechar 0
LayerCount: 2
Fore
SplineSet
823 1456 m 0
 798 1456 778 1468 758 1497 c 2
 610 1706 l 1
 664 1757 l 1
 840 1604 l 1
 1071 1757 l 1
 1116 1706 l 1
 901 1497 l 2
 870 1468 848 1456 823 1456 c 0
954 1366 m 1
 1438 1366 l 1
 1427 1290 l 1
 1361 1282 1310 1270 1253 1237 c 1
 1057 0 l 1
 973 0 l 1
 469 1059 l 1
 319 129 l 1
 378 96 440 84 506 76 c 1
 498 0 l 1
 4 0 l 1
 16 76 l 1
 82 84 131 94 188 127 c 1
 367 1237 l 1
 316 1268 259 1282 193 1290 c 1
 203 1366 l 1
 518 1366 l 1
 985 375 l 1
 1120 1237 l 1
 1071 1268 1012 1282 946 1290 c 1
 954 1366 l 1
EndSplineSet
EndChar

StartChar: Ntilde
Encoding: 209 209 111
Width: 1339
GlyphClass: 2
Flags: HMW
HStem: 0 76<16 16 16 498 4 16> 1290 76<193 518 1427 1427> 1501 125<925 990 925 995> 1575 125<701 767>
VStem: 4 1434<0 1366>
AnchorPoint: "Anchor-4" 711 0 basechar 0
AnchorPoint: "Anchor-3" 815 1366 basechar 0
LayerCount: 2
Fore
SplineSet
588 1499 m 1xd8
 559 1507 542 1524 528 1540 c 1
 559 1593 646 1700 752 1700 c 0xd8
 838 1700 887 1626 963 1626 c 0
 1018 1626 1063 1667 1106 1706 c 1
 1135 1696 1151 1681 1167 1665 c 1
 1134 1612 1044 1501 946 1501 c 0xe8
 852 1501 807 1575 727 1575 c 0
 676 1575 631 1538 588 1499 c 1xd8
954 1366 m 1xe8
 1438 1366 l 1
 1427 1290 l 1
 1361 1282 1310 1270 1253 1237 c 1
 1057 0 l 1
 973 0 l 1
 469 1059 l 1
 319 129 l 1
 378 96 440 84 506 76 c 1
 498 0 l 1
 4 0 l 1
 16 76 l 1
 82 84 131 94 188 127 c 1
 367 1237 l 1
 316 1268 259 1282 193 1290 c 1
 203 1366 l 1
 518 1366 l 1
 985 375 l 1
 1120 1237 l 1
 1071 1268 1012 1282 946 1290 c 1
 954 1366 l 1xe8
EndSplineSet
EndChar

StartChar: Eng
Encoding: 330 330 112
Width: 1374
GlyphClass: 1
Flags: HMW
HStem: -307 98<774 805> 0 76<12 12 12 494 0 12> 1290 76<188 514 1423 1423>
VStem: 555 174<-170 -139 -170 -110>
LayerCount: 2
Fore
SplineSet
754 -307 m 0
 637 -307 555 -246 555 -152 c 0
 555 -68 604 -14 672 -14 c 0
 715 -14 756 -39 764 -88 c 1
 741 -100 729 -127 729 -152 c 0
 729 -189 756 -209 793 -209 c 0
 881 -209 910 -94 928 82 c 1
 463 1044 l 1
 315 129 l 1
 374 96 436 84 502 76 c 1
 494 0 l 1
 0 0 l 1
 12 76 l 1
 78 84 127 94 184 127 c 1
 362 1237 l 1
 311 1268 254 1282 188 1290 c 1
 199 1366 l 1
 514 1366 l 1
 983 397 l 1
 1116 1237 l 1
 1067 1268 1008 1282 942 1290 c 1
 950 1366 l 1
 1434 1366 l 1
 1423 1290 l 1
 1357 1282 1306 1270 1249 1237 c 1
 1071 117 l 2
 1048 -20 1026 -137 967 -213 c 0
 922 -272 856 -307 754 -307 c 0
EndSplineSet
EndChar

StartChar: Oacute
Encoding: 211 211 113
Width: 1189
GlyphClass: 2
Flags: HMW
HStem: -14 96<449 662 449 735> 1284 98<593 807>
VStem: 70 203<340 705 340 720> 985 201<655 1022>
AnchorPoint: "Anchor-4" 506 0 basechar 0
AnchorPoint: "Anchor-3" 764 1366 basechar 0
LayerCount: 2
Fore
SplineSet
727 1444 m 1
 682 1495 l 1
 874 1724 l 2
 897 1753 921 1765 950 1765 c 0
 989 1765 1024 1737 1024 1696 c 0
 1024 1665 1014 1643 977 1616 c 2
 727 1444 l 1
500 -14 m 0
 213 -14 70 172 70 504 c 0
 70 936 287 1382 758 1382 c 0
 1047 1382 1186 1198 1186 866 c 0
 1186 432 971 -14 500 -14 c 0
530 82 m 0
 792 82 985 418 985 893 c 0
 985 1151 889 1284 725 1284 c 0
 461 1284 272 940 272 469 c 0
 272 211 366 82 530 82 c 0
EndSplineSet
EndChar

StartChar: Obreve
Encoding: 334 334 114
Width: 1189
GlyphClass: 2
Flags: HMW
HStem: -14 96<449 662 449 735> 1284 98<593 807> 1456 111<755 843 755 852>
VStem: 70 203<340 705 340 720> 582 82<1665 1681> 985 201<655 1022>
AnchorPoint: "Anchor-4" 506 0 basechar 0
AnchorPoint: "Anchor-3" 764 1366 basechar 0
LayerCount: 2
Fore
SplineSet
784 1456 m 0
 659 1456 582 1538 582 1681 c 1
 596 1706 635 1716 664 1712 c 1
 664 1618 711 1567 799 1567 c 0
 887 1567 959 1626 975 1712 c 1
 1002 1716 1039 1712 1057 1700 c 1
 1028 1553 919 1456 784 1456 c 0
500 -14 m 0
 213 -14 70 172 70 504 c 0
 70 936 287 1382 758 1382 c 0
 1047 1382 1186 1198 1186 866 c 0
 1186 432 971 -14 500 -14 c 0
530 82 m 0
 792 82 985 418 985 893 c 0
 985 1151 889 1284 725 1284 c 0
 461 1284 272 940 272 469 c 0
 272 211 366 82 530 82 c 0
EndSplineSet
EndChar

StartChar: Ocircumflex
Encoding: 212 212 115
Width: 1189
GlyphClass: 2
Flags: HMW
HStem: -14 96<449 662 449 735> 1284 98<593 807>
VStem: 70 203<340 705 340 720> 985 201<655 1022>
AnchorPoint: "Anchor-4" 506 0 basechar 0
AnchorPoint: "Anchor-3" 764 1366 basechar 0
LayerCount: 2
Fore
SplineSet
582 1456 m 1
 528 1505 l 1
 748 1716 l 2
 775 1743 796 1757 825 1757 c 0
 848 1757 869 1745 889 1716 c 2
 1038 1505 l 1
 985 1456 l 1
 807 1614 l 1
 582 1456 l 1
500 -14 m 0
 213 -14 70 172 70 504 c 0
 70 936 287 1382 758 1382 c 0
 1047 1382 1186 1198 1186 866 c 0
 1186 432 971 -14 500 -14 c 0
530 82 m 0
 792 82 985 418 985 893 c 0
 985 1151 889 1284 725 1284 c 0
 461 1284 272 940 272 469 c 0
 272 211 366 82 530 82 c 0
EndSplineSet
EndChar

StartChar: Odieresis
Encoding: 214 214 116
Width: 1189
GlyphClass: 2
Flags: HMW
HStem: -14 96<449 662 449 735> 1284 98<593 807> 1487 215<607 650 949 992>
VStem: 70 203<340 705 340 720> 530 197<1578 1611> 872 197<1578 1611> 985 201<655 1022>
AnchorPoint: "Anchor-4" 506 0 basechar 0
AnchorPoint: "Anchor-3" 764 1366 basechar 0
LayerCount: 2
Fore
SplineSet
616 1487 m 0xfa
 561 1487 530 1518 530 1569 c 0
 530 1653 573 1702 641 1702 c 0
 696 1702 727 1669 727 1620 c 0
 727 1536 684 1487 616 1487 c 0xfa
958 1487 m 0xfc
 903 1487 872 1518 872 1569 c 0
 872 1653 915 1702 983 1702 c 0
 1038 1702 1069 1669 1069 1620 c 0
 1069 1536 1026 1487 958 1487 c 0xfc
500 -14 m 0
 213 -14 70 172 70 504 c 0
 70 936 287 1382 758 1382 c 0
 1047 1382 1186 1198 1186 866 c 0xfa
 1186 432 971 -14 500 -14 c 0
530 82 m 0xfa
 792 82 985 418 985 893 c 0
 985 1151 889 1284 725 1284 c 0
 461 1284 272 940 272 469 c 0
 272 211 366 82 530 82 c 0xfa
EndSplineSet
EndChar

StartChar: Ograve
Encoding: 210 210 117
Width: 1189
GlyphClass: 2
Flags: HMW
HStem: -14 96<449 662 449 735> 1284 98<593 807>
VStem: 70 203<340 705 340 720> 985 201<655 1022>
AnchorPoint: "Anchor-4" 506 0 basechar 0
AnchorPoint: "Anchor-3" 764 1366 basechar 0
LayerCount: 2
Fore
SplineSet
858 1444 m 1
 608 1616 l 2
 575 1639 561 1663 561 1694 c 0
 561 1737 596 1765 635 1765 c 0
 662 1765 684 1758 709 1729 c 2
 903 1495 l 1
 858 1444 l 1
500 -14 m 0
 213 -14 70 172 70 504 c 0
 70 936 287 1382 758 1382 c 0
 1047 1382 1186 1198 1186 866 c 0
 1186 432 971 -14 500 -14 c 0
530 82 m 0
 792 82 985 418 985 893 c 0
 985 1151 889 1284 725 1284 c 0
 461 1284 272 940 272 469 c 0
 272 211 366 82 530 82 c 0
EndSplineSet
EndChar

StartChar: Ohungarumlaut
Encoding: 336 336 118
Width: 1189
GlyphClass: 2
Flags: HMW
HStem: -14 96<449 662 449 735> 1284 98<593 807>
VStem: 70 203<340 705 340 720> 985 201<655 1022>
AnchorPoint: "Anchor-4" 506 0 basechar 0
AnchorPoint: "Anchor-3" 764 1366 basechar 0
LayerCount: 2
Fore
SplineSet
649 1446 m 1
 606 1491 l 1
 758 1739 l 2
 783 1780 809 1792 840 1792 c 0
 883 1792 913 1765 913 1722 c 0
 913 1693 903 1669 872 1642 c 2
 649 1446 l 1
862 1446 m 1
 817 1497 l 1
 1026 1726 l 2
 1046 1749 1067 1759 1094 1759 c 0
 1131 1759 1169 1735 1169 1688 c 0
 1169 1659 1155 1633 1118 1610 c 2
 862 1446 l 1
500 -14 m 0
 213 -14 70 172 70 504 c 0
 70 936 287 1382 758 1382 c 0
 1047 1382 1186 1198 1186 866 c 0
 1186 432 971 -14 500 -14 c 0
530 82 m 0
 792 82 985 418 985 893 c 0
 985 1151 889 1284 725 1284 c 0
 461 1284 272 940 272 469 c 0
 272 211 366 82 530 82 c 0
EndSplineSet
EndChar

StartChar: Omacron
Encoding: 332 332 119
Width: 1189
GlyphClass: 2
Flags: HMW
HStem: -14 96<449 662 449 735> 1284 98<593 807> 1524 100<502 1004 518 987>
VStem: 70 203<340 705 340 720> 985 201<655 1022>
AnchorPoint: "Anchor-4" 506 0 basechar 0
AnchorPoint: "Anchor-3" 764 1366 basechar 0
LayerCount: 2
Fore
SplineSet
502 1524 m 1
 518 1624 l 1
 1004 1624 l 1
 987 1524 l 1
 502 1524 l 1
500 -14 m 0
 213 -14 70 172 70 504 c 0
 70 936 287 1382 758 1382 c 0
 1047 1382 1186 1198 1186 866 c 0
 1186 432 971 -14 500 -14 c 0
530 82 m 0
 792 82 985 418 985 893 c 0
 985 1151 889 1284 725 1284 c 0
 461 1284 272 940 272 469 c 0
 272 211 366 82 530 82 c 0
EndSplineSet
EndChar

StartChar: Oslash
Encoding: 216 216 120
Width: 1273
GlyphClass: 2
Flags: HMW
HStem: -14 96<489 662 489 735> -8 43G<82 82> 1284 98<593 780>
VStem: 70 203<429 705 429 720> 985 201<655 910>
AnchorPoint: "Anchor-4" 561 0 basechar 0
AnchorPoint: "Anchor-3" 819 1366 basechar 0
LayerCount: 2
Fore
SplineSet
1268 1354 m 1xb8
 1126 1176 l 1
 1165 1094 1186 991 1186 866 c 0
 1186 432 971 -14 500 -14 c 0
 398 -14 312 10 246 57 c 1
 158 -55 l 1
 139 -57 l 1xb8
 116 -47 96 -31 82 -8 c 1
 180 117 l 1x78
 106 205 70 336 70 504 c 0
 70 936 287 1382 758 1382 c 0
 899 1382 1005 1337 1075 1253 c 1
 1192 1401 l 1
 1212 1403 l 1
 1235 1393 1254 1374 1268 1354 c 1xb8
272 469 m 0
 272 389 281 321 299 266 c 1
 956 1102 l 1
 917 1223 836 1284 725 1284 c 0
 461 1284 272 940 272 469 c 0
985 893 m 0
 985 928 983 958 981 989 c 1
 340 178 l 1
 385 115 448 82 530 82 c 0
 792 82 985 418 985 893 c 0
EndSplineSet
EndChar

StartChar: Oslashacute
Encoding: 510 510 121
Width: 1273
GlyphClass: 2
Flags: HMW
HStem: -14 96<489 662 489 735> -8 43G<82 82> 1284 98<593 780>
VStem: 70 203<429 705 429 720> 985 201<655 910>
AnchorPoint: "Anchor-4" 561 0 basechar 0
AnchorPoint: "Anchor-3" 819 1366 basechar 0
LayerCount: 2
Fore
SplineSet
1032 1616 m 2xb8
 782 1444 l 1
 737 1495 l 1
 930 1724 l 2
 953 1753 977 1765 1006 1765 c 0
 1045 1765 1079 1737 1079 1696 c 0
 1079 1665 1069 1643 1032 1616 c 2xb8
1268 1354 m 1
 1126 1176 l 1
 1165 1094 1186 991 1186 866 c 0
 1186 432 971 -14 500 -14 c 0
 398 -14 312 10 246 57 c 1
 158 -55 l 1
 139 -57 l 1xb8
 116 -47 96 -31 82 -8 c 1
 180 117 l 1x78
 106 205 70 336 70 504 c 0
 70 936 287 1382 758 1382 c 0
 899 1382 1005 1337 1075 1253 c 1
 1192 1401 l 1
 1212 1403 l 1
 1235 1393 1254 1374 1268 1354 c 1
272 469 m 0
 272 389 281 321 299 266 c 1
 956 1102 l 1
 917 1223 836 1284 725 1284 c 0
 461 1284 272 940 272 469 c 0
985 893 m 0
 985 928 983 958 981 989 c 1
 340 178 l 1
 385 115 448 82 530 82 c 0
 792 82 985 418 985 893 c 0
EndSplineSet
EndChar

StartChar: Otilde
Encoding: 213 213 122
Width: 1189
GlyphClass: 2
Flags: HMW
HStem: -14 96<449 662 449 735> 1284 98<593 807> 1501 125<873 939 873 944> 1575 125<650 716>
VStem: 70 203<340 705 340 720> 985 201<655 1022>
AnchorPoint: "Anchor-4" 506 0 basechar 0
AnchorPoint: "Anchor-3" 764 1366 basechar 0
LayerCount: 2
Fore
SplineSet
537 1499 m 1xdc
 508 1507 491 1524 477 1540 c 1
 508 1593 594 1700 700 1700 c 0xdc
 786 1700 835 1626 911 1626 c 0
 966 1626 1012 1667 1055 1706 c 1
 1084 1696 1100 1681 1116 1665 c 1
 1083 1612 993 1501 895 1501 c 0xec
 801 1501 756 1575 676 1575 c 0
 625 1575 580 1538 537 1499 c 1xdc
500 -14 m 0xec
 213 -14 70 172 70 504 c 0
 70 936 287 1382 758 1382 c 0
 1047 1382 1186 1198 1186 866 c 0
 1186 432 971 -14 500 -14 c 0xec
530 82 m 0
 792 82 985 418 985 893 c 0
 985 1151 889 1284 725 1284 c 0
 461 1284 272 940 272 469 c 0
 272 211 366 82 530 82 c 0
EndSplineSet
EndChar

StartChar: OE
Encoding: 338 338 123
Width: 1835
GlyphClass: 2
Flags: HMW
HStem: -14 96<449 570> 0 82<449 1618 449 682> 0 117<1087 1485 1087 1618> 643 105 1047 319<1723 1739> 1257 109<1270 1647 1270 1270> 1284 82<640 1819> 1284 98<640 793 537 863>
VStem: 96 203<327 696 327 708> 1012 176<743 743 743 1032> 1479 63<489 489> 1698 105
AnchorPoint: "Anchor-3" 1081 1366 basechar 0
LayerCount: 2
Fore
SplineSet
547 -14 m 0x9480
 230 -14 96 157 96 479 c 0
 96 936 309 1382 764 1382 c 0x3180
 821 1382 873 1376 918 1366 c 1
 1819 1366 l 1x3490
 1788 1057 l 1
 1770 1051 1749 1047 1729 1047 c 0
 1719 1047 1708 1049 1698 1051 c 1x3890
 1696 1114 1688 1194 1647 1257 c 1
 1270 1257 l 1
 1188 743 l 1
 1407 754 l 2
 1479 760 1522 844 1540 889 c 1
 1606 889 l 1
 1542 489 l 1
 1479 489 l 1
 1471 536 1472 635 1384 639 c 2
 1171 647 l 1
 1087 117 l 1
 1485 117 l 1
 1548 189 1583 278 1608 346 c 1
 1620 348 1635 350 1649 350 c 0
 1661 350 1676 348 1692 346 c 1
 1618 0 l 1
 682 0 l 1x34f0
 639 -8 594 -14 547 -14 c 0x9480
532 82 m 0x52c0
 804 82 1012 411 1012 913 c 0
 1012 1151 948 1284 778 1284 c 0
 502 1284 299 950 299 442 c 0
 299 211 364 82 532 82 c 0x52c0
EndSplineSet
EndChar

StartChar: Racute
Encoding: 340 340 124
Width: 1175
GlyphClass: 2
Flags: HMW
HStem: 0 76<6 16 16 16 16 547> 627 94<467 489 451 500> 1280 86<630 694 694 761> 1290 76<193 694>
VStem: 922 186<963 1138>
AnchorPoint: "Anchor-4" 678 0 basechar 0
AnchorPoint: "Anchor-3" 729 1366 basechar 0
LayerCount: 2
Fore
SplineSet
692 1444 m 1xe8
 647 1495 l 1
 840 1724 l 2
 863 1753 886 1765 915 1765 c 0
 954 1765 989 1737 989 1696 c 0
 989 1665 979 1643 942 1616 c 2
 692 1444 l 1xe8
6 0 m 1
 16 76 l 1
 82 84 136 94 193 129 c 1
 369 1237 l 1
 318 1268 261 1282 193 1290 c 1xd8
 203 1366 l 1
 694 1366 l 2
 966 1366 1108 1268 1108 1071 c 0
 1108 854 989 714 782 659 c 1
 833 628 864 573 889 483 c 2
 975 178 l 2
 991 119 1032 96 1151 78 c 1
 1128 0 l 1
 942 0 l 2
 854 0 814 27 791 125 c 2
 715 449 l 2
 676 613 659 627 489 627 c 2
 451 627 l 1
 373 127 l 1
 428 96 491 84 557 76 c 1
 547 0 l 1
 6 0 l 1
467 721 m 1
 500 721 l 2
 715 721 922 803 922 1067 c 0
 922 1208 842 1280 680 1280 c 0
 580 1280 557 1269 545 1212 c 2xe8
 467 721 l 1
EndSplineSet
EndChar

StartChar: Rcaron
Encoding: 344 344 125
Width: 1175
GlyphClass: 2
Flags: HMW
HStem: 0 76<6 16 16 16 16 547> 627 94<467 489 451 500> 1280 86<630 694 694 761> 1290 76<193 694>
VStem: 922 186<963 1138>
AnchorPoint: "Anchor-4" 678 0 basechar 0
AnchorPoint: "Anchor-3" 729 1366 basechar 0
LayerCount: 2
Fore
SplineSet
737 1456 m 0xe8
 712 1456 692 1468 672 1497 c 2
 524 1706 l 1
 578 1757 l 1
 754 1604 l 1
 985 1757 l 1
 1030 1706 l 1
 815 1497 l 2
 784 1468 762 1456 737 1456 c 0xe8
6 0 m 1
 16 76 l 1
 82 84 136 94 193 129 c 1
 369 1237 l 1
 318 1268 261 1282 193 1290 c 1xd8
 203 1366 l 1
 694 1366 l 2
 966 1366 1108 1268 1108 1071 c 0
 1108 854 989 714 782 659 c 1
 833 628 864 573 889 483 c 2
 975 178 l 2
 991 119 1032 96 1151 78 c 1
 1128 0 l 1
 942 0 l 2
 854 0 814 27 791 125 c 2
 715 449 l 2
 676 613 659 627 489 627 c 2
 451 627 l 1
 373 127 l 1
 428 96 491 84 557 76 c 1
 547 0 l 1
 6 0 l 1
467 721 m 1
 500 721 l 2
 715 721 922 803 922 1067 c 0
 922 1208 842 1280 680 1280 c 0
 580 1280 557 1269 545 1212 c 2xe8
 467 721 l 1
EndSplineSet
EndChar

StartChar: uni0156
Encoding: 342 342 126
Width: 1175
GlyphClass: 2
Flags: HMW
HStem: -432 43G<594 594> 0 76<6 16 16 16 16 547> 627 94<467 489 451 500> 1280 86<630 694 694 761> 1290 76<193 694>
VStem: 594 152<-195 -180> 922 186<963 1138>
AnchorPoint: "Anchor-4" 678 0 basechar 0
AnchorPoint: "Anchor-3" 729 1366 basechar 0
LayerCount: 2
Fore
SplineSet
6 0 m 1xf2
 16 76 l 1
 82 84 136 94 193 129 c 1
 369 1237 l 1
 318 1268 261 1282 193 1290 c 1xea
 203 1366 l 1
 694 1366 l 2
 966 1366 1108 1268 1108 1071 c 0
 1108 854 989 714 782 659 c 1
 833 628 864 573 889 483 c 2
 975 178 l 2
 991 119 1032 96 1151 78 c 1
 1128 0 l 1
 942 0 l 2
 854 0 814 27 791 125 c 2
 715 449 l 2
 676 613 659 627 489 627 c 2
 451 627 l 1
 373 127 l 1
 428 96 491 84 557 76 c 1
 547 0 l 1
 6 0 l 1xf2
467 721 m 1
 500 721 l 2
 715 721 922 803 922 1067 c 0
 922 1208 842 1280 680 1280 c 0
 580 1280 557 1269 545 1212 c 2xf6
 467 721 l 1
594 -432 m 1
 524 -406 l 1
 575 -314 594 -240 594 -197 c 0
 594 -164 584 -141 561 -121 c 1
 588 -88 624 -76 651 -76 c 0
 710 -76 745 -109 745 -158 c 0
 745 -232 670 -344 594 -432 c 1
EndSplineSet
EndChar

StartChar: Sacute
Encoding: 346 346 127
Width: 847
GlyphClass: 2
Flags: HMW
HStem: -14 109<334 420> 1278 104<512 573>
VStem: 172 180<1013 1116> 596 186<240 359> 725 195<1151 1194>
AnchorPoint: "Anchor-5" 332 0 basechar 0
AnchorPoint: "Anchor-4" 360 0 basechar 0
AnchorPoint: "Anchor-3" 610 1366 basechar 0
LayerCount: 2
Fore
SplineSet
573 1444 m 1xf0
 528 1495 l 1
 721 1724 l 2
 744 1753 768 1765 797 1765 c 0
 836 1765 870 1737 870 1696 c 0
 870 1665 860 1643 823 1616 c 2
 573 1444 l 1xf0
330 -14 m 0
 183 -14 76 31 -20 90 c 1
 70 426 l 1
 164 412 l 1
 156 365 152 315 152 270 c 0
 152 233 156 197 162 170 c 1
 207 125 293 94 375 94 c 0
 498 94 596 178 596 301 c 0xf0
 596 418 477 526 373 635 c 0
 267 744 172 850 172 989 c 0
 172 1243 399 1382 614 1382 c 0
 811 1382 920 1284 920 1157 c 0
 920 1089 876 1008 788 1008 c 0
 733 1008 692 1036 688 1075 c 1
 713 1104 725 1136 725 1165 c 0xe8
 725 1222 677 1274 573 1278 c 0
 450 1278 352 1190 352 1067 c 0
 352 958 451 862 557 756 c 0
 663 647 782 531 782 373 c 0
 782 74 510 -14 330 -14 c 0
EndSplineSet
EndChar

StartChar: Scaron
Encoding: 352 352 128
Width: 847
GlyphClass: 2
Flags: HMW
HStem: -14 109<334 420> 1278 104<512 573>
VStem: 172 180<1013 1116> 596 186<240 359> 725 195<1151 1194>
AnchorPoint: "Anchor-5" 332 0 basechar 0
AnchorPoint: "Anchor-4" 360 0 basechar 0
AnchorPoint: "Anchor-3" 610 1366 basechar 0
LayerCount: 2
Fore
SplineSet
618 1456 m 0xf0
 593 1456 573 1468 553 1497 c 2
 406 1706 l 1
 459 1757 l 1
 635 1604 l 1
 866 1757 l 1
 911 1706 l 1
 696 1497 l 2
 665 1468 643 1456 618 1456 c 0xf0
330 -14 m 0
 183 -14 76 31 -20 90 c 1
 70 426 l 1
 164 412 l 1
 156 365 152 315 152 270 c 0
 152 233 156 197 162 170 c 1
 207 125 293 94 375 94 c 0
 498 94 596 178 596 301 c 0xf0
 596 418 477 526 373 635 c 0
 267 744 172 850 172 989 c 0
 172 1243 399 1382 614 1382 c 0
 811 1382 920 1284 920 1157 c 0
 920 1089 876 1008 788 1008 c 0
 733 1008 692 1036 688 1075 c 1
 713 1104 725 1136 725 1165 c 0xe8
 725 1222 677 1274 573 1278 c 0
 450 1278 352 1190 352 1067 c 0
 352 958 451 862 557 756 c 0
 663 647 782 531 782 373 c 0
 782 74 510 -14 330 -14 c 0
EndSplineSet
EndChar

StartChar: Scedilla
Encoding: 350 350 129
Width: 847
GlyphClass: 2
Flags: HMW
HStem: -418 68<238 291 238 310> -14 109<313 436> 1278 104<512 573>
VStem: 80 100<-296 -268> 172 180<1013 1116> 367 102<-274 -212> 596 186<240 359> 725 195<1151 1194>
AnchorPoint: "Anchor-5" 332 0 basechar 0
AnchorPoint: "Anchor-4" 360 0 basechar 0
AnchorPoint: "Anchor-3" 610 1366 basechar 0
LayerCount: 2
Fore
SplineSet
614 1382 m 0xe9
 811 1382 920 1284 920 1157 c 0
 920 1089 876 1008 788 1008 c 0
 733 1008 692 1036 688 1075 c 1
 713 1104 725 1136 725 1165 c 0
 725 1222 677 1274 573 1278 c 0
 450 1278 352 1190 352 1067 c 0xe9
 352 958 451 862 557 756 c 0
 663 647 782 531 782 373 c 0
 782 101 557 4 381 -12 c 1
 338 -94 l 1
 418 -110 469 -143 469 -221 c 0
 469 -327 377 -418 244 -418 c 0
 127 -418 80 -358 80 -297 c 0
 80 -240 119 -203 162 -203 c 0
 174 -203 185 -205 199 -211 c 1
 189 -227 180 -247 180 -272 c 0
 180 -319 215 -350 260 -350 c 0
 321 -350 367 -308 367 -242 c 0
 367 -183 317 -164 266 -156 c 1
 236 -115 l 1
 313 -14 l 1
 174 -10 72 33 -20 90 c 1
 70 426 l 1
 164 412 l 1
 156 365 152 315 152 270 c 0
 152 233 156 197 162 170 c 1
 207 125 293 94 375 94 c 0
 498 94 596 178 596 301 c 0xf6
 596 418 477 526 373 635 c 0
 267 744 172 850 172 989 c 0
 172 1243 399 1382 614 1382 c 0xe9
EndSplineSet
EndChar

StartChar: Scircumflex
Encoding: 348 348 130
Width: 847
GlyphClass: 2
Flags: HMW
HStem: -14 109<334 420> 1278 104<512 573>
VStem: 172 180<1013 1116> 596 186<240 359> 725 195<1151 1194>
AnchorPoint: "Anchor-5" 332 0 basechar 0
AnchorPoint: "Anchor-4" 360 0 basechar 0
AnchorPoint: "Anchor-3" 610 1366 basechar 0
LayerCount: 2
Fore
SplineSet
428 1456 m 1xf0
 375 1505 l 1
 594 1716 l 2
 621 1743 643 1757 672 1757 c 0
 695 1757 715 1745 735 1716 c 2
 885 1505 l 1
 831 1456 l 1
 653 1614 l 1
 428 1456 l 1xf0
330 -14 m 0
 183 -14 76 31 -20 90 c 1
 70 426 l 1
 164 412 l 1
 156 365 152 315 152 270 c 0
 152 233 156 197 162 170 c 1
 207 125 293 94 375 94 c 0
 498 94 596 178 596 301 c 0xf0
 596 418 477 526 373 635 c 0
 267 744 172 850 172 989 c 0
 172 1243 399 1382 614 1382 c 0
 811 1382 920 1284 920 1157 c 0
 920 1089 876 1008 788 1008 c 0
 733 1008 692 1036 688 1075 c 1
 713 1104 725 1136 725 1165 c 0xe8
 725 1222 677 1274 573 1278 c 0
 450 1278 352 1190 352 1067 c 0
 352 958 451 862 557 756 c 0
 663 647 782 531 782 373 c 0
 782 74 510 -14 330 -14 c 0
EndSplineSet
EndChar

StartChar: Tbar
Encoding: 358 358 131
Width: 1034
GlyphClass: 2
Flags: HMW
HStem: 0 76<168 168 168 737 156 168> 627 90<272 440 258 455 637 973> 1260 106<523 543 723 723> 1331 41G<121 121 1165 1165>
VStem: 1020 92<1026 1026>
AnchorPoint: "Anchor-4" 446 0 basechar 0
AnchorPoint: "Anchor-3" 647 1366 basechar 0
LayerCount: 2
Fore
SplineSet
618 1366 m 0xe8
 876 1366 1097 1368 1165 1372 c 1xd8
 1112 1026 l 1
 1096 1022 1081 1022 1067 1022 c 0
 1051 1022 1034 1024 1020 1026 c 1
 1028 1102 1018 1188 985 1251 c 1
 928 1255 846 1258 723 1260 c 1
 637 717 l 1
 987 717 l 1
 973 627 l 1
 623 627 l 1
 543 127 l 1
 584 102 666 86 748 76 c 1
 737 0 l 1
 156 0 l 1
 168 76 l 1
 248 82 315 100 360 127 c 1
 440 627 l 1
 258 627 l 1
 272 717 l 1
 455 717 l 1
 543 1260 l 1
 410 1260 323 1257 266 1255 c 1xe8
 207 1179 170 1083 158 1026 c 1
 142 1024 125 1022 109 1022 c 0
 95 1022 80 1022 68 1026 c 1
 121 1372 l 1xd8
 223 1370 428 1366 618 1366 c 0xe8
EndSplineSet
EndChar

StartChar: Tcaron
Encoding: 356 356 132
Width: 1034
GlyphClass: 2
Flags: HMW
HStem: 0 76<156 168 168 168 168 737> 1022 350<101 121> 1260 113
VStem: 1020 92<1026 1026>
AnchorPoint: "Anchor-4" 446 0 basechar 0
AnchorPoint: "Anchor-3" 647 1366 basechar 0
LayerCount: 2
Fore
SplineSet
655 1456 m 0xb0
 630 1456 610 1468 590 1497 c 2
 442 1706 l 1
 496 1757 l 1
 672 1604 l 1
 903 1757 l 1
 948 1706 l 1
 733 1497 l 2
 702 1468 680 1456 655 1456 c 0xb0
156 0 m 1
 168 76 l 1
 248 82 315 100 360 127 c 1
 543 1260 l 1
 410 1260 323 1257 266 1255 c 1xb0
 207 1179 170 1083 158 1026 c 1
 142 1024 125 1022 109 1022 c 0
 95 1022 80 1022 68 1026 c 1xd0
 121 1372 l 1
 223 1370 428 1366 618 1366 c 0
 876 1366 1097 1368 1165 1372 c 1xb0
 1112 1026 l 1
 1096 1022 1081 1022 1067 1022 c 0
 1051 1022 1034 1024 1020 1026 c 1xd0
 1028 1102 1018 1188 985 1251 c 1
 928 1255 846 1258 723 1260 c 1
 543 127 l 1
 584 102 666 86 748 76 c 1
 737 0 l 1
 156 0 l 1
EndSplineSet
EndChar

StartChar: uni021A
Encoding: 538 538 133
Width: 1034
GlyphClass: 2
Flags: HMW
HStem: -432 43G<362 362> 0 76<156 168 168 168 168 737> 1022 350<101 121> 1260 113
VStem: 362 152<-195 -180> 1020 92<1026 1026>
AnchorPoint: "Anchor-4" 446 0 basechar 0
AnchorPoint: "Anchor-3" 647 1366 basechar 0
LayerCount: 2
Fore
SplineSet
156 0 m 1xdc
 168 76 l 1
 248 82 315 100 360 127 c 1
 543 1260 l 1
 410 1260 323 1257 266 1255 c 1xdc
 207 1179 170 1083 158 1026 c 1
 142 1024 125 1022 109 1022 c 0
 95 1022 80 1022 68 1026 c 1xec
 121 1372 l 1
 223 1370 428 1366 618 1366 c 0
 876 1366 1097 1368 1165 1372 c 1xdc
 1112 1026 l 1
 1096 1022 1081 1022 1067 1022 c 0
 1051 1022 1034 1024 1020 1026 c 1xec
 1028 1102 1018 1188 985 1251 c 1
 928 1255 846 1258 723 1260 c 1
 543 127 l 1
 584 102 666 86 748 76 c 1
 737 0 l 1
 156 0 l 1xdc
362 -432 m 1
 293 -406 l 1
 344 -314 362 -240 362 -197 c 0
 362 -164 353 -141 330 -121 c 1
 357 -88 393 -76 420 -76 c 0
 479 -76 514 -109 514 -158 c 0
 514 -232 438 -344 362 -432 c 1
EndSplineSet
EndChar

StartChar: Thorn
Encoding: 222 222 134
Width: 1146
GlyphClass: 1
Flags: HMW
HStem: 0 76<14 25 25 25 25 555> 338 96<485 514 514 632> 1001 86<650 709 709 767> 1290 76<201 741 731 731>
VStem: 920 184<668 864>
LayerCount: 2
Fore
SplineSet
14 0 m 1
 25 76 l 1
 91 84 142 94 199 129 c 1
 377 1237 l 1
 326 1268 269 1282 201 1290 c 1
 211 1366 l 1
 741 1366 l 1
 731 1290 l 1
 665 1282 614 1270 557 1237 c 1
 532 1087 l 1
 709 1087 l 2
 983 1087 1104 981 1104 799 c 0
 1104 437 824 338 500 338 c 0
 471 338 441 340 414 342 c 1
 381 129 l 1
 436 96 499 84 565 76 c 1
 555 0 l 1
 14 0 l 1
428 434 m 1
 514 434 l 2
 750 434 920 541 920 795 c 0
 920 934 837 1001 696 1001 c 0
 604 1001 555 989 516 985 c 1
 428 434 l 1
EndSplineSet
EndChar

StartChar: Uacute
Encoding: 218 218 135
Width: 1275
GlyphClass: 2
Flags: HMW
HStem: -14 106<519 695 519 719> 1290 76<135 678 666 666 1380 1380>
VStem: 170 186<240 344>
AnchorPoint: "Anchor-3" 803 1366 basechar 0
AnchorPoint: "Anchor-2" 713 0 basechar 0
LayerCount: 2
Fore
SplineSet
766 1444 m 1
 721 1495 l 1
 913 1724 l 2
 936 1753 960 1765 989 1765 c 0
 1028 1765 1063 1737 1063 1696 c 0
 1063 1665 1053 1643 1016 1616 c 2
 766 1444 l 1
580 -14 m 0
 297 -14 170 86 170 307 c 0
 170 381 184 455 311 1237 c 1
 262 1268 203 1282 135 1290 c 1
 145 1366 l 1
 678 1366 l 1
 666 1290 l 1
 603 1282 551 1270 496 1239 c 1
 369 455 356 398 356 322 c 0
 356 158 438 92 600 92 c 0
 790 92 915 213 950 434 c 2
 1079 1237 l 1
 1028 1268 971 1282 903 1290 c 1
 913 1366 l 1
 1393 1366 l 1
 1380 1290 l 1
 1317 1282 1265 1270 1210 1239 c 1
 1081 434 l 2
 1036 147 859 -14 580 -14 c 0
EndSplineSet
EndChar

StartChar: Ubreve
Encoding: 364 364 136
Width: 1275
GlyphClass: 2
Flags: HMW
HStem: -14 106<519 695 519 719> 1290 76<135 678 666 666 1380 1380> 1456 111<794 882 794 891>
VStem: 170 186<240 344> 621 82<1665 1681>
AnchorPoint: "Anchor-3" 803 1366 basechar 0
AnchorPoint: "Anchor-2" 713 0 basechar 0
LayerCount: 2
Fore
SplineSet
823 1456 m 0
 698 1456 621 1538 621 1681 c 1
 635 1706 673 1716 702 1712 c 1
 702 1618 750 1567 838 1567 c 0
 926 1567 998 1626 1014 1712 c 1
 1041 1716 1078 1712 1096 1700 c 1
 1067 1553 958 1456 823 1456 c 0
580 -14 m 0
 297 -14 170 86 170 307 c 0
 170 381 184 455 311 1237 c 1
 262 1268 203 1282 135 1290 c 1
 145 1366 l 1
 678 1366 l 1
 666 1290 l 1
 603 1282 551 1270 496 1239 c 1
 369 455 356 398 356 322 c 0
 356 158 438 92 600 92 c 0
 790 92 915 213 950 434 c 2
 1079 1237 l 1
 1028 1268 971 1282 903 1290 c 1
 913 1366 l 1
 1393 1366 l 1
 1380 1290 l 1
 1317 1282 1265 1270 1210 1239 c 1
 1081 434 l 2
 1036 147 859 -14 580 -14 c 0
EndSplineSet
EndChar

StartChar: Ucircumflex
Encoding: 219 219 137
Width: 1275
GlyphClass: 2
Flags: HMW
HStem: -14 106<519 695 519 719> 1290 76<135 678 666 666 1380 1380>
VStem: 170 186<240 344>
AnchorPoint: "Anchor-3" 803 1366 basechar 0
AnchorPoint: "Anchor-2" 713 0 basechar 0
LayerCount: 2
Fore
SplineSet
621 1456 m 1
 567 1505 l 1
 786 1716 l 2
 813 1743 835 1757 864 1757 c 0
 887 1757 908 1745 928 1716 c 2
 1077 1505 l 1
 1024 1456 l 1
 846 1614 l 1
 621 1456 l 1
580 -14 m 0
 297 -14 170 86 170 307 c 0
 170 381 184 455 311 1237 c 1
 262 1268 203 1282 135 1290 c 1
 145 1366 l 1
 678 1366 l 1
 666 1290 l 1
 603 1282 551 1270 496 1239 c 1
 369 455 356 398 356 322 c 0
 356 158 438 92 600 92 c 0
 790 92 915 213 950 434 c 2
 1079 1237 l 1
 1028 1268 971 1282 903 1290 c 1
 913 1366 l 1
 1393 1366 l 1
 1380 1290 l 1
 1317 1282 1265 1270 1210 1239 c 1
 1081 434 l 2
 1036 147 859 -14 580 -14 c 0
EndSplineSet
EndChar

StartChar: Udieresis
Encoding: 220 220 138
Width: 1275
GlyphClass: 2
Flags: HMW
HStem: -14 106<519 695 519 719> 1290 76<135 678 666 666 1380 1380> 1487 215<646 689 988 1031>
VStem: 170 186<240 344> 569 197<1578 1611> 911 197<1578 1611>
AnchorPoint: "Anchor-3" 803 1366 basechar 0
AnchorPoint: "Anchor-2" 713 0 basechar 0
LayerCount: 2
Fore
SplineSet
655 1487 m 0
 600 1487 569 1518 569 1569 c 0
 569 1653 612 1702 680 1702 c 0
 735 1702 766 1669 766 1620 c 0
 766 1536 723 1487 655 1487 c 0
997 1487 m 0
 942 1487 911 1518 911 1569 c 0
 911 1653 954 1702 1022 1702 c 0
 1077 1702 1108 1669 1108 1620 c 0
 1108 1536 1065 1487 997 1487 c 0
580 -14 m 0
 297 -14 170 86 170 307 c 0
 170 381 184 455 311 1237 c 1
 262 1268 203 1282 135 1290 c 1
 145 1366 l 1
 678 1366 l 1
 666 1290 l 1
 603 1282 551 1270 496 1239 c 1
 369 455 356 398 356 322 c 0
 356 158 438 92 600 92 c 0
 790 92 915 213 950 434 c 2
 1079 1237 l 1
 1028 1268 971 1282 903 1290 c 1
 913 1366 l 1
 1393 1366 l 1
 1380 1290 l 1
 1317 1282 1265 1270 1210 1239 c 1
 1081 434 l 2
 1036 147 859 -14 580 -14 c 0
EndSplineSet
EndChar

StartChar: Ugrave
Encoding: 217 217 139
Width: 1275
GlyphClass: 2
Flags: HMW
HStem: -14 106<519 695 519 719> 1290 76<135 678 666 666 1380 1380>
VStem: 170 186<240 344>
AnchorPoint: "Anchor-3" 803 1366 basechar 0
AnchorPoint: "Anchor-2" 713 0 basechar 0
LayerCount: 2
Fore
SplineSet
897 1444 m 1
 647 1616 l 2
 614 1639 600 1663 600 1694 c 0
 600 1737 635 1765 674 1765 c 0
 701 1765 723 1758 748 1729 c 2
 942 1495 l 1
 897 1444 l 1
580 -14 m 0
 297 -14 170 86 170 307 c 0
 170 381 184 455 311 1237 c 1
 262 1268 203 1282 135 1290 c 1
 145 1366 l 1
 678 1366 l 1
 666 1290 l 1
 603 1282 551 1270 496 1239 c 1
 369 455 356 398 356 322 c 0
 356 158 438 92 600 92 c 0
 790 92 915 213 950 434 c 2
 1079 1237 l 1
 1028 1268 971 1282 903 1290 c 1
 913 1366 l 1
 1393 1366 l 1
 1380 1290 l 1
 1317 1282 1265 1270 1210 1239 c 1
 1081 434 l 2
 1036 147 859 -14 580 -14 c 0
EndSplineSet
EndChar

StartChar: Uhungarumlaut
Encoding: 368 368 140
Width: 1275
GlyphClass: 2
Flags: HMW
HStem: -14 106<519 695 519 719> 1290 76<135 678 666 666 1380 1380>
VStem: 170 186<240 344>
AnchorPoint: "Anchor-3" 803 1366 basechar 0
AnchorPoint: "Anchor-2" 713 0 basechar 0
LayerCount: 2
Fore
SplineSet
688 1446 m 1
 645 1491 l 1
 797 1739 l 2
 822 1780 848 1792 879 1792 c 0
 922 1792 952 1765 952 1722 c 0
 952 1693 942 1669 911 1642 c 2
 688 1446 l 1
901 1446 m 1
 856 1497 l 1
 1065 1726 l 2
 1085 1749 1106 1759 1133 1759 c 0
 1170 1759 1208 1735 1208 1688 c 0
 1208 1659 1194 1633 1157 1610 c 2
 901 1446 l 1
580 -14 m 0
 297 -14 170 86 170 307 c 0
 170 381 184 455 311 1237 c 1
 262 1268 203 1282 135 1290 c 1
 145 1366 l 1
 678 1366 l 1
 666 1290 l 1
 603 1282 551 1270 496 1239 c 1
 369 455 356 398 356 322 c 0
 356 158 438 92 600 92 c 0
 790 92 915 213 950 434 c 2
 1079 1237 l 1
 1028 1268 971 1282 903 1290 c 1
 913 1366 l 1
 1393 1366 l 1
 1380 1290 l 1
 1317 1282 1265 1270 1210 1239 c 1
 1081 434 l 2
 1036 147 859 -14 580 -14 c 0
EndSplineSet
EndChar

StartChar: Umacron
Encoding: 362 362 141
Width: 1275
GlyphClass: 2
Flags: HMW
HStem: -14 106<519 695 519 719> 1290 76<135 678 666 666 1380 1380> 1524 100<541 1042 557 1026>
VStem: 170 186<240 344>
AnchorPoint: "Anchor-3" 803 1366 basechar 0
AnchorPoint: "Anchor-2" 713 0 basechar 0
LayerCount: 2
Fore
SplineSet
541 1524 m 1
 557 1624 l 1
 1042 1624 l 1
 1026 1524 l 1
 541 1524 l 1
580 -14 m 0
 297 -14 170 86 170 307 c 0
 170 381 184 455 311 1237 c 1
 262 1268 203 1282 135 1290 c 1
 145 1366 l 1
 678 1366 l 1
 666 1290 l 1
 603 1282 551 1270 496 1239 c 1
 369 455 356 398 356 322 c 0
 356 158 438 92 600 92 c 0
 790 92 915 213 950 434 c 2
 1079 1237 l 1
 1028 1268 971 1282 903 1290 c 1
 913 1366 l 1
 1393 1366 l 1
 1380 1290 l 1
 1317 1282 1265 1270 1210 1239 c 1
 1081 434 l 2
 1036 147 859 -14 580 -14 c 0
EndSplineSet
EndChar

StartChar: Uogonek
Encoding: 370 370 142
Width: 1275
GlyphClass: 2
Flags: HMW
HStem: -418 100<455 562> -12 104 1290 76<135 678 666 666 1380 1380>
VStem: 170 186<240 344> 352 127<-269 -250>
AnchorPoint: "Anchor-3" 803 1366 basechar 0
AnchorPoint: "Anchor-2" 713 0 basechar 0
LayerCount: 2
Fore
SplineSet
913 1366 m 1xf0
 1393 1366 l 1
 1380 1290 l 1
 1317 1282 1265 1270 1210 1239 c 1
 1081 434 l 2
 1042 186 903 31 686 -6 c 0
 637 -22 582 -67 549 -104 c 0
 510 -147 479 -201 479 -246 c 0
 479 -293 506 -317 545 -317 c 0
 580 -317 610 -302 647 -279 c 1
 678 -340 l 1
 625 -389 553 -418 496 -418 c 0
 414 -418 352 -369 352 -291 c 0
 352 -209 412 -143 451 -100 c 0xe8
 478 -71 504 -43 524 -12 c 1
 280 0 170 100 170 307 c 0
 170 381 184 455 311 1237 c 1
 262 1268 203 1282 135 1290 c 1
 145 1366 l 1
 678 1366 l 1
 666 1290 l 1
 603 1282 551 1270 496 1239 c 1
 369 455 356 398 356 322 c 0
 356 158 438 92 600 92 c 0
 790 92 915 213 950 434 c 2
 1079 1237 l 1
 1028 1268 971 1282 903 1290 c 1
 913 1366 l 1xf0
EndSplineSet
EndChar

StartChar: Uring
Encoding: 366 366 143
Width: 1275
GlyphClass: 2
Flags: HMW
HStem: -14 106<519 695 519 719> 1290 76<135 678 666 666 1380 1380> 1440 74<804 852 804 872> 1706 72<829 878>
VStem: 170 186<240 344> 659 94<1567 1626 1567 1634> 928 94<1593 1653>
AnchorPoint: "Anchor-3" 803 1366 basechar 0
AnchorPoint: "Anchor-2" 713 0 basechar 0
LayerCount: 2
Fore
SplineSet
813 1440 m 0
 725 1440 659 1493 659 1583 c 0
 659 1685 751 1778 868 1778 c 0
 956 1778 1022 1724 1022 1634 c 0
 1022 1532 932 1440 813 1440 c 0
825 1513 m 0
 878 1513 928 1558 928 1628 c 0
 928 1677 899 1706 856 1706 c 0
 803 1706 754 1661 754 1591 c 0
 754 1542 782 1513 825 1513 c 0
580 -14 m 0
 297 -14 170 86 170 307 c 0
 170 381 184 455 311 1237 c 1
 262 1268 203 1282 135 1290 c 1
 145 1366 l 1
 678 1366 l 1
 666 1290 l 1
 603 1282 551 1270 496 1239 c 1
 369 455 356 398 356 322 c 0
 356 158 438 92 600 92 c 0
 790 92 915 213 950 434 c 2
 1079 1237 l 1
 1028 1268 971 1282 903 1290 c 1
 913 1366 l 1
 1393 1366 l 1
 1380 1290 l 1
 1317 1282 1265 1270 1210 1239 c 1
 1081 434 l 2
 1036 147 859 -14 580 -14 c 0
EndSplineSet
EndChar

StartChar: Utilde
Encoding: 360 360 144
Width: 1275
GlyphClass: 2
Flags: HMW
HStem: -14 106<519 695 519 719> 1290 76<135 678 666 666 1380 1380> 1501 125<912 978 912 983> 1575 125<689 755>
VStem: 170 186<240 344>
AnchorPoint: "Anchor-3" 803 1366 basechar 0
AnchorPoint: "Anchor-2" 713 0 basechar 0
LayerCount: 2
Fore
SplineSet
575 1499 m 1xd8
 546 1507 530 1524 516 1540 c 1
 547 1593 633 1700 739 1700 c 0xd8
 825 1700 874 1626 950 1626 c 0
 1005 1626 1051 1667 1094 1706 c 1
 1123 1696 1139 1681 1155 1665 c 1
 1122 1612 1032 1501 934 1501 c 0xe8
 840 1501 795 1575 715 1575 c 0
 664 1575 618 1538 575 1499 c 1xd8
580 -14 m 0xe8
 297 -14 170 86 170 307 c 0
 170 381 184 455 311 1237 c 1
 262 1268 203 1282 135 1290 c 1
 145 1366 l 1
 678 1366 l 1
 666 1290 l 1
 603 1282 551 1270 496 1239 c 1
 369 455 356 398 356 322 c 0
 356 158 438 92 600 92 c 0
 790 92 915 213 950 434 c 2
 1079 1237 l 1
 1028 1268 971 1282 903 1290 c 1
 913 1366 l 1
 1393 1366 l 1
 1380 1290 l 1
 1317 1282 1265 1270 1210 1239 c 1
 1081 434 l 2
 1036 147 859 -14 580 -14 c 0xe8
EndSplineSet
EndChar

StartChar: Wacute
Encoding: 7810 7810 145
Width: 1734
GlyphClass: 2
Flags: HMW
HStem: -14 43G<435 453 1122 1141> 1290 76<96 616 606 606 1870 1870>
VStem: 96 1784<1290 1366>
AnchorPoint: "Anchor-3" 1038 1366 basechar 0
LayerCount: 2
Fore
SplineSet
1001 1444 m 1
 956 1495 l 1
 1149 1724 l 2
 1172 1753 1196 1765 1225 1765 c 0
 1264 1765 1298 1737 1298 1696 c 0
 1298 1665 1288 1643 1251 1616 c 2
 1001 1444 l 1
453 -14 m 1
 418 -14 373 -14 342 0 c 1
 233 1245 l 1
 192 1265 145 1284 96 1290 c 1
 106 1366 l 1
 616 1366 l 1
 606 1290 l 1
 540 1282 489 1270 426 1237 c 1
 483 307 l 1
 975 1329 l 1
 1010 1341 1051 1346 1098 1346 c 1
 1169 311 l 1
 1595 1237 l 1
 1544 1268 1487 1282 1421 1290 c 1
 1432 1366 l 1
 1880 1366 l 1
 1870 1290 l 1
 1827 1280 1772 1264 1731 1239 c 1
 1141 -14 l 1
 1104 -14 1069 -14 1030 0 c 1
 936 977 l 1
 453 -14 l 1
EndSplineSet
EndChar

StartChar: Wcircumflex
Encoding: 372 372 146
Width: 1734
GlyphClass: 2
Flags: HMW
HStem: -14 43G<435 453 1122 1141> 1290 76<96 616 606 606 1870 1870>
VStem: 96 1784<1290 1366>
AnchorPoint: "Anchor-3" 1038 1366 basechar 0
LayerCount: 2
Fore
SplineSet
856 1456 m 1
 803 1505 l 1
 1022 1716 l 2
 1049 1743 1071 1757 1100 1757 c 0
 1123 1757 1143 1745 1163 1716 c 2
 1313 1505 l 1
 1260 1456 l 1
 1081 1614 l 1
 856 1456 l 1
453 -14 m 1
 418 -14 373 -14 342 0 c 1
 233 1245 l 1
 192 1265 145 1284 96 1290 c 1
 106 1366 l 1
 616 1366 l 1
 606 1290 l 1
 540 1282 489 1270 426 1237 c 1
 483 307 l 1
 975 1329 l 1
 1010 1341 1051 1346 1098 1346 c 1
 1169 311 l 1
 1595 1237 l 1
 1544 1268 1487 1282 1421 1290 c 1
 1432 1366 l 1
 1880 1366 l 1
 1870 1290 l 1
 1827 1280 1772 1264 1731 1239 c 1
 1141 -14 l 1
 1104 -14 1069 -14 1030 0 c 1
 936 977 l 1
 453 -14 l 1
EndSplineSet
EndChar

StartChar: Wdieresis
Encoding: 7812 7812 147
Width: 1734
GlyphClass: 2
Flags: HMW
HStem: -14 43G<435 453 1122 1141> 1290 76<96 616 606 606 1870 1870> 1487 215<882 925 1224 1267>
VStem: 805 197<1578 1611> 1147 197<1578 1611>
AnchorPoint: "Anchor-3" 1038 1366 basechar 0
LayerCount: 2
Fore
SplineSet
891 1487 m 0
 836 1487 805 1518 805 1569 c 0
 805 1653 847 1702 915 1702 c 0
 970 1702 1001 1669 1001 1620 c 0
 1001 1536 959 1487 891 1487 c 0
1233 1487 m 0
 1178 1487 1147 1518 1147 1569 c 0
 1147 1653 1189 1702 1257 1702 c 0
 1312 1702 1343 1669 1343 1620 c 0
 1343 1536 1301 1487 1233 1487 c 0
453 -14 m 1
 418 -14 373 -14 342 0 c 1
 233 1245 l 1
 192 1265 145 1284 96 1290 c 1
 106 1366 l 1
 616 1366 l 1
 606 1290 l 1
 540 1282 489 1270 426 1237 c 1
 483 307 l 1
 975 1329 l 1
 1010 1341 1051 1346 1098 1346 c 1
 1169 311 l 1
 1595 1237 l 1
 1544 1268 1487 1282 1421 1290 c 1
 1432 1366 l 1
 1880 1366 l 1
 1870 1290 l 1
 1827 1280 1772 1264 1731 1239 c 1
 1141 -14 l 1
 1104 -14 1069 -14 1030 0 c 1
 936 977 l 1
 453 -14 l 1
EndSplineSet
EndChar

StartChar: Wgrave
Encoding: 7808 7808 148
Width: 1734
GlyphClass: 2
Flags: HMW
HStem: -14 43G<435 453 1122 1141> 1290 76<96 616 606 606 1870 1870>
VStem: 96 1784<1290 1366>
AnchorPoint: "Anchor-3" 1038 1366 basechar 0
LayerCount: 2
Fore
SplineSet
1133 1444 m 1
 883 1616 l 2
 850 1639 836 1663 836 1694 c 0
 836 1737 870 1765 909 1765 c 0
 936 1765 958 1758 983 1729 c 2
 1178 1495 l 1
 1133 1444 l 1
453 -14 m 1
 418 -14 373 -14 342 0 c 1
 233 1245 l 1
 192 1265 145 1284 96 1290 c 1
 106 1366 l 1
 616 1366 l 1
 606 1290 l 1
 540 1282 489 1270 426 1237 c 1
 483 307 l 1
 975 1329 l 1
 1010 1341 1051 1346 1098 1346 c 1
 1169 311 l 1
 1595 1237 l 1
 1544 1268 1487 1282 1421 1290 c 1
 1432 1366 l 1
 1880 1366 l 1
 1870 1290 l 1
 1827 1280 1772 1264 1731 1239 c 1
 1141 -14 l 1
 1104 -14 1069 -14 1030 0 c 1
 936 977 l 1
 453 -14 l 1
EndSplineSet
EndChar

StartChar: Yacute
Encoding: 221 221 149
Width: 1071
GlyphClass: 2
Flags: HMW
HStem: 0 76<172 182 182 182 182 754> 1290 76<90 598 588 588 1206 1206>
VStem: 90 1126<1290 1366>
AnchorPoint: "Anchor-3" 670 1366 basechar 0
LayerCount: 2
Fore
SplineSet
633 1444 m 1
 588 1495 l 1
 780 1724 l 2
 803 1753 827 1765 856 1765 c 0
 895 1765 930 1737 930 1696 c 0
 930 1665 920 1643 883 1616 c 2
 633 1444 l 1
172 0 m 1
 182 76 l 1
 248 84 320 94 377 129 c 1
 442 557 l 1
 217 1251 l 1
 178 1269 135 1284 90 1290 c 1
 100 1366 l 1
 598 1366 l 1
 588 1290 l 1
 527 1282 477 1272 424 1243 c 1
 584 711 l 1
 903 1237 l 1
 852 1268 792 1282 729 1290 c 1
 739 1366 l 1
 1217 1366 l 1
 1206 1290 l 1
 1143 1282 1093 1272 1040 1241 c 1
 629 584 l 1
 557 129 l 1
 614 96 696 84 762 76 c 1
 754 0 l 1
 172 0 l 1
EndSplineSet
EndChar

StartChar: Ycircumflex
Encoding: 374 374 150
Width: 1071
GlyphClass: 2
Flags: HMW
HStem: 0 76<172 182 182 182 182 754> 1290 76<90 598 588 588 1206 1206>
VStem: 90 1126<1290 1366>
AnchorPoint: "Anchor-3" 670 1366 basechar 0
LayerCount: 2
Fore
SplineSet
487 1456 m 1
 434 1505 l 1
 653 1716 l 2
 680 1743 702 1757 731 1757 c 0
 754 1757 775 1745 795 1716 c 2
 944 1505 l 1
 891 1456 l 1
 713 1614 l 1
 487 1456 l 1
172 0 m 1
 182 76 l 1
 248 84 320 94 377 129 c 1
 442 557 l 1
 217 1251 l 1
 178 1269 135 1284 90 1290 c 1
 100 1366 l 1
 598 1366 l 1
 588 1290 l 1
 527 1282 477 1272 424 1243 c 1
 584 711 l 1
 903 1237 l 1
 852 1268 792 1282 729 1290 c 1
 739 1366 l 1
 1217 1366 l 1
 1206 1290 l 1
 1143 1282 1093 1272 1040 1241 c 1
 629 584 l 1
 557 129 l 1
 614 96 696 84 762 76 c 1
 754 0 l 1
 172 0 l 1
EndSplineSet
EndChar

StartChar: Ydieresis
Encoding: 376 376 151
Width: 1071
GlyphClass: 2
Flags: HMW
HStem: 0 76<172 182 182 182 182 754> 1290 76<90 598 588 588 1206 1206> 1487 215<513 556 855 898>
VStem: 436 197<1578 1611> 778 197<1578 1611>
AnchorPoint: "Anchor-3" 670 1366 basechar 0
LayerCount: 2
Fore
SplineSet
522 1487 m 0
 467 1487 436 1518 436 1569 c 0
 436 1653 479 1702 547 1702 c 0
 602 1702 633 1669 633 1620 c 0
 633 1536 590 1487 522 1487 c 0
864 1487 m 0
 809 1487 778 1518 778 1569 c 0
 778 1653 821 1702 889 1702 c 0
 944 1702 975 1669 975 1620 c 0
 975 1536 932 1487 864 1487 c 0
172 0 m 1
 182 76 l 1
 248 84 320 94 377 129 c 1
 442 557 l 1
 217 1251 l 1
 178 1269 135 1284 90 1290 c 1
 100 1366 l 1
 598 1366 l 1
 588 1290 l 1
 527 1282 477 1272 424 1243 c 1
 584 711 l 1
 903 1237 l 1
 852 1268 792 1282 729 1290 c 1
 739 1366 l 1
 1217 1366 l 1
 1206 1290 l 1
 1143 1282 1093 1272 1040 1241 c 1
 629 584 l 1
 557 129 l 1
 614 96 696 84 762 76 c 1
 754 0 l 1
 172 0 l 1
EndSplineSet
EndChar

StartChar: Ygrave
Encoding: 7922 7922 152
Width: 1071
GlyphClass: 2
Flags: HMW
HStem: 0 76<172 182 182 182 182 754> 1290 76<90 598 588 588 1206 1206>
VStem: 90 1126<1290 1366>
AnchorPoint: "Anchor-3" 670 1366 basechar 0
LayerCount: 2
Fore
SplineSet
764 1444 m 1
 514 1616 l 2
 481 1639 467 1663 467 1694 c 0
 467 1737 502 1765 541 1765 c 0
 568 1765 589 1758 614 1729 c 2
 809 1495 l 1
 764 1444 l 1
172 0 m 1
 182 76 l 1
 248 84 320 94 377 129 c 1
 442 557 l 1
 217 1251 l 1
 178 1269 135 1284 90 1290 c 1
 100 1366 l 1
 598 1366 l 1
 588 1290 l 1
 527 1282 477 1272 424 1243 c 1
 584 711 l 1
 903 1237 l 1
 852 1268 792 1282 729 1290 c 1
 739 1366 l 1
 1217 1366 l 1
 1206 1290 l 1
 1143 1282 1093 1272 1040 1241 c 1
 629 584 l 1
 557 129 l 1
 614 96 696 84 762 76 c 1
 754 0 l 1
 172 0 l 1
EndSplineSet
EndChar

StartChar: uni1EF8
Encoding: 7928 7928 153
Width: 1071
GlyphClass: 2
Flags: HMW
HStem: 0 76<172 182 182 182 182 754> 1290 76<90 598 588 588 1206 1206> 1501 125<779 845 779 850> 1575 125<556 622>
VStem: 90 1126<1290 1366>
AnchorPoint: "Anchor-3" 670 1366 basechar 0
LayerCount: 2
Fore
SplineSet
442 1499 m 1xd8
 413 1507 397 1524 383 1540 c 1
 414 1593 500 1700 606 1700 c 0xd8
 692 1700 741 1626 817 1626 c 0
 872 1626 918 1667 961 1706 c 1
 990 1696 1006 1681 1022 1665 c 1
 989 1612 899 1501 801 1501 c 0xe8
 707 1501 662 1575 582 1575 c 0
 531 1575 485 1538 442 1499 c 1xd8
172 0 m 1xe8
 182 76 l 1
 248 84 320 94 377 129 c 1
 442 557 l 1
 217 1251 l 1
 178 1269 135 1284 90 1290 c 1
 100 1366 l 1
 598 1366 l 1
 588 1290 l 1
 527 1282 477 1272 424 1243 c 1
 584 711 l 1
 903 1237 l 1
 852 1268 792 1282 729 1290 c 1
 739 1366 l 1
 1217 1366 l 1
 1206 1290 l 1
 1143 1282 1093 1272 1040 1241 c 1
 629 584 l 1
 557 129 l 1
 614 96 696 84 762 76 c 1
 754 0 l 1
 172 0 l 1xe8
EndSplineSet
EndChar

StartChar: Zacute
Encoding: 377 377 154
Width: 989
GlyphClass: 2
Flags: HMW
HStem: -6 115 1239 135 1290 84
VStem: 10 1057
AnchorPoint: "Anchor-3" 647 1366 basechar 0
LayerCount: 2
Fore
SplineSet
610 1444 m 1xd0
 565 1495 l 1
 758 1724 l 2
 781 1753 805 1765 834 1765 c 0
 873 1765 907 1737 907 1696 c 0
 907 1665 897 1643 860 1616 c 2
 610 1444 l 1xd0
27 -6 m 1
 10 90 l 1
 819 1253 l 1
 692 1251 479 1245 342 1239 c 1
 301 1165 277 1092 254 1022 c 1
 240 1020 223 1018 209 1018 c 0
 197 1018 174 1018 164 1022 c 1
 186 1319 l 1
 236 1374 l 1
 363 1366 489 1366 616 1366 c 0
 761 1366 906 1366 1051 1374 c 1xd0
 1067 1290 l 1xb0
 246 109 l 1
 418 111 577 117 729 127 c 1
 776 197 807 267 842 365 c 1
 856 367 877 369 891 369 c 0
 907 369 928 367 942 365 c 1
 877 55 l 1
 815 -6 l 1
 690 0 555 0 430 0 c 0
 293 0 164 0 27 -6 c 1
EndSplineSet
EndChar

StartChar: Zcaron
Encoding: 381 381 155
Width: 989
GlyphClass: 2
Flags: HMW
HStem: -6 115 1239 135 1290 84
VStem: 10 1057
AnchorPoint: "Anchor-3" 647 1366 basechar 0
LayerCount: 2
Fore
SplineSet
655 1456 m 0xd0
 630 1456 610 1468 590 1497 c 2
 442 1706 l 1
 496 1757 l 1
 672 1604 l 1
 903 1757 l 1
 948 1706 l 1
 733 1497 l 2
 702 1468 680 1456 655 1456 c 0xd0
27 -6 m 1
 10 90 l 1
 819 1253 l 1
 692 1251 479 1245 342 1239 c 1
 301 1165 277 1092 254 1022 c 1
 240 1020 223 1018 209 1018 c 0
 197 1018 174 1018 164 1022 c 1
 186 1319 l 1
 236 1374 l 1
 363 1366 489 1366 616 1366 c 0
 761 1366 906 1366 1051 1374 c 1xd0
 1067 1290 l 1xb0
 246 109 l 1
 418 111 577 117 729 127 c 1
 776 197 807 267 842 365 c 1
 856 367 877 369 891 369 c 0
 907 369 928 367 942 365 c 1
 877 55 l 1
 815 -6 l 1
 690 0 555 0 430 0 c 0
 293 0 164 0 27 -6 c 1
EndSplineSet
EndChar

StartChar: Zdotaccent
Encoding: 379 379 156
Width: 989
GlyphClass: 2
Flags: HMW
HStem: -6 115 1239 135 1290 84 1479 238<665 708>
VStem: 578 217<1579 1614>
AnchorPoint: "Anchor-3" 647 1366 basechar 0
LayerCount: 2
Fore
SplineSet
672 1479 m 0xd8
 615 1479 578 1518 578 1575 c 0
 578 1653 628 1716 700 1716 c 0
 761 1716 795 1675 795 1618 c 0
 795 1540 744 1479 672 1479 c 0xd8
27 -6 m 1
 10 90 l 1
 819 1253 l 1
 692 1251 479 1245 342 1239 c 1
 301 1165 277 1092 254 1022 c 1
 240 1020 223 1018 209 1018 c 0
 197 1018 174 1018 164 1022 c 1
 186 1319 l 1
 236 1374 l 1
 363 1366 489 1366 616 1366 c 0
 761 1366 906 1366 1051 1374 c 1xd8
 1067 1290 l 1xb8
 246 109 l 1
 418 111 577 117 729 127 c 1
 776 197 807 267 842 365 c 1
 856 367 877 369 891 369 c 0
 907 369 928 367 942 365 c 1
 877 55 l 1
 815 -6 l 1
 690 0 555 0 430 0 c 0
 293 0 164 0 27 -6 c 1
EndSplineSet
EndChar

StartChar: aacute
Encoding: 225 225 157
Width: 1054
GlyphClass: 2
Flags: HMW
HStem: -14 106<354 406> 879 98<489 581 409 610> 934 41G<849 892>
VStem: 82 182<247 459 247 511> 627 180<51 172>
AnchorPoint: "Anchor-3" 608 956 basechar 0
AnchorPoint: "Anchor-2" 907 0 basechar 0
LayerCount: 2
Fore
SplineSet
561 1036 m 1xd8
 516 1087 l 1
 709 1317 l 2
 732 1346 755 1358 784 1358 c 0
 823 1358 858 1329 858 1288 c 0
 858 1257 848 1235 811 1208 c 2
 561 1036 l 1xd8
338 -14 m 0
 168 -14 82 92 82 330 c 0
 82 692 271 977 547 977 c 0
 615 977 690 961 770 924 c 1
 790 947 823 975 874 975 c 0xd8
 909 975 938 971 938 971 c 1xb8
 854 459 807 187 807 158 c 0
 807 135 819 127 846 127 c 0
 885 127 938 156 954 166 c 1
 975 100 l 1
 930 61 823 -14 733 -14 c 0
 661 -14 627 18 627 84 c 0
 627 113 633 150 643 201 c 1
 580 107 473 -14 338 -14 c 0
391 92 m 0
 502 92 651 297 702 616 c 2
 737 829 l 1
 684 864 633 879 588 879 c 0
 391 879 264 588 264 330 c 0
 264 164 317 92 391 92 c 0
EndSplineSet
EndChar

StartChar: abreve
Encoding: 259 259 158
Width: 1054
GlyphClass: 2
Flags: HMW
HStem: -14 106<354 406> 879 98<489 581 409 610> 934 41G<849 892> 1071 111<599 687 599 696>
VStem: 82 182<247 459 247 511> 426 82<1280 1296> 627 180<51 172>
AnchorPoint: "Anchor-3" 608 956 basechar 0
AnchorPoint: "Anchor-2" 907 0 basechar 0
LayerCount: 2
Fore
SplineSet
629 1071 m 0xde
 504 1071 426 1153 426 1296 c 1
 440 1321 479 1331 508 1327 c 1
 508 1233 555 1182 643 1182 c 0
 731 1182 803 1241 819 1327 c 1
 846 1331 883 1327 901 1315 c 1
 872 1168 764 1071 629 1071 c 0xde
338 -14 m 0
 168 -14 82 92 82 330 c 0
 82 692 271 977 547 977 c 0
 615 977 690 961 770 924 c 1
 790 947 823 975 874 975 c 0xde
 909 975 938 971 938 971 c 1xbe
 854 459 807 187 807 158 c 0
 807 135 819 127 846 127 c 0
 885 127 938 156 954 166 c 1
 975 100 l 1
 930 61 823 -14 733 -14 c 0
 661 -14 627 18 627 84 c 0
 627 113 633 150 643 201 c 1
 580 107 473 -14 338 -14 c 0
391 92 m 0
 502 92 651 297 702 616 c 2
 737 829 l 1
 684 864 633 879 588 879 c 0
 391 879 264 588 264 330 c 0
 264 164 317 92 391 92 c 0
EndSplineSet
EndChar

StartChar: acircumflex
Encoding: 226 226 159
Width: 1054
GlyphClass: 2
Flags: HMW
HStem: -14 106<354 406> 879 98<489 581 409 610> 934 41G<849 892>
VStem: 82 182<247 459 247 511> 627 180<51 172>
AnchorPoint: "Anchor-3" 608 956 basechar 0
AnchorPoint: "Anchor-2" 907 0 basechar 0
LayerCount: 2
Fore
SplineSet
422 1049 m 1xd8
 369 1098 l 1
 588 1309 l 2
 615 1336 637 1350 666 1350 c 0
 689 1350 709 1338 729 1309 c 2
 879 1098 l 1
 825 1049 l 1
 647 1206 l 1
 422 1049 l 1xd8
338 -14 m 0
 168 -14 82 92 82 330 c 0
 82 692 271 977 547 977 c 0
 615 977 690 961 770 924 c 1
 790 947 823 975 874 975 c 0xd8
 909 975 938 971 938 971 c 1xb8
 854 459 807 187 807 158 c 0
 807 135 819 127 846 127 c 0
 885 127 938 156 954 166 c 1
 975 100 l 1
 930 61 823 -14 733 -14 c 0
 661 -14 627 18 627 84 c 0
 627 113 633 150 643 201 c 1
 580 107 473 -14 338 -14 c 0
391 92 m 0
 502 92 651 297 702 616 c 2
 737 829 l 1
 684 864 633 879 588 879 c 0
 391 879 264 588 264 330 c 0
 264 164 317 92 391 92 c 0
EndSplineSet
EndChar

StartChar: adieresis
Encoding: 228 228 160
Width: 1054
GlyphClass: 2
Flags: HMW
HStem: -14 106<354 406> 879 98<489 581 409 610> 934 41G<849 892> 1094 215<456 499 798 841>
VStem: 82 182<247 459 247 511> 379 197<1185 1218> 627 180<51 172> 721 197<1185 1218>
AnchorPoint: "Anchor-3" 608 956 basechar 0
AnchorPoint: "Anchor-2" 907 0 basechar 0
LayerCount: 2
Fore
SplineSet
465 1094 m 0xdd
 410 1094 379 1125 379 1176 c 0
 379 1260 421 1309 489 1309 c 0
 544 1309 575 1276 575 1227 c 0
 575 1143 533 1094 465 1094 c 0xdd
807 1094 m 0
 752 1094 721 1125 721 1176 c 0
 721 1260 763 1309 831 1309 c 0
 886 1309 918 1276 918 1227 c 0
 918 1143 875 1094 807 1094 c 0
338 -14 m 0
 168 -14 82 92 82 330 c 0
 82 692 271 977 547 977 c 0
 615 977 690 961 770 924 c 1
 790 947 823 975 874 975 c 0xdd
 909 975 938 971 938 971 c 1
 854 459 807 187 807 158 c 0
 807 135 819 127 846 127 c 0
 885 127 938 156 954 166 c 1
 975 100 l 1
 930 61 823 -14 733 -14 c 0
 661 -14 627 18 627 84 c 0
 627 113 633 150 643 201 c 1xbe
 580 107 473 -14 338 -14 c 0
391 92 m 0
 502 92 651 297 702 616 c 2
 737 829 l 1
 684 864 633 879 588 879 c 0
 391 879 264 588 264 330 c 0
 264 164 317 92 391 92 c 0
EndSplineSet
EndChar

StartChar: agrave
Encoding: 224 224 161
Width: 1054
GlyphClass: 2
Flags: HMW
HStem: -14 106<354 406> 879 98<489 581 409 610> 934 41G<849 892>
VStem: 82 182<247 459 247 511> 627 180<51 172>
AnchorPoint: "Anchor-3" 608 956 basechar 0
AnchorPoint: "Anchor-2" 907 0 basechar 0
LayerCount: 2
Fore
SplineSet
717 1036 m 1xd8
 467 1208 l 2
 434 1231 420 1255 420 1286 c 0
 420 1329 455 1358 494 1358 c 0
 521 1358 542 1350 567 1321 c 2
 762 1087 l 1
 717 1036 l 1xd8
338 -14 m 0
 168 -14 82 92 82 330 c 0
 82 692 271 977 547 977 c 0
 615 977 690 961 770 924 c 1
 790 947 823 975 874 975 c 0xd8
 909 975 938 971 938 971 c 1xb8
 854 459 807 187 807 158 c 0
 807 135 819 127 846 127 c 0
 885 127 938 156 954 166 c 1
 975 100 l 1
 930 61 823 -14 733 -14 c 0
 661 -14 627 18 627 84 c 0
 627 113 633 150 643 201 c 1
 580 107 473 -14 338 -14 c 0
391 92 m 0
 502 92 651 297 702 616 c 2
 737 829 l 1
 684 864 633 879 588 879 c 0
 391 879 264 588 264 330 c 0
 264 164 317 92 391 92 c 0
EndSplineSet
EndChar

StartChar: amacron
Encoding: 257 257 162
Width: 1054
GlyphClass: 2
Flags: HMW
HStem: -14 106<354 406> 879 98<489 581 409 610> 934 41G<849 892> 1147 100<395 897 412 881>
VStem: 82 182<247 459 247 511> 627 180<51 172>
AnchorPoint: "Anchor-3" 608 956 basechar 0
AnchorPoint: "Anchor-2" 907 0 basechar 0
LayerCount: 2
Fore
SplineSet
395 1147 m 1xdc
 412 1247 l 1
 897 1247 l 1
 881 1147 l 1
 395 1147 l 1xdc
338 -14 m 0
 168 -14 82 92 82 330 c 0
 82 692 271 977 547 977 c 0
 615 977 690 961 770 924 c 1
 790 947 823 975 874 975 c 0xdc
 909 975 938 971 938 971 c 1xbc
 854 459 807 187 807 158 c 0
 807 135 819 127 846 127 c 0
 885 127 938 156 954 166 c 1
 975 100 l 1
 930 61 823 -14 733 -14 c 0
 661 -14 627 18 627 84 c 0
 627 113 633 150 643 201 c 1
 580 107 473 -14 338 -14 c 0
391 92 m 0
 502 92 651 297 702 616 c 2
 737 829 l 1
 684 864 633 879 588 879 c 0
 391 879 264 588 264 330 c 0
 264 164 317 92 391 92 c 0
EndSplineSet
EndChar

StartChar: aogonek
Encoding: 261 261 163
Width: 1054
GlyphClass: 2
Flags: HMW
HStem: -418 98<667 778> -14 106<354 406> 879 98<489 581 409 610> 934 41G<849 892>
VStem: 82 182<247 459 247 511> 567 127<-271 -255> 627 180<51 172>
AnchorPoint: "Anchor-3" 608 956 basechar 0
AnchorPoint: "Anchor-2" 907 0 basechar 0
LayerCount: 2
Fore
SplineSet
764 -319 m 0xec
 793 -319 819 -310 858 -285 c 1
 887 -338 l 1
 834 -391 764 -418 707 -418 c 0
 627 -418 567 -369 567 -291 c 0
 567 -219 610 -153 659 -102 c 0xec
 688 -71 714 -43 737 -14 c 1
 733 -14 l 2
 661 -14 627 18 627 84 c 0
 627 113 633 150 643 201 c 1
 580 107 473 -14 338 -14 c 0
 168 -14 82 92 82 330 c 0
 82 692 271 977 547 977 c 0
 615 977 690 961 770 924 c 1
 790 947 823 975 874 975 c 0xea
 909 975 938 971 938 971 c 1
 854 459 807 187 807 158 c 0
 807 135 819 127 846 127 c 0
 885 127 938 156 954 166 c 1
 975 100 l 1
 959 86 932 65 899 45 c 0xda
 858 8 815 -31 774 -82 c 0
 731 -135 694 -201 694 -248 c 0
 694 -295 721 -319 764 -319 c 0xec
702 616 m 2
 737 829 l 1
 684 864 633 879 588 879 c 0
 391 879 264 588 264 330 c 0
 264 164 317 92 391 92 c 0
 502 92 651 297 702 616 c 2
EndSplineSet
EndChar

StartChar: aring
Encoding: 229 229 164
Width: 1054
GlyphClass: 2
Flags: HMW
HStem: -14 106<354 406> 879 98<489 581 409 610> 934 41G<849 892> 1030 74<609 657 609 678> 1296 72<635 683>
VStem: 82 182<247 459 247 511> 465 94<1157 1217 1157 1225> 627 180<51 172> 733 94<1184 1243>
AnchorPoint: "Anchor-3" 608 956 basechar 0
AnchorPoint: "Anchor-2" 907 0 basechar 0
LayerCount: 2
Fore
SplineSet
618 1030 m 0xde80
 530 1030 465 1084 465 1174 c 0
 465 1276 557 1368 674 1368 c 0
 762 1368 827 1315 827 1225 c 0
 827 1123 737 1030 618 1030 c 0xde80
631 1104 m 0
 684 1104 733 1149 733 1219 c 0
 733 1268 705 1296 662 1296 c 0
 609 1296 559 1252 559 1182 c 0
 559 1133 588 1104 631 1104 c 0
338 -14 m 0
 168 -14 82 92 82 330 c 0
 82 692 271 977 547 977 c 0
 615 977 690 961 770 924 c 1
 790 947 823 975 874 975 c 0xce80
 909 975 938 971 938 971 c 1
 854 459 807 187 807 158 c 0
 807 135 819 127 846 127 c 0
 885 127 938 156 954 166 c 1
 975 100 l 1
 930 61 823 -14 733 -14 c 0
 661 -14 627 18 627 84 c 0
 627 113 633 150 643 201 c 1xaf
 580 107 473 -14 338 -14 c 0
391 92 m 0
 502 92 651 297 702 616 c 2
 737 829 l 1
 684 864 633 879 588 879 c 0xce80
 391 879 264 588 264 330 c 0
 264 164 317 92 391 92 c 0
EndSplineSet
EndChar

StartChar: aringacute
Encoding: 507 507 165
Width: 1054
GlyphClass: 2
Flags: HMW
HStem: -14 106<354 406> 879 98<489 581 409 610> 934 41G<849 892> 1030 74<609 657 609 678> 1296 72<635 683>
VStem: 82 182<247 459 247 511> 465 94<1157 1217 1157 1225> 627 180<51 172> 733 94<1184 1243>
AnchorPoint: "Anchor-3" 608 956 basechar 0
AnchorPoint: "Anchor-2" 907 0 basechar 0
LayerCount: 2
Fore
SplineSet
549 1356 m 1xce80
 514 1409 l 1
 731 1591 l 2
 756 1614 780 1622 807 1616 c 0
 844 1610 870 1579 864 1540 c 0
 860 1511 846 1493 807 1475 c 2
 549 1356 l 1xce80
618 1030 m 0xde80
 530 1030 465 1084 465 1174 c 0
 465 1276 557 1368 674 1368 c 0
 762 1368 827 1315 827 1225 c 0
 827 1123 737 1030 618 1030 c 0xde80
631 1104 m 0
 684 1104 733 1149 733 1219 c 0
 733 1268 705 1296 662 1296 c 0
 609 1296 559 1252 559 1182 c 0
 559 1133 588 1104 631 1104 c 0
338 -14 m 0
 168 -14 82 92 82 330 c 0
 82 692 271 977 547 977 c 0
 615 977 690 961 770 924 c 1
 790 947 823 975 874 975 c 0xce80
 909 975 938 971 938 971 c 1
 854 459 807 187 807 158 c 0
 807 135 819 127 846 127 c 0
 885 127 938 156 954 166 c 1
 975 100 l 1
 930 61 823 -14 733 -14 c 0
 661 -14 627 18 627 84 c 0
 627 113 633 150 643 201 c 1xaf
 580 107 473 -14 338 -14 c 0
391 92 m 0
 502 92 651 297 702 616 c 2
 737 829 l 1
 684 864 633 879 588 879 c 0xce80
 391 879 264 588 264 330 c 0
 264 164 317 92 391 92 c 0
EndSplineSet
EndChar

StartChar: atilde
Encoding: 227 227 166
Width: 1054
GlyphClass: 2
Flags: HMW
HStem: -14 106<354 406> 879 98<489 581 409 610> 934 41G<849 892> 1128 125<720 785 720 791> 1202 125<497 562>
VStem: 82 182<247 459 247 511> 627 180<51 172>
AnchorPoint: "Anchor-3" 608 956 basechar 0
AnchorPoint: "Anchor-2" 907 0 basechar 0
LayerCount: 2
Fore
SplineSet
383 1126 m 1xcc
 354 1134 338 1151 324 1167 c 1
 355 1220 441 1327 547 1327 c 0xcc
 633 1327 682 1253 758 1253 c 0
 813 1253 858 1294 901 1333 c 1
 930 1323 947 1308 963 1292 c 1
 930 1239 839 1128 741 1128 c 0xd4
 647 1128 602 1202 522 1202 c 0
 471 1202 426 1165 383 1126 c 1xcc
338 -14 m 0xb6
 168 -14 82 92 82 330 c 0
 82 692 271 977 547 977 c 0
 615 977 690 961 770 924 c 1
 790 947 823 975 874 975 c 0xd4
 909 975 938 971 938 971 c 1
 854 459 807 187 807 158 c 0
 807 135 819 127 846 127 c 0
 885 127 938 156 954 166 c 1
 975 100 l 1
 930 61 823 -14 733 -14 c 0
 661 -14 627 18 627 84 c 0
 627 113 633 150 643 201 c 1
 580 107 473 -14 338 -14 c 0xb6
391 92 m 0
 502 92 651 297 702 616 c 2
 737 829 l 1
 684 864 633 879 588 879 c 0xd4
 391 879 264 588 264 330 c 0
 264 164 317 92 391 92 c 0
EndSplineSet
EndChar

StartChar: ae
Encoding: 230 230 167
Width: 1452
GlyphClass: 2
Flags: HMW
HStem: -14 106<297 352 937 1038> 430 100<813 838 813 838> 431 99 881 94<1068 1144> 893 82<444 559>
VStem: 37 184<168 263 168 285> 147 184<774 793> 1229 180<696 798>
AnchorPoint: "Anchor-3" 817 956 basechar 0
LayerCount: 2
Fore
SplineSet
279 -14 m 0xcd
 132 -14 37 47 37 190 c 0xcd
 37 378 207 504 473 524 c 2
 643 537 l 1
 653 605 674 713 674 756 c 0
 674 850 621 893 498 893 c 0
 392 893 332 848 332 791 c 0
 332 758 350 733 381 725 c 1
 375 662 311 625 256 625 c 0
 193 625 147 661 147 729 c 0xcb
 147 856 292 975 530 975 c 0
 673 975 774 932 819 854 c 1
 901 932 1007 975 1128 975 c 0
 1314 975 1409 877 1409 758 c 0
 1409 580 1165 430 827 430 c 2
 813 430 l 1
 809 403 809 379 809 352 c 0
 811 172 880 92 993 92 c 0
 1099 92 1217 174 1274 217 c 1
 1333 141 l 1
 1249 73 1124 -14 952 -14 c 0
 805 -14 707 53 666 143 c 1
 539 28 426 -14 279 -14 c 0xcd
838 530 m 2
 1076 530 1229 631 1229 762 c 0
 1229 834 1180 881 1108 881 c 0xd5
 973 881 864 733 827 530 c 1
 838 530 l 2
336 92 m 0
 414 92 500 133 594 209 c 1
 629 438 l 1
 463 424 l 2xad
 307 408 221 320 221 207 c 0
 221 129 258 92 336 92 c 0
EndSplineSet
EndChar

StartChar: aeacute
Encoding: 509 509 168
Width: 1452
GlyphClass: 2
Flags: HMW
HStem: -14 106<297 352 937 1038> 430 100<813 838 813 838> 431 99 881 94<1068 1144> 893 82<444 559>
VStem: 37 184<168 263 168 285> 147 184<774 793> 1229 180<696 798>
AnchorPoint: "Anchor-3" 817 956 basechar 0
LayerCount: 2
Fore
SplineSet
770 1036 m 1xcd
 725 1087 l 1
 918 1317 l 2
 941 1346 964 1358 993 1358 c 0
 1032 1358 1067 1329 1067 1288 c 0
 1067 1257 1057 1235 1020 1208 c 2
 770 1036 l 1xcd
279 -14 m 0
 132 -14 37 47 37 190 c 0xcd
 37 378 207 504 473 524 c 2
 643 537 l 1
 653 605 674 713 674 756 c 0
 674 850 621 893 498 893 c 0
 392 893 332 848 332 791 c 0
 332 758 350 733 381 725 c 1
 375 662 311 625 256 625 c 0
 193 625 147 661 147 729 c 0xcb
 147 856 292 975 530 975 c 0
 673 975 774 932 819 854 c 1
 901 932 1007 975 1128 975 c 0
 1314 975 1409 877 1409 758 c 0
 1409 580 1165 430 827 430 c 2
 813 430 l 1
 809 403 809 379 809 352 c 0
 811 172 880 92 993 92 c 0
 1099 92 1217 174 1274 217 c 1
 1333 141 l 1
 1249 73 1124 -14 952 -14 c 0
 805 -14 707 53 666 143 c 1
 539 28 426 -14 279 -14 c 0
838 530 m 2
 1076 530 1229 631 1229 762 c 0
 1229 834 1180 881 1108 881 c 0xd5
 973 881 864 733 827 530 c 1
 838 530 l 2
336 92 m 0
 414 92 500 133 594 209 c 1
 629 438 l 1
 463 424 l 2xad
 307 408 221 320 221 207 c 0
 221 129 258 92 336 92 c 0
EndSplineSet
EndChar

StartChar: cacute
Encoding: 263 263 169
Width: 888
GlyphClass: 2
Flags: HMW
HStem: -14 106<401 517 401 525> 883 92<484 598>
VStem: 82 182<260 480 260 524> 659 182<776 822>
AnchorPoint: "Anchor-5" 414 0 basechar 0
AnchorPoint: "Anchor-3" 588 1034 basechar 0
LayerCount: 2
Fore
SplineSet
541 1114 m 1
 496 1165 l 1
 688 1395 l 2
 711 1424 735 1436 764 1436 c 0
 803 1436 838 1407 838 1366 c 0
 838 1335 828 1313 791 1286 c 2
 541 1114 l 1
426 -14 m 0
 203 -14 82 98 82 340 c 0
 82 709 274 975 555 975 c 0
 745 975 842 879 842 766 c 0
 842 692 787 618 715 618 c 0
 664 618 629 649 625 692 c 1
 650 727 659 754 659 799 c 0
 659 846 626 883 569 883 c 0
 399 883 264 610 264 350 c 0
 264 170 346 92 457 92 c 0
 578 92 721 205 721 205 c 1
 776 129 l 1
 776 129 625 -14 426 -14 c 0
EndSplineSet
EndChar

StartChar: ccaron
Encoding: 269 269 170
Width: 888
GlyphClass: 2
Flags: HMW
HStem: -14 106<401 517 401 525> 883 92<484 598> 1335 41G<395 395 901 901>
VStem: 82 182<260 480 260 524> 659 182<776 822>
AnchorPoint: "Anchor-5" 414 0 basechar 0
AnchorPoint: "Anchor-3" 588 1034 basechar 0
LayerCount: 2
Fore
SplineSet
608 1126 m 0
 583 1126 563 1138 543 1167 c 2
 395 1376 l 1
 449 1427 l 1
 625 1274 l 1
 856 1427 l 1
 901 1376 l 1
 686 1167 l 2
 655 1138 633 1126 608 1126 c 0
426 -14 m 0
 203 -14 82 98 82 340 c 0
 82 709 274 975 555 975 c 0
 745 975 842 879 842 766 c 0
 842 692 787 618 715 618 c 0
 664 618 629 649 625 692 c 1
 650 727 659 754 659 799 c 0
 659 846 626 883 569 883 c 0
 399 883 264 610 264 350 c 0
 264 170 346 92 457 92 c 0
 578 92 721 205 721 205 c 1
 776 129 l 1
 776 129 625 -14 426 -14 c 0
EndSplineSet
EndChar

StartChar: ccedilla
Encoding: 231 231 171
Width: 888
GlyphClass: 2
Flags: HMW
HStem: -418 68<319 373 319 392> -14 106<395 517> 883 92<484 598>
VStem: 82 182<260 480 260 524> 162 100<-296 -268> 449 102<-274 -212> 659 182<776 822>
AnchorPoint: "Anchor-5" 414 0 basechar 0
AnchorPoint: "Anchor-3" 588 1034 basechar 0
LayerCount: 2
Fore
SplineSet
715 618 m 0xf6
 664 618 629 649 625 692 c 1
 650 727 659 754 659 799 c 0
 659 846 626 883 569 883 c 0
 399 883 264 610 264 350 c 0
 264 170 346 92 457 92 c 0xf6
 578 92 721 205 721 205 c 1
 776 129 l 1
 776 129 643 2 463 -12 c 1
 420 -94 l 1
 500 -110 551 -143 551 -221 c 0
 551 -327 459 -418 326 -418 c 0
 209 -418 162 -358 162 -297 c 0
 162 -240 201 -203 244 -203 c 0
 256 -203 267 -205 281 -211 c 1
 271 -227 262 -247 262 -272 c 0xee
 262 -319 297 -350 342 -350 c 0
 403 -350 449 -308 449 -242 c 0
 449 -183 399 -164 348 -156 c 1
 317 -115 l 1
 395 -14 l 1
 192 -4 82 111 82 340 c 0
 82 709 274 975 555 975 c 0
 745 975 842 879 842 766 c 0
 842 692 787 618 715 618 c 0xf6
EndSplineSet
EndChar

StartChar: ccircumflex
Encoding: 265 265 172
Width: 888
GlyphClass: 2
Flags: HMW
HStem: -14 106<401 517 401 525> 883 92<484 598>
VStem: 82 182<260 480 260 524> 659 182<776 822>
AnchorPoint: "Anchor-5" 414 0 basechar 0
AnchorPoint: "Anchor-3" 588 1034 basechar 0
LayerCount: 2
Fore
SplineSet
401 1126 m 1
 348 1176 l 1
 567 1386 l 2
 594 1413 616 1427 645 1427 c 0
 668 1427 689 1415 709 1386 c 2
 858 1176 l 1
 805 1126 l 1
 627 1284 l 1
 401 1126 l 1
426 -14 m 0
 203 -14 82 98 82 340 c 0
 82 709 274 975 555 975 c 0
 745 975 842 879 842 766 c 0
 842 692 787 618 715 618 c 0
 664 618 629 649 625 692 c 1
 650 727 659 754 659 799 c 0
 659 846 626 883 569 883 c 0
 399 883 264 610 264 350 c 0
 264 170 346 92 457 92 c 0
 578 92 721 205 721 205 c 1
 776 129 l 1
 776 129 625 -14 426 -14 c 0
EndSplineSet
EndChar

StartChar: cdotaccent
Encoding: 267 267 173
Width: 888
GlyphClass: 2
Flags: HMW
HStem: -14 106<401 517 401 525> 883 92<484 598> 1161 238<605 648>
VStem: 82 182<260 480 260 524> 518 217<1262 1296> 659 182<776 822>
AnchorPoint: "Anchor-5" 414 0 basechar 0
AnchorPoint: "Anchor-3" 588 1034 basechar 0
LayerCount: 2
Fore
SplineSet
612 1161 m 0xf8
 555 1161 518 1200 518 1257 c 0
 518 1335 569 1399 641 1399 c 0
 702 1399 735 1357 735 1300 c 0
 735 1222 684 1161 612 1161 c 0xf8
426 -14 m 0
 203 -14 82 98 82 340 c 0
 82 709 274 975 555 975 c 0
 745 975 842 879 842 766 c 0
 842 692 787 618 715 618 c 0
 664 618 629 649 625 692 c 1
 650 727 659 754 659 799 c 0xf4
 659 846 626 883 569 883 c 0
 399 883 264 610 264 350 c 0
 264 170 346 92 457 92 c 0
 578 92 721 205 721 205 c 1
 776 129 l 1
 776 129 625 -14 426 -14 c 0
EndSplineSet
EndChar

StartChar: dcaron
Encoding: 271 271 174
Width: 1157
GlyphClass: 1
Flags: HMW
HStem: -14 106<358 408> 883 92<487 585 410 613> 1317 80<657 657 657 682 645 657> 1317 109 1343 41G<1170 1184>
VStem: 82 182<256 462 256 522> 1133 141<1241 1270>
LayerCount: 2
Fore
SplineSet
342 -14 m 0xcc
 182 -14 82 74 82 342 c 0
 82 702 283 975 537 975 c 0
 633 975 715 952 754 932 c 1
 762 975 801 1198 803 1233 c 0
 807 1286 772 1317 682 1317 c 2
 645 1317 l 1
 657 1397 l 1xe4
 696 1405 801 1425 903 1425 c 0
 932 1425 954 1423 979 1421 c 1
 1004 1376 l 1xd4
 992 1296 807 174 807 156 c 0
 807 138 819 127 846 127 c 0
 887 127 944 160 954 166 c 1
 975 100 l 1
 930 61 823 -14 733 -14 c 0
 661 -14 627 19 627 78 c 0
 627 109 633 148 643 201 c 1
 580 107 473 -14 342 -14 c 0xcc
1126 983 m 1xce
 1053 1014 l 1
 1108 1125 1133 1200 1133 1249 c 0
 1133 1290 1119 1323 1090 1346 c 1
 1119 1379 1157 1384 1184 1384 c 0
 1245 1380 1274 1333 1274 1284 c 0
 1274 1198 1196 1083 1126 983 c 1xce
395 92 m 0
 501 92 651 297 702 616 c 2
 737 831 l 1
 696 858 643 883 584 883 c 0
 391 883 264 573 264 350 c 0
 264 162 321 92 395 92 c 0
EndSplineSet
EndChar

StartChar: dcroat
Encoding: 273 273 175
Width: 1073
GlyphClass: 1
Flags: HMW
HStem: -14 106<358 408> 883 92<487 585 410 613> 1092 90<555 782 541 797 973 1108> 1317 80<657 657 657 682 645 657> 1317 109
VStem: 82 182<256 462 256 522> 803 170<1182 1233>
LayerCount: 2
Fore
SplineSet
1108 1092 m 1xee
 956 1092 l 1
 899 734 807 168 807 156 c 0
 807 138 819 127 846 127 c 0
 887 127 944 160 954 166 c 1
 975 100 l 1
 930 61 823 -14 733 -14 c 0
 661 -14 627 19 627 78 c 0
 627 109 633 148 643 201 c 1
 580 107 473 -14 342 -14 c 0
 182 -14 82 74 82 342 c 0
 82 702 283 975 537 975 c 0
 633 975 715 952 754 932 c 1
 782 1092 l 1
 541 1092 l 1
 555 1182 l 1
 797 1182 l 1
 801 1207 803 1225 803 1233 c 0
 807 1286 772 1317 682 1317 c 2
 645 1317 l 1
 657 1397 l 1xf6
 696 1405 801 1425 903 1425 c 0
 932 1425 954 1423 979 1421 c 1
 1004 1376 l 1
 1002 1358 989 1284 973 1182 c 1
 1122 1182 l 1
 1108 1092 l 1xee
702 616 m 2
 737 831 l 1
 696 858 643 883 584 883 c 0
 391 883 264 573 264 350 c 0
 264 162 321 92 395 92 c 0
 501 92 651 297 702 616 c 2
EndSplineSet
EndChar

StartChar: eacute
Encoding: 233 233 176
Width: 892
GlyphClass: 2
Flags: HMW
HStem: -14 106<395 489> 399 100<276 399 276 439> 881 94<492 608>
VStem: 80 186<262 352 352 399 262 519> 684 180<686 793>
AnchorPoint: "Anchor-3" 575 956 basechar 0
AnchorPoint: "Anchor-2" 674 0 basechar 0
LayerCount: 2
Fore
SplineSet
528 1036 m 1
 483 1087 l 1
 676 1317 l 2
 699 1346 723 1358 752 1358 c 0
 791 1358 825 1329 825 1288 c 0
 825 1257 815 1235 778 1208 c 2
 528 1036 l 1
408 -14 m 0
 162 -14 80 162 80 322 c 0
 80 717 287 975 584 975 c 0
 781 975 864 869 864 758 c 0
 864 559 612 399 266 399 c 1
 266 352 l 2
 266 172 343 92 449 92 c 0
 555 92 672 174 729 217 c 1
 788 141 l 1
 714 67 572 -14 408 -14 c 0
276 500 m 1
 522 500 684 610 684 762 c 0
 684 823 647 881 569 881 c 0
 413 881 309 715 276 500 c 1
EndSplineSet
EndChar

StartChar: ebreve
Encoding: 277 277 177
Width: 892
GlyphClass: 2
Flags: HMW
HStem: -14 106<395 489> 399 100<276 399 276 439> 881 94<492 608> 1071 111<566 654 566 664>
VStem: 80 186<262 352 352 399 262 519> 393 82<1280 1296> 684 180<686 793>
AnchorPoint: "Anchor-3" 575 956 basechar 0
AnchorPoint: "Anchor-2" 674 0 basechar 0
LayerCount: 2
Fore
SplineSet
596 1071 m 0
 471 1071 393 1153 393 1296 c 1
 407 1321 446 1331 475 1327 c 1
 475 1233 522 1182 610 1182 c 0
 698 1182 770 1241 786 1327 c 1
 813 1331 850 1327 868 1315 c 1
 839 1168 731 1071 596 1071 c 0
408 -14 m 0
 162 -14 80 162 80 322 c 0
 80 717 287 975 584 975 c 0
 781 975 864 869 864 758 c 0
 864 559 612 399 266 399 c 1
 266 352 l 2
 266 172 343 92 449 92 c 0
 555 92 672 174 729 217 c 1
 788 141 l 1
 714 67 572 -14 408 -14 c 0
276 500 m 1
 522 500 684 610 684 762 c 0
 684 823 647 881 569 881 c 0
 413 881 309 715 276 500 c 1
EndSplineSet
EndChar

StartChar: ecaron
Encoding: 283 283 178
Width: 892
GlyphClass: 2
Flags: HMW
HStem: -14 106<395 489> 399 100<276 399 276 439> 881 94<492 608>
VStem: 80 186<262 352 352 399 262 519> 684 180<686 793>
AnchorPoint: "Anchor-3" 575 956 basechar 0
AnchorPoint: "Anchor-2" 674 0 basechar 0
LayerCount: 2
Fore
SplineSet
596 1049 m 0
 571 1049 550 1061 530 1090 c 2
 383 1298 l 1
 436 1350 l 1
 612 1196 l 1
 844 1350 l 1
 889 1298 l 1
 674 1090 l 2
 643 1061 621 1049 596 1049 c 0
408 -14 m 0
 162 -14 80 162 80 322 c 0
 80 717 287 975 584 975 c 0
 781 975 864 869 864 758 c 0
 864 559 612 399 266 399 c 1
 266 352 l 2
 266 172 343 92 449 92 c 0
 555 92 672 174 729 217 c 1
 788 141 l 1
 714 67 572 -14 408 -14 c 0
276 500 m 1
 522 500 684 610 684 762 c 0
 684 823 647 881 569 881 c 0
 413 881 309 715 276 500 c 1
EndSplineSet
EndChar

StartChar: ecircumflex
Encoding: 234 234 179
Width: 892
GlyphClass: 2
Flags: HMW
HStem: -14 106<395 489> 399 100<276 399 276 439> 881 94<492 608>
VStem: 80 186<262 352 352 399 262 519> 684 180<686 793>
AnchorPoint: "Anchor-3" 575 956 basechar 0
AnchorPoint: "Anchor-2" 674 0 basechar 0
LayerCount: 2
Fore
SplineSet
389 1049 m 1
 336 1098 l 1
 555 1309 l 2
 582 1336 604 1350 633 1350 c 0
 656 1350 676 1338 696 1309 c 2
 846 1098 l 1
 793 1049 l 1
 614 1206 l 1
 389 1049 l 1
408 -14 m 0
 162 -14 80 162 80 322 c 0
 80 717 287 975 584 975 c 0
 781 975 864 869 864 758 c 0
 864 559 612 399 266 399 c 1
 266 352 l 2
 266 172 343 92 449 92 c 0
 555 92 672 174 729 217 c 1
 788 141 l 1
 714 67 572 -14 408 -14 c 0
276 500 m 1
 522 500 684 610 684 762 c 0
 684 823 647 881 569 881 c 0
 413 881 309 715 276 500 c 1
EndSplineSet
EndChar

StartChar: edieresis
Encoding: 235 235 180
Width: 892
GlyphClass: 2
Flags: HMW
HStem: -14 106<395 489> 399 100<276 399 276 439> 881 94<492 608> 1094 215<423 466 765 808>
VStem: 80 186<262 352 352 399 262 519> 346 197<1185 1218> 684 180<686 793> 688 197<1185 1218>
AnchorPoint: "Anchor-3" 575 956 basechar 0
AnchorPoint: "Anchor-2" 674 0 basechar 0
LayerCount: 2
Fore
SplineSet
432 1094 m 0xfe
 377 1094 346 1125 346 1176 c 0
 346 1260 389 1309 457 1309 c 0
 512 1309 543 1276 543 1227 c 0
 543 1143 500 1094 432 1094 c 0xfe
774 1094 m 0xfd
 719 1094 688 1125 688 1176 c 0
 688 1260 731 1309 799 1309 c 0
 854 1309 885 1276 885 1227 c 0
 885 1143 842 1094 774 1094 c 0xfd
408 -14 m 0
 162 -14 80 162 80 322 c 0
 80 717 287 975 584 975 c 0
 781 975 864 869 864 758 c 0xfe
 864 559 612 399 266 399 c 1
 266 352 l 2
 266 172 343 92 449 92 c 0
 555 92 672 174 729 217 c 1
 788 141 l 1
 714 67 572 -14 408 -14 c 0
276 500 m 1xfe
 522 500 684 610 684 762 c 0
 684 823 647 881 569 881 c 0
 413 881 309 715 276 500 c 1xfe
EndSplineSet
EndChar

StartChar: edotaccent
Encoding: 279 279 181
Width: 892
GlyphClass: 2
Flags: HMW
HStem: -14 106<395 489> 399 100<276 399 276 439> 881 94<492 608> 1083 238<593 636>
VStem: 80 186<262 352 352 399 262 519> 506 217<1184 1219> 684 180<686 793>
AnchorPoint: "Anchor-3" 575 956 basechar 0
AnchorPoint: "Anchor-2" 674 0 basechar 0
LayerCount: 2
Fore
SplineSet
600 1083 m 0xfc
 543 1083 506 1123 506 1180 c 0
 506 1258 557 1321 629 1321 c 0
 690 1321 723 1280 723 1223 c 0
 723 1145 672 1083 600 1083 c 0xfc
408 -14 m 0
 162 -14 80 162 80 322 c 0
 80 717 287 975 584 975 c 0
 781 975 864 869 864 758 c 0xea
 864 559 612 399 266 399 c 1
 266 352 l 2
 266 172 343 92 449 92 c 0
 555 92 672 174 729 217 c 1
 788 141 l 1
 714 67 572 -14 408 -14 c 0
276 500 m 1xea
 522 500 684 610 684 762 c 0
 684 823 647 881 569 881 c 0
 413 881 309 715 276 500 c 1xea
EndSplineSet
EndChar

StartChar: egrave
Encoding: 232 232 182
Width: 892
GlyphClass: 2
Flags: HMW
HStem: -14 106<395 489> 399 100<276 399 276 439> 881 94<492 608>
VStem: 80 186<262 352 352 399 262 519> 684 180<686 793>
AnchorPoint: "Anchor-3" 575 956 basechar 0
AnchorPoint: "Anchor-2" 674 0 basechar 0
LayerCount: 2
Fore
SplineSet
684 1036 m 1
 434 1208 l 2
 401 1231 387 1255 387 1286 c 0
 387 1329 422 1358 461 1358 c 0
 488 1358 510 1350 535 1321 c 2
 729 1087 l 1
 684 1036 l 1
408 -14 m 0
 162 -14 80 162 80 322 c 0
 80 717 287 975 584 975 c 0
 781 975 864 869 864 758 c 0
 864 559 612 399 266 399 c 1
 266 352 l 2
 266 172 343 92 449 92 c 0
 555 92 672 174 729 217 c 1
 788 141 l 1
 714 67 572 -14 408 -14 c 0
276 500 m 1
 522 500 684 610 684 762 c 0
 684 823 647 881 569 881 c 0
 413 881 309 715 276 500 c 1
EndSplineSet
EndChar

StartChar: emacron
Encoding: 275 275 183
Width: 892
GlyphClass: 2
Flags: HMW
HStem: -14 106<395 489> 399 100<276 399 276 439> 881 94<492 608> 1147 100<362 864 379 848>
VStem: 80 186<262 352 352 399 262 519> 684 180<686 793>
AnchorPoint: "Anchor-3" 575 956 basechar 0
AnchorPoint: "Anchor-2" 674 0 basechar 0
LayerCount: 2
Fore
SplineSet
362 1147 m 1
 379 1247 l 1
 864 1247 l 1
 848 1147 l 1
 362 1147 l 1
408 -14 m 0
 162 -14 80 162 80 322 c 0
 80 717 287 975 584 975 c 0
 781 975 864 869 864 758 c 0
 864 559 612 399 266 399 c 1
 266 352 l 2
 266 172 343 92 449 92 c 0
 555 92 672 174 729 217 c 1
 788 141 l 1
 714 67 572 -14 408 -14 c 0
276 500 m 1
 522 500 684 610 684 762 c 0
 684 823 647 881 569 881 c 0
 413 881 309 715 276 500 c 1
EndSplineSet
EndChar

StartChar: eogonek
Encoding: 281 281 184
Width: 892
GlyphClass: 2
Flags: HMW
HStem: -418 98<433 545> -14 106<395 425> 399 100<276 399 276 439> 881 94<492 608>
VStem: 80 186<262 352 352 399 262 519> 334 127<-271 -254> 684 180<686 793>
AnchorPoint: "Anchor-3" 575 956 basechar 0
AnchorPoint: "Anchor-2" 674 0 basechar 0
LayerCount: 2
Fore
SplineSet
729 217 m 1
 788 141 l 1
 763 116 729 91 688 66 c 1
 690 66 l 1
 639 23 590 -19 545 -74 c 0
 498 -133 461 -201 461 -248 c 0
 461 -295 487 -319 530 -319 c 0
 559 -319 586 -310 625 -285 c 1
 653 -338 l 1
 600 -391 530 -418 473 -418 c 0
 393 -418 334 -369 334 -291 c 0
 334 -217 377 -151 428 -94 c 0
 457 -61 487 -33 512 -4 c 1
 477 -10 443 -14 408 -14 c 0
 162 -14 80 162 80 322 c 0
 80 717 287 975 584 975 c 0
 781 975 864 869 864 758 c 0
 864 559 612 399 266 399 c 1
 266 352 l 2
 266 172 343 92 449 92 c 0
 555 92 672 174 729 217 c 1
569 881 m 0
 413 881 309 715 276 500 c 1
 522 500 684 610 684 762 c 0
 684 823 647 881 569 881 c 0
EndSplineSet
EndChar

StartChar: eth
Encoding: 240 240 185
Width: 1042
GlyphClass: 1
Flags: HMW
HStem: -14 94<390 544 390 687> 889 86<517 659 473 663>
VStem: 86 176<234 492 234 542> 799 178<780 836>
LayerCount: 2
Fore
SplineSet
799 1233 m 1
 918 1127 977 987 977 786 c 0
 977 542 927 -14 446 -14 c 0
 202 -14 86 109 86 336 c 0
 86 748 318 975 629 975 c 0
 690 975 739 964 784 944 c 1
 766 1044 723 1119 657 1182 c 1
 362 1071 l 1
 332 1159 l 1
 575 1245 l 1
 526 1276 467 1306 401 1333 c 1
 451 1421 l 1
 555 1382 643 1343 715 1296 c 1
 969 1393 l 1
 999 1305 l 1
 799 1233 l 1
778 569 m 0
 790 647 799 725 799 836 c 1
 760 861 717 889 608 889 c 0
 426 889 262 669 262 313 c 0
 262 155 324 80 457 80 c 0
 631 80 717 198 778 569 c 0
EndSplineSet
EndChar

StartChar: uni1EBD
Encoding: 7869 7869 186
Width: 892
GlyphClass: 2
Flags: HMW
HStem: -14 106<395 489> 399 100<276 399 276 439> 881 94<492 608> 1128 125<687 753 687 758> 1202 125<464 529>
VStem: 80 186<262 352 352 399 262 519> 684 180<686 793>
AnchorPoint: "Anchor-3" 575 956 basechar 0
AnchorPoint: "Anchor-2" 674 0 basechar 0
LayerCount: 2
Fore
SplineSet
350 1126 m 1xee
 321 1134 305 1151 291 1167 c 1
 322 1220 408 1327 514 1327 c 0xee
 600 1327 649 1253 725 1253 c 0
 780 1253 825 1294 868 1333 c 1
 897 1323 914 1308 930 1292 c 1
 897 1239 807 1128 709 1128 c 0xf6
 615 1128 569 1202 489 1202 c 0
 438 1202 393 1165 350 1126 c 1xee
408 -14 m 0xf6
 162 -14 80 162 80 322 c 0
 80 717 287 975 584 975 c 0
 781 975 864 869 864 758 c 0
 864 559 612 399 266 399 c 1
 266 352 l 2
 266 172 343 92 449 92 c 0
 555 92 672 174 729 217 c 1
 788 141 l 1
 714 67 572 -14 408 -14 c 0xf6
276 500 m 1
 522 500 684 610 684 762 c 0
 684 823 647 881 569 881 c 0
 413 881 309 715 276 500 c 1
EndSplineSet
EndChar

StartChar: gbreve
Encoding: 287 287 187
Width: 1009
GlyphClass: 2
Flags: HMW
HStem: -449 94<213 386 213 407> -14 106<347 407> 883 92<487 565 392 612> 1071 111<591 679 591 688>
VStem: -104 209<-267 -225 -267 -187> 82 182<279 462 279 497> 418 82<1280 1296>
AnchorPoint: "Anchor-3" 600 956 basechar 0
LayerCount: 2
Fore
SplineSet
621 1071 m 0xf6
 496 1071 418 1153 418 1296 c 1
 432 1321 471 1331 500 1327 c 1
 500 1233 547 1182 635 1182 c 0
 723 1182 795 1241 811 1327 c 1
 838 1331 875 1327 893 1315 c 1
 864 1168 756 1071 621 1071 c 0xf6
244 -449 m 0xfa
 54 -449 -104 -376 -104 -231 c 0
 -104 -143 -33 -92 35 -92 c 0
 80 -92 121 -115 139 -164 c 1
 116 -182 104 -211 104 -240 c 0
 104 -295 151 -354 274 -354 c 0xfa
 497 -354 580 -170 621 74 c 2
 641 199 l 1
 578 105 471 -14 342 -14 c 0
 133 -14 82 141 82 352 c 0xf6
 82 641 248 975 537 975 c 0
 594 975 672 969 766 926 c 1
 786 951 821 975 872 975 c 0
 897 975 915 973 938 971 c 1
 805 152 l 2
 739 -258 570 -449 244 -449 c 0xfa
395 92 m 0xf6
 506 92 669 328 702 594 c 2
 733 834 l 1
 694 861 641 883 584 883 c 0
 391 883 264 573 264 350 c 0
 264 207 299 92 395 92 c 0xf6
EndSplineSet
EndChar

StartChar: gcircumflex
Encoding: 285 285 188
Width: 1009
GlyphClass: 2
Flags: HMW
HStem: -449 94<213 386 213 407> -14 106<347 407> 883 92<487 565 392 612>
VStem: -104 209<-267 -225 -267 -187> 82 182<279 462 279 497>
AnchorPoint: "Anchor-3" 600 956 basechar 0
LayerCount: 2
Fore
SplineSet
414 1049 m 1xe8
 360 1098 l 1
 580 1309 l 2
 607 1336 628 1350 657 1350 c 0
 680 1350 701 1338 721 1309 c 2
 870 1098 l 1
 817 1049 l 1
 639 1206 l 1
 414 1049 l 1xe8
244 -449 m 0xf0
 54 -449 -104 -376 -104 -231 c 0
 -104 -143 -33 -92 35 -92 c 0
 80 -92 121 -115 139 -164 c 1
 116 -182 104 -211 104 -240 c 0
 104 -295 151 -354 274 -354 c 0xf0
 497 -354 580 -170 621 74 c 2
 641 199 l 1
 578 105 471 -14 342 -14 c 0
 133 -14 82 141 82 352 c 0xe8
 82 641 248 975 537 975 c 0
 594 975 672 969 766 926 c 1
 786 951 821 975 872 975 c 0
 897 975 915 973 938 971 c 1
 805 152 l 2
 739 -258 570 -449 244 -449 c 0xf0
395 92 m 0xe8
 506 92 669 328 702 594 c 2
 733 834 l 1
 694 861 641 883 584 883 c 0
 391 883 264 573 264 350 c 0
 264 207 299 92 395 92 c 0xe8
EndSplineSet
EndChar

StartChar: uni0123
Encoding: 291 291 189
Width: 1009
GlyphClass: 2
Flags: HMW
HStem: -449 94<213 386 213 407> -14 106<347 407> 883 92<487 565 392 612> 1327 41G<752 752>
VStem: -104 209<-267 -225 -267 -187> 82 182<279 462 279 497> 530 152<1143 1157>
AnchorPoint: "Anchor-3" 600 956 basechar 0
LayerCount: 2
Fore
SplineSet
682 1395 m 1xf6
 752 1368 l 1
 701 1276 682 1202 682 1159 c 0
 682 1126 692 1103 715 1083 c 1
 688 1050 652 1038 625 1038 c 0
 566 1038 530 1071 530 1120 c 0
 530 1194 606 1307 682 1395 c 1xf6
244 -449 m 0xfa
 54 -449 -104 -376 -104 -231 c 0
 -104 -143 -33 -92 35 -92 c 0
 80 -92 121 -115 139 -164 c 1
 116 -182 104 -211 104 -240 c 0
 104 -295 151 -354 274 -354 c 0xfa
 497 -354 580 -170 621 74 c 2
 641 199 l 1
 578 105 471 -14 342 -14 c 0
 133 -14 82 141 82 352 c 0xf6
 82 641 248 975 537 975 c 0
 594 975 672 969 766 926 c 1
 786 951 821 975 872 975 c 0
 897 975 915 973 938 971 c 1
 805 152 l 2
 739 -258 570 -449 244 -449 c 0xfa
395 92 m 0xf6
 506 92 669 328 702 594 c 2
 733 834 l 1
 694 861 641 883 584 883 c 0
 391 883 264 573 264 350 c 0
 264 207 299 92 395 92 c 0xf6
EndSplineSet
EndChar

StartChar: gdotaccent
Encoding: 289 289 190
Width: 1009
GlyphClass: 2
Flags: HMW
HStem: -449 94<213 386 213 407> -14 106<347 407> 883 92<487 565 392 612> 1083 238<617 660>
VStem: -104 209<-267 -225 -267 -187> 82 182<279 462 279 497> 530 217<1184 1219>
AnchorPoint: "Anchor-3" 600 956 basechar 0
LayerCount: 2
Fore
SplineSet
625 1083 m 0xf6
 568 1083 530 1123 530 1180 c 0
 530 1258 581 1321 653 1321 c 0
 714 1321 748 1280 748 1223 c 0
 748 1145 697 1083 625 1083 c 0xf6
244 -449 m 0xfa
 54 -449 -104 -376 -104 -231 c 0
 -104 -143 -33 -92 35 -92 c 0
 80 -92 121 -115 139 -164 c 1
 116 -182 104 -211 104 -240 c 0
 104 -295 151 -354 274 -354 c 0xfa
 497 -354 580 -170 621 74 c 2
 641 199 l 1
 578 105 471 -14 342 -14 c 0
 133 -14 82 141 82 352 c 0xf6
 82 641 248 975 537 975 c 0
 594 975 672 969 766 926 c 1
 786 951 821 975 872 975 c 0
 897 975 915 973 938 971 c 1
 805 152 l 2
 739 -258 570 -449 244 -449 c 0xfa
395 92 m 0xf6
 506 92 669 328 702 594 c 2
 733 834 l 1
 694 861 641 883 584 883 c 0
 391 883 264 573 264 350 c 0
 264 207 299 92 395 92 c 0xf6
EndSplineSet
EndChar

StartChar: hbar
Encoding: 295 295 191
Width: 1085
GlyphClass: 2
Flags: HMW
HStem: -14 43G<717 809> -14 141<717 894> 0 43G<84 260 84 84> 862 113<622 672> 1106 90<129 260 115 274 451 682> 1317 80<131 131 131 152 121 131>
VStem: 651 182<62 187> 750 180<715 770>
AnchorPoint: "Anchor-3" 748 1366 basechar 0
LayerCount: 2
Fore
SplineSet
981 166 m 1x5e
 1001 100 l 1
 956 61 850 -14 768 -14 c 0
 666 -14 651 33 651 92 c 0x9e
 651 151 750 653 750 723 c 0
 750 817 702 862 641 862 c 0
 500 862 367 652 322 367 c 2
 260 0 l 1
 84 0 l 1
 260 1106 l 1
 115 1106 l 1
 129 1196 l 1
 274 1196 l 1
 276 1208 279 1223 279 1237 c 0
 279 1290 248 1315 152 1317 c 2
 121 1317 l 1
 131 1397 l 1
 172 1405 295 1425 379 1425 c 0
 406 1425 430 1423 455 1421 c 1
 479 1376 l 1
 451 1196 l 1
 696 1196 l 1
 682 1106 l 1
 434 1106 l 1
 375 735 l 1
 438 846 544 975 698 975 c 0
 845 975 930 895 930 756 c 0x3d
 930 674 834 209 834 166 c 0
 834 139 844 127 877 127 c 0
 912 127 971 160 981 166 c 1x5e
EndSplineSet
EndChar

StartChar: hcircumflex
Encoding: 293 293 192
Width: 1081
GlyphClass: 2
Flags: HMW
HStem: -14 43G<717 809> -14 141<717 894> 0 43G<84 260 84 84> 862 113<622 672> 1317 80<131 131 131 152 121 131>
VStem: 651 182<62 187> 750 180<715 770>
AnchorPoint: "Anchor-3" 748 1366 basechar 0
LayerCount: 2
Fore
SplineSet
561 1458 m 1x3a
 508 1507 l 1
 727 1718 l 2
 754 1745 776 1759 805 1759 c 0
 828 1759 848 1747 868 1718 c 2
 1018 1507 l 1
 965 1458 l 1
 786 1616 l 1
 561 1458 l 1x3a
768 -14 m 0x9c
 666 -14 651 33 651 92 c 0x9c
 651 151 750 653 750 723 c 0
 750 817 702 862 641 862 c 0
 500 862 367 652 322 367 c 2
 260 0 l 1
 84 0 l 1
 272 1180 l 2
 274 1196 279 1214 279 1237 c 0
 279 1290 248 1315 152 1317 c 2
 121 1317 l 1
 131 1397 l 1
 172 1405 295 1425 379 1425 c 0
 406 1425 430 1423 455 1421 c 1
 479 1376 l 1
 375 735 l 1
 438 846 544 975 698 975 c 0
 845 975 930 895 930 756 c 0x3a
 930 674 834 209 834 166 c 0
 834 139 844 127 877 127 c 0
 912 127 971 160 981 166 c 1x5c
 1001 100 l 1
 956 61 850 -14 768 -14 c 0x9c
EndSplineSet
EndChar

StartChar: iacute
Encoding: 237 237 193
Width: 538
GlyphClass: 2
Flags: HMW
HStem: -14 43G<179 262> -14 141<179 351> 850 125<136 343> 934 41G<285 343>
VStem: 72 473<911 1309> 109 186<54 193>
AnchorPoint: "Anchor-3" 295 956 basechar 0
AnchorPoint: "Anchor-2" 395 0 basechar 0
LayerCount: 2
Fore
SplineSet
248 1036 m 1x98
 203 1087 l 1
 395 1317 l 2
 418 1346 442 1358 471 1358 c 0
 510 1358 545 1329 545 1288 c 0
 545 1257 535 1235 498 1208 c 2
 248 1036 l 1x98
219 -14 m 0x94
 139 -14 109 16 109 92 c 0
 109 151 213 762 213 795 c 0
 213 834 188 850 145 850 c 0
 127 850 107 848 82 846 c 1xa4
 72 911 l 1
 111 929 236 975 334 975 c 0
 352 975 373 973 389 969 c 1
 414 930 l 1
 406 881 295 213 295 172 c 0
 295 139 301 127 334 127 c 0
 369 127 428 160 438 166 c 1x54
 459 100 l 1
 414 61 305 -14 219 -14 c 0x94
EndSplineSet
EndChar

StartChar: ibreve
Encoding: 301 301 194
Width: 538
GlyphClass: 2
Flags: HMW
HStem: -14 43G<179 262> -14 141<179 351> 850 125<136 343> 934 41G<285 343> 1071 111<286 374 286 383>
VStem: 109 186<54 193> 113 82<1280 1296>
AnchorPoint: "Anchor-3" 295 956 basechar 0
AnchorPoint: "Anchor-2" 395 0 basechar 0
LayerCount: 2
Fore
SplineSet
315 1071 m 0x9a
 190 1071 113 1153 113 1296 c 1
 127 1321 166 1331 195 1327 c 1
 195 1233 242 1182 330 1182 c 0
 418 1182 490 1241 506 1327 c 1
 533 1331 570 1327 588 1315 c 1
 559 1168 450 1071 315 1071 c 0x9a
219 -14 m 0x9c
 139 -14 109 16 109 92 c 0
 109 151 213 762 213 795 c 0
 213 834 188 850 145 850 c 0
 127 850 107 848 82 846 c 1xac
 72 911 l 1
 111 929 236 975 334 975 c 0
 352 975 373 973 389 969 c 1
 414 930 l 1
 406 881 295 213 295 172 c 0
 295 139 301 127 334 127 c 0
 369 127 428 160 438 166 c 1x5c
 459 100 l 1
 414 61 305 -14 219 -14 c 0x9c
EndSplineSet
EndChar

StartChar: icircumflex
Encoding: 238 238 195
Width: 538
GlyphClass: 2
Flags: HMW
HStem: -14 43G<179 262> -14 141<179 351> 850 125<136 343> 934 41G<285 343>
VStem: 55 510<1098 1098> 109 186<54 193>
AnchorPoint: "Anchor-3" 295 956 basechar 0
AnchorPoint: "Anchor-2" 395 0 basechar 0
LayerCount: 2
Fore
SplineSet
109 1049 m 1x98
 55 1098 l 1
 274 1309 l 2
 301 1336 323 1350 352 1350 c 0
 375 1350 396 1338 416 1309 c 2
 565 1098 l 1
 512 1049 l 1
 334 1206 l 1
 109 1049 l 1x98
219 -14 m 0x94
 139 -14 109 16 109 92 c 0
 109 151 213 762 213 795 c 0
 213 834 188 850 145 850 c 0
 127 850 107 848 82 846 c 1xa4
 72 911 l 1
 111 929 236 975 334 975 c 0
 352 975 373 973 389 969 c 1
 414 930 l 1
 406 881 295 213 295 172 c 0
 295 139 301 127 334 127 c 0
 369 127 428 160 438 166 c 1x54
 459 100 l 1
 414 61 305 -14 219 -14 c 0x94
EndSplineSet
EndChar

StartChar: idieresis
Encoding: 239 239 196
Width: 538
GlyphClass: 2
Flags: HMW
HStem: -14 43G<179 262> -14 141<179 351> 850 125<136 343> 934 41G<285 343> 1094 215<179 222 447 490>
VStem: 102 197<1185 1218> 109 186<54 193> 371 197<1185 1218>
AnchorPoint: "Anchor-3" 295 956 basechar 0
AnchorPoint: "Anchor-2" 395 0 basechar 0
LayerCount: 2
Fore
SplineSet
188 1094 m 0x9d
 133 1094 102 1125 102 1176 c 0
 102 1260 145 1309 213 1309 c 0
 268 1309 299 1276 299 1227 c 0
 299 1143 256 1094 188 1094 c 0x9d
457 1094 m 0
 402 1094 371 1125 371 1176 c 0
 371 1260 413 1309 481 1309 c 0
 536 1309 567 1276 567 1227 c 0
 567 1143 525 1094 457 1094 c 0
219 -14 m 0x9b
 139 -14 109 16 109 92 c 0
 109 151 213 762 213 795 c 0
 213 834 188 850 145 850 c 0
 127 850 107 848 82 846 c 1xab
 72 911 l 1
 111 929 236 975 334 975 c 0
 352 975 373 973 389 969 c 1
 414 930 l 1
 406 881 295 213 295 172 c 0
 295 139 301 127 334 127 c 0
 369 127 428 160 438 166 c 1x5b
 459 100 l 1
 414 61 305 -14 219 -14 c 0x9b
EndSplineSet
EndChar

StartChar: dotlessi
Encoding: 305 305 197
Width: 538
GlyphClass: 2
Flags: HMW
HStem: -14 43G<179 262> -14 141<179 351> 850 125<136 343> 934 41G<285 343>
VStem: 109 186<54 193>
AnchorPoint: "Anchor-3" 295 956 basechar 0
AnchorPoint: "Anchor-2" 395 0 basechar 0
LayerCount: 2
Fore
SplineSet
219 -14 m 0x98
 139 -14 109 16 109 92 c 0
 109 151 213 762 213 795 c 0
 213 834 188 850 145 850 c 0
 127 850 107 848 82 846 c 1xa8
 72 911 l 1
 111 929 236 975 334 975 c 0
 352 975 373 973 389 969 c 1
 414 930 l 1
 406 881 295 213 295 172 c 0
 295 139 301 127 334 127 c 0
 369 127 428 160 438 166 c 1x58
 459 100 l 1
 414 61 305 -14 219 -14 c 0x98
EndSplineSet
EndChar

StartChar: igrave
Encoding: 236 236 198
Width: 538
GlyphClass: 2
Flags: HMW
HStem: -14 43G<179 262> -14 141<179 351> 850 125<136 343> 934 41G<285 343>
VStem: 72 387 109 186<54 193>
AnchorPoint: "Anchor-3" 295 956 basechar 0
AnchorPoint: "Anchor-2" 395 0 basechar 0
LayerCount: 2
Fore
SplineSet
403 1036 m 1x98
 154 1208 l 2
 121 1231 106 1255 106 1286 c 0
 106 1329 141 1358 180 1358 c 0
 207 1358 229 1350 254 1321 c 2
 449 1087 l 1
 403 1036 l 1x98
219 -14 m 0x94
 139 -14 109 16 109 92 c 0
 109 151 213 762 213 795 c 0
 213 834 188 850 145 850 c 0
 127 850 107 848 82 846 c 1xa4
 72 911 l 1
 111 929 236 975 334 975 c 0
 352 975 373 973 389 969 c 1
 414 930 l 1
 406 881 295 213 295 172 c 0
 295 139 301 127 334 127 c 0
 369 127 428 160 438 166 c 1x54
 459 100 l 1
 414 61 305 -14 219 -14 c 0x94
EndSplineSet
EndChar

StartChar: imacron
Encoding: 299 299 199
Width: 538
GlyphClass: 2
Flags: HMW
HStem: -14 43G<179 262> -14 141<179 351> 850 125<136 343> 934 41G<285 343> 1147 100<82 584 98 567>
VStem: 72 512<911 1247> 109 186<54 193>
AnchorPoint: "Anchor-3" 295 956 basechar 0
AnchorPoint: "Anchor-2" 395 0 basechar 0
LayerCount: 2
Fore
SplineSet
82 1147 m 1x9c
 98 1247 l 1
 584 1247 l 1
 567 1147 l 1
 82 1147 l 1x9c
219 -14 m 0x9a
 139 -14 109 16 109 92 c 0
 109 151 213 762 213 795 c 0
 213 834 188 850 145 850 c 0
 127 850 107 848 82 846 c 1xaa
 72 911 l 1
 111 929 236 975 334 975 c 0
 352 975 373 973 389 969 c 1
 414 930 l 1
 406 881 295 213 295 172 c 0
 295 139 301 127 334 127 c 0
 369 127 428 160 438 166 c 1x5a
 459 100 l 1
 414 61 305 -14 219 -14 c 0x9a
EndSplineSet
EndChar

StartChar: iogonek
Encoding: 303 303 200
Width: 538
GlyphClass: 2
Flags: HMW
HStem: -418 98<155 266> -14 43G<179 219 219 225> 850 125<136 343> 934 41G<285 343> 1083 238<312 355>
VStem: 55 127<-271 -255> 109 186<54 193> 225 217<1184 1219>
AnchorPoint: "Anchor-3" 295 956 basechar 0
AnchorPoint: "Anchor-2" 395 0 basechar 0
LayerCount: 2
Fore
SplineSet
319 1083 m 0xdd
 262 1083 225 1123 225 1180 c 0
 225 1258 276 1321 348 1321 c 0
 409 1321 442 1280 442 1223 c 0
 442 1145 391 1083 319 1083 c 0xdd
252 -319 m 0xdc
 281 -319 307 -310 346 -285 c 1
 375 -338 l 1
 322 -391 252 -418 195 -418 c 0
 115 -418 55 -369 55 -291 c 0
 55 -219 98 -153 147 -102 c 0xdc
 176 -71 202 -43 225 -14 c 1
 219 -14 l 2
 139 -14 109 16 109 92 c 0
 109 151 213 762 213 795 c 0
 213 834 188 850 145 850 c 0
 127 850 107 848 82 846 c 1xea
 72 911 l 1
 111 929 236 975 334 975 c 0
 352 975 373 973 389 969 c 1
 414 930 l 1
 406 881 295 213 295 172 c 0
 295 139 301 127 334 127 c 0
 369 127 428 160 438 166 c 1
 459 100 l 1
 445 88 426 73 403 57 c 0xda
 354 16 309 -25 262 -82 c 0
 219 -135 182 -201 182 -248 c 0
 182 -295 209 -319 252 -319 c 0xdc
EndSplineSet
EndChar

StartChar: itilde
Encoding: 297 297 201
Width: 538
GlyphClass: 2
Flags: HMW
HStem: -14 43G<179 262> -14 141<179 351> 850 125<136 343> 934 41G<285 343> 1128 125<407 472 407 477> 1202 125<183 249>
VStem: 10 639 109 186<54 193>
AnchorPoint: "Anchor-3" 295 956 basechar 0
AnchorPoint: "Anchor-2" 395 0 basechar 0
LayerCount: 2
Fore
SplineSet
70 1126 m 1x96
 41 1134 24 1151 10 1167 c 1
 41 1220 127 1327 233 1327 c 0x96
 319 1327 368 1253 444 1253 c 0
 499 1253 545 1294 588 1333 c 1
 617 1323 633 1308 649 1292 c 1
 616 1239 526 1128 428 1128 c 0x9a
 334 1128 289 1202 209 1202 c 0
 158 1202 113 1165 70 1126 c 1x96
219 -14 m 0x99
 139 -14 109 16 109 92 c 0
 109 151 213 762 213 795 c 0
 213 834 188 850 145 850 c 0
 127 850 107 848 82 846 c 1xa9
 72 911 l 1
 111 929 236 975 334 975 c 0
 352 975 373 973 389 969 c 1
 414 930 l 1
 406 881 295 213 295 172 c 0
 295 139 301 127 334 127 c 0
 369 127 428 160 438 166 c 1x59
 459 100 l 1
 414 61 305 -14 219 -14 c 0x99
EndSplineSet
EndChar

StartChar: jcircumflex
Encoding: 309 309 202
Width: 497
GlyphClass: 2
Flags: HMW
HStem: -449 98<-76 15 -76 46> 850 125<138 341> 934 41G<292 341>
VStem: -301 184<-310 -281 -310 -247>
AnchorPoint: "Anchor-3" 322 956 basechar 0
LayerCount: 2
Fore
SplineSet
135 1049 m 1xb0
 82 1098 l 1
 301 1309 l 2
 328 1336 350 1350 379 1350 c 0
 402 1350 422 1338 442 1309 c 2
 592 1098 l 1
 539 1049 l 1
 360 1206 l 1
 135 1049 l 1xb0
-98 -449 m 0
 -217 -449 -301 -387 -301 -287 c 0
 -301 -207 -244 -156 -178 -156 c 0
 -133 -156 -90 -180 -82 -229 c 1
 -105 -241 -117 -268 -117 -293 c 0
 -117 -328 -92 -350 -59 -350 c 0
 91 -350 76 -82 113 143 c 0
 142 323 215 770 215 799 c 0
 215 834 194 850 147 850 c 0
 129 850 109 848 84 846 c 1xd0
 74 911 l 1
 160 948 252 975 332 975 c 0
 350 975 367 973 385 969 c 1
 412 930 l 1
 276 98 l 2
 239 -131 191 -449 -98 -449 c 0
EndSplineSet
EndChar

StartChar: uni0237
Encoding: 567 567 203
Width: 497
GlyphClass: 2
Flags: HMW
HStem: -449 98<-76 15 -76 46> 850 125<138 341> 934 41G<292 341>
VStem: -301 184<-310 -281 -310 -247>
AnchorPoint: "Anchor-3" 322 956 basechar 0
LayerCount: 2
Fore
SplineSet
-98 -449 m 0xb0
 -217 -449 -301 -387 -301 -287 c 0
 -301 -207 -244 -156 -178 -156 c 0
 -133 -156 -90 -180 -82 -229 c 1
 -105 -241 -117 -268 -117 -293 c 0
 -117 -328 -92 -350 -59 -350 c 0
 91 -350 76 -82 113 143 c 0
 142 323 215 770 215 799 c 0
 215 834 194 850 147 850 c 0
 129 850 109 848 84 846 c 1xd0
 74 911 l 1
 160 948 252 975 332 975 c 0
 350 975 367 973 385 969 c 1
 412 930 l 1
 276 98 l 2
 239 -131 191 -449 -98 -449 c 0xb0
EndSplineSet
EndChar

StartChar: uni0137
Encoding: 311 311 204
Width: 1001
GlyphClass: 2
Flags: HMW
HStem: -432 43G<410 410> -14 43G<734 801> -14 141<734 865> 0 43G<84 84 84 260> 934 41G<819 868> 1317 80<131 131 131 147 121 131>
VStem: 410 152<-195 -180> 651 285 702 233<791 930>
AnchorPoint: "Anchor-4" 494 0 basechar 0
LayerCount: 2
Fore
SplineSet
84 0 m 1x9f
 274 1190 l 2
 276 1204 279 1223 279 1235 c 0
 279 1286 251 1317 147 1317 c 2
 121 1317 l 1
 131 1397 l 1
 172 1405 289 1425 379 1425 c 0
 408 1425 439 1423 455 1421 c 1
 479 1376 l 1
 346 543 l 1
 608 647 702 760 702 821 c 0x9e80
 702 848 684 864 655 866 c 1
 647 932 l 1
 706 957 780 975 858 975 c 0
 878 975 897 973 913 969 c 1
 936 930 l 1
 936 840 833 682 600 555 c 1
 811 147 l 2
 817 135 830 127 848 127 c 0
 883 127 934 156 952 166 c 1xaf
 973 100 l 1
 928 61 842 -14 760 -14 c 0
 709 -14 680 12 649 80 c 2xcf
 461 485 l 1
 420 467 375 448 328 432 c 1
 260 0 l 1
 84 0 l 1x9f
410 -432 m 1
 340 -406 l 1
 391 -314 410 -240 410 -197 c 0
 410 -164 400 -141 377 -121 c 1
 404 -88 440 -76 467 -76 c 0
 526 -76 561 -109 561 -158 c 0
 561 -232 486 -344 410 -432 c 1
EndSplineSet
EndChar

StartChar: kgreenlandic
Encoding: 312 312 205
Width: 1028
GlyphClass: 1
Flags: HMW
HStem: -14 43G<718 793> -14 141<718 857> 0 43G<76 76 76 252> 850 125<124 331> 934 41G<262 331 806 859>
VStem: 59 905<100 911> 643 285 694 233<791 930>
LayerCount: 2
Fore
SplineSet
76 0 m 1x2c
 88 74 201 756 201 797 c 0
 201 838 176 850 133 850 c 0
 115 850 95 848 70 846 c 1x34
 59 911 l 1
 59 911 203 975 322 975 c 0
 340 975 361 973 377 969 c 1
 401 930 l 1
 340 545 l 1
 600 647 694 760 694 821 c 0x29
 694 848 676 864 647 866 c 1
 639 932 l 1
 678 948 762 975 850 975 c 0
 868 975 889 973 905 969 c 1
 928 930 l 2x2a
 928 922 928 743 592 555 c 1
 788 176 l 2
 800 151 807 127 840 127 c 0
 875 127 934 160 944 166 c 1x4c
 965 100 l 1
 920 61 834 -14 752 -14 c 0
 684 -14 664 33 637 92 c 2x8c
 453 485 l 1
 412 467 369 448 322 432 c 1
 252 0 l 1
 76 0 l 1x2c
EndSplineSet
EndChar

StartChar: lacute
Encoding: 314 314 206
Width: 524
GlyphClass: 2
Flags: HMW
HStem: -14 43G<165 247> -14 141<165 334> 1317 80<125 125 125 143 113 125> 1317 109
VStem: 94 182<50 170> 94 518
AnchorPoint: "Anchor-4" 211 0 basechar 0
AnchorPoint: "Anchor-3" 362 1386 basechar 0
LayerCount: 2
Fore
SplineSet
315 1466 m 1xa4
 270 1518 l 1
 463 1747 l 2
 486 1776 510 1788 539 1788 c 0
 578 1788 612 1759 612 1718 c 0
 612 1687 602 1665 565 1638 c 2
 315 1466 l 1xa4
201 -14 m 0xa8
 129 -14 94 14 94 86 c 0
 94 190 270 1194 270 1241 c 0
 270 1290 237 1315 143 1317 c 2
 113 1317 l 1
 125 1397 l 1xa8
 125 1397 269 1425 371 1425 c 0
 400 1425 421 1423 446 1421 c 1
 471 1376 l 1
 459 1292 276 183 276 158 c 0
 276 138 288 127 313 127 c 0
 354 127 401 152 424 166 c 1x58
 444 100 l 1
 399 61 293 -14 201 -14 c 0xa8
EndSplineSet
EndChar

StartChar: lcaron
Encoding: 318 318 207
Width: 624
GlyphClass: 2
Flags: HMW
HStem: -14 43G<165 247> -14 141<165 334> 1317 80<125 125 125 143 113 125> 1317 109 1343 41G<638 651>
VStem: 94 182<50 170> 600 141<1241 1270>
AnchorPoint: "Anchor-4" 211 0 basechar 0
AnchorPoint: "Anchor-3" 362 1386 basechar 0
LayerCount: 2
Fore
SplineSet
201 -14 m 0x8e
 129 -14 94 14 94 86 c 0
 94 190 270 1194 270 1241 c 0
 270 1290 237 1315 143 1317 c 2
 113 1317 l 1
 125 1397 l 1xa6
 125 1397 269 1425 371 1425 c 0
 400 1425 421 1423 446 1421 c 1
 471 1376 l 1
 459 1292 276 183 276 158 c 0
 276 138 288 127 313 127 c 0
 354 127 401 152 424 166 c 1x56
 444 100 l 1
 399 61 293 -14 201 -14 c 0x8e
594 983 m 1
 520 1014 l 1
 575 1125 600 1200 600 1249 c 0
 600 1290 586 1323 557 1346 c 1
 586 1379 624 1384 651 1384 c 0
 712 1380 741 1333 741 1284 c 0
 741 1198 664 1083 594 983 c 1
EndSplineSet
EndChar

StartChar: ldot
Encoding: 320 320 208
Width: 585
GlyphClass: 2
Flags: HMW
HStem: -14 43G<165 247> -14 141<165 334> 608 238<546 589> 1317 80<125 125 125 143 113 125> 1317 109
VStem: 94 182<50 170> 459 217<709 743>
AnchorPoint: "Anchor-4" 211 0 basechar 0
AnchorPoint: "Anchor-3" 362 1386 basechar 0
LayerCount: 2
Fore
SplineSet
201 -14 m 0xb6
 129 -14 94 14 94 86 c 0
 94 190 270 1194 270 1241 c 0
 270 1290 237 1315 143 1317 c 2
 113 1317 l 1
 125 1397 l 1xb6
 125 1397 269 1425 371 1425 c 0
 400 1425 421 1423 446 1421 c 1
 471 1376 l 1
 459 1292 276 183 276 158 c 0
 276 138 288 127 313 127 c 0
 354 127 401 152 424 166 c 1x6e
 444 100 l 1
 399 61 293 -14 201 -14 c 0xb6
553 608 m 0
 496 608 459 648 459 705 c 0
 459 783 510 846 582 846 c 0
 643 846 676 805 676 748 c 0
 676 670 625 608 553 608 c 0
EndSplineSet
Ligature2: "Ligature Substitution lookup 13 subtable" l periodcentered
EndChar

StartChar: lslash
Encoding: 322 322 209
Width: 514
GlyphClass: 2
Flags: HMW
HStem: -14 43G<165 247> -14 141<165 334> 1317 80<125 125 125 143 113 125> 1317 109
VStem: 12 520<598 762>
AnchorPoint: "Anchor-4" 211 0 basechar 0
AnchorPoint: "Anchor-3" 362 1386 basechar 0
LayerCount: 2
Fore
SplineSet
313 127 m 0x58
 354 127 401 152 424 166 c 1x68
 444 100 l 1
 399 61 293 -14 201 -14 c 0
 129 -14 94 14 94 86 c 0
 94 131 127 338 162 565 c 1
 49 504 l 1
 12 598 l 1
 182 690 l 1
 227 958 270 1218 270 1241 c 0
 270 1290 237 1315 143 1317 c 2
 113 1317 l 1
 125 1397 l 1xa8
 125 1397 269 1425 371 1425 c 0
 400 1425 421 1423 446 1421 c 1
 471 1376 l 1
 377 797 l 1
 492 858 l 1
 532 762 l 1
 356 668 l 1
 313 406 276 168 276 158 c 0
 276 138 288 127 313 127 c 0x58
EndSplineSet
EndChar

StartChar: nacute
Encoding: 324 324 210
Width: 1089
GlyphClass: 2
Flags: HMW
HStem: -14 43G<724 815> -14 141<724 902> 0 43G<94 268 94 94> 862 113<629 680>
VStem: 217 176 659 186<59 198> 758 180<708 770>
AnchorPoint: "Anchor-4" 492 0 basechar 0
AnchorPoint: "Anchor-3" 602 956 basechar 0
LayerCount: 2
Fore
SplineSet
555 1036 m 1x3a
 510 1087 l 1
 702 1317 l 2
 725 1346 749 1358 778 1358 c 0
 817 1358 852 1329 852 1288 c 0
 852 1257 842 1235 805 1208 c 2
 555 1036 l 1x3a
774 -14 m 0x9c
 674 -14 659 33 659 86 c 0x9c
 659 154 758 655 758 723 c 0
 758 817 710 862 649 862 c 0
 477 862 361 580 322 334 c 2
 268 0 l 1
 94 0 l 1
 94 0 217 766 217 795 c 0
 217 836 192 850 147 850 c 0
 129 850 109 848 84 846 c 1
 74 911 l 1
 74 911 213 975 332 975 c 0
 348 975 367 973 383 969 c 1
 403 930 l 1
 383 735 l 1
 444 846 551 975 707 975 c 0
 854 975 938 895 938 756 c 0x3a
 938 660 846 229 846 166 c 0
 846 137 856 127 885 127 c 0
 920 127 979 160 989 166 c 1x5c
 1010 100 l 1
 965 61 856 -14 774 -14 c 0x9c
EndSplineSet
EndChar

StartChar: ncaron
Encoding: 328 328 211
Width: 1089
GlyphClass: 2
Flags: HMW
HStem: -14 43G<724 815> -14 141<724 902> 0 43G<94 268 94 94> 862 113<629 680>
VStem: 217 176 659 186<59 198> 758 180<708 770>
AnchorPoint: "Anchor-4" 492 0 basechar 0
AnchorPoint: "Anchor-3" 602 956 basechar 0
LayerCount: 2
Fore
SplineSet
623 1049 m 0x3a
 598 1049 577 1061 557 1090 c 2
 410 1298 l 1
 463 1350 l 1
 639 1196 l 1
 870 1350 l 1
 915 1298 l 1
 700 1090 l 2
 669 1061 648 1049 623 1049 c 0x3a
774 -14 m 0x9c
 674 -14 659 33 659 86 c 0x9c
 659 154 758 655 758 723 c 0
 758 817 710 862 649 862 c 0
 477 862 361 580 322 334 c 2
 268 0 l 1
 94 0 l 1
 94 0 217 766 217 795 c 0
 217 836 192 850 147 850 c 0
 129 850 109 848 84 846 c 1
 74 911 l 1
 74 911 213 975 332 975 c 0
 348 975 367 973 383 969 c 1
 403 930 l 1
 383 735 l 1
 444 846 551 975 707 975 c 0
 854 975 938 895 938 756 c 0x3a
 938 660 846 229 846 166 c 0
 846 137 856 127 885 127 c 0
 920 127 979 160 989 166 c 1x5c
 1010 100 l 1
 965 61 856 -14 774 -14 c 0x9c
EndSplineSet
EndChar

StartChar: uni0146
Encoding: 326 326 212
Width: 1089
GlyphClass: 2
Flags: HMW
HStem: -432 43G<408 408> -14 43G<724 815> -14 141<724 902> 0 43G<94 268 94 94> 862 113<629 680>
VStem: 217 176 408 152<-195 -180> 659 186<59 198> 758 180<708 770>
AnchorPoint: "Anchor-4" 492 0 basechar 0
AnchorPoint: "Anchor-3" 602 956 basechar 0
LayerCount: 2
Fore
SplineSet
774 -14 m 0xcb
 674 -14 659 33 659 86 c 0xcb
 659 154 758 655 758 723 c 0
 758 817 710 862 649 862 c 0
 477 862 361 580 322 334 c 2
 268 0 l 1
 94 0 l 1
 94 0 217 766 217 795 c 0
 217 836 192 850 147 850 c 0
 129 850 109 848 84 846 c 1
 74 911 l 1
 74 911 213 975 332 975 c 0
 348 975 367 973 383 969 c 1
 403 930 l 1
 383 735 l 1
 444 846 551 975 707 975 c 0
 854 975 938 895 938 756 c 0x9c80
 938 660 846 229 846 166 c 0
 846 137 856 127 885 127 c 0
 920 127 979 160 989 166 c 1xab
 1010 100 l 1
 965 61 856 -14 774 -14 c 0xcb
408 -432 m 1x9a80
 338 -406 l 1
 389 -314 408 -240 408 -197 c 0
 408 -164 398 -141 375 -121 c 1
 402 -88 438 -76 465 -76 c 0
 524 -76 559 -109 559 -158 c 0
 559 -232 484 -344 408 -432 c 1x9a80
EndSplineSet
EndChar

StartChar: ntilde
Encoding: 241 241 213
Width: 1089
GlyphClass: 2
Flags: HMW
HStem: -14 43G<724 815> -14 141<724 902> 0 43G<94 268 94 94> 862 113<629 680> 1128 125<714 779 714 784> 1202 125<490 556>
VStem: 217 176 659 186<59 198> 758 180<708 770>
AnchorPoint: "Anchor-4" 492 0 basechar 0
AnchorPoint: "Anchor-3" 602 956 basechar 0
LayerCount: 2
Fore
SplineSet
377 1126 m 1x3680
 348 1134 331 1151 317 1167 c 1
 348 1220 435 1327 541 1327 c 0x3680
 627 1327 676 1253 752 1253 c 0
 807 1253 852 1294 895 1333 c 1
 924 1323 940 1308 956 1292 c 1
 923 1239 833 1128 735 1128 c 0x3a80
 641 1128 596 1202 516 1202 c 0
 465 1202 420 1165 377 1126 c 1x3680
774 -14 m 0x9b
 674 -14 659 33 659 86 c 0x9b
 659 154 758 655 758 723 c 0
 758 817 710 862 649 862 c 0
 477 862 361 580 322 334 c 2
 268 0 l 1
 94 0 l 1
 94 0 217 766 217 795 c 0
 217 836 192 850 147 850 c 0
 129 850 109 848 84 846 c 1
 74 911 l 1
 74 911 213 975 332 975 c 0
 348 975 367 973 383 969 c 1
 403 930 l 1
 383 735 l 1
 444 846 551 975 707 975 c 0
 854 975 938 895 938 756 c 0x3a80
 938 660 846 229 846 166 c 0
 846 137 856 127 885 127 c 0
 920 127 979 160 989 166 c 1x5b
 1010 100 l 1
 965 61 856 -14 774 -14 c 0x9b
EndSplineSet
EndChar

StartChar: eng
Encoding: 331 331 214
Width: 1089
GlyphClass: 1
Flags: HMW
HStem: -307 98<536 614 536 643> 0 43G<94 268 94 94> 862 113<629 680>
VStem: 217 176 319 174<-169 -139 -169 -106> 758 180<737 770>
LayerCount: 2
Fore
SplineSet
518 -307 m 0xec
 401 -307 319 -245 319 -145 c 0
 319 -67 370 -14 436 -14 c 0
 479 -14 520 -39 528 -88 c 1
 505 -100 494 -127 494 -152 c 0
 494 -187 516 -209 555 -209 c 0xec
 674 -209 649 -37 678 176 c 0
 698 301 758 649 758 723 c 0
 758 817 710 862 649 862 c 0
 477 862 361 580 322 334 c 2
 268 0 l 1
 94 0 l 1
 102 49 217 766 217 791 c 0
 217 838 192 850 147 850 c 0
 129 850 109 848 84 846 c 1
 74 911 l 1
 74 911 213 975 332 975 c 0
 350 975 367 973 383 969 c 1
 403 930 l 1
 383 735 l 1xf4
 444 846 551 975 707 975 c 0
 854 975 938 895 938 756 c 0
 938 719 854 229 838 135 c 0
 797 -101 768 -307 518 -307 c 0xec
EndSplineSet
EndChar

StartChar: oacute
Encoding: 243 243 215
Width: 989
GlyphClass: 2
Flags: HMW
HStem: -14 98<366 493 366 579> 877 98<497 624>
VStem: 82 190<251 473 251 498> 719 190<484 711>
AnchorPoint: "Anchor-3" 604 956 basechar 0
AnchorPoint: "Anchor-2" 528 0 basechar 0
LayerCount: 2
Fore
SplineSet
557 1036 m 1
 512 1087 l 1
 705 1317 l 2
 728 1346 751 1358 780 1358 c 0
 819 1358 854 1329 854 1288 c 0
 854 1257 844 1235 807 1208 c 2
 557 1036 l 1
416 -14 m 0
 197 -14 82 115 82 336 c 0
 82 660 249 975 575 975 c 0
 794 975 909 846 909 625 c 0
 909 299 742 -14 416 -14 c 0
416 84 m 0
 570 84 719 332 719 637 c 0
 719 784 671 877 575 877 c 0
 417 877 272 625 272 322 c 0
 272 181 316 84 416 84 c 0
EndSplineSet
EndChar

StartChar: obreve
Encoding: 335 335 216
Width: 989
GlyphClass: 2
Flags: HMW
HStem: -14 98<366 493 366 579> 877 98<497 624> 1071 111<595 683 595 692>
VStem: 82 190<251 473 251 498> 422 82<1280 1296> 719 190<484 711>
AnchorPoint: "Anchor-3" 604 956 basechar 0
AnchorPoint: "Anchor-2" 528 0 basechar 0
LayerCount: 2
Fore
SplineSet
625 1071 m 0
 500 1071 422 1153 422 1296 c 1
 436 1321 475 1331 504 1327 c 1
 504 1233 551 1182 639 1182 c 0
 727 1182 799 1241 815 1327 c 1
 842 1331 879 1327 897 1315 c 1
 868 1168 760 1071 625 1071 c 0
416 -14 m 0
 197 -14 82 115 82 336 c 0
 82 660 249 975 575 975 c 0
 794 975 909 846 909 625 c 0
 909 299 742 -14 416 -14 c 0
416 84 m 0
 570 84 719 332 719 637 c 0
 719 784 671 877 575 877 c 0
 417 877 272 625 272 322 c 0
 272 181 316 84 416 84 c 0
EndSplineSet
EndChar

StartChar: ocircumflex
Encoding: 244 244 217
Width: 989
GlyphClass: 2
Flags: HMW
HStem: -14 98<366 493 366 579> 877 98<497 624>
VStem: 82 190<251 473 251 498> 719 190<484 711>
AnchorPoint: "Anchor-3" 604 956 basechar 0
AnchorPoint: "Anchor-2" 528 0 basechar 0
LayerCount: 2
Fore
SplineSet
418 1049 m 1
 365 1098 l 1
 584 1309 l 2
 611 1336 633 1350 662 1350 c 0
 685 1350 705 1338 725 1309 c 2
 874 1098 l 1
 821 1049 l 1
 643 1206 l 1
 418 1049 l 1
416 -14 m 0
 197 -14 82 115 82 336 c 0
 82 660 249 975 575 975 c 0
 794 975 909 846 909 625 c 0
 909 299 742 -14 416 -14 c 0
416 84 m 0
 570 84 719 332 719 637 c 0
 719 784 671 877 575 877 c 0
 417 877 272 625 272 322 c 0
 272 181 316 84 416 84 c 0
EndSplineSet
EndChar

StartChar: odieresis
Encoding: 246 246 218
Width: 989
GlyphClass: 2
Flags: HMW
HStem: -14 98<366 493 366 579> 877 98<497 624> 1094 215<452 495 794 837>
VStem: 82 190<251 473 251 498> 375 197<1185 1218> 717 197<1185 1218> 719 190<484 711>
AnchorPoint: "Anchor-3" 604 956 basechar 0
AnchorPoint: "Anchor-2" 528 0 basechar 0
LayerCount: 2
Fore
SplineSet
461 1094 m 0xfa
 406 1094 375 1125 375 1176 c 0
 375 1260 417 1309 485 1309 c 0
 540 1309 571 1276 571 1227 c 0
 571 1143 529 1094 461 1094 c 0xfa
803 1094 m 0xfc
 748 1094 717 1125 717 1176 c 0
 717 1260 759 1309 827 1309 c 0
 882 1309 913 1276 913 1227 c 0
 913 1143 871 1094 803 1094 c 0xfc
416 -14 m 0
 197 -14 82 115 82 336 c 0
 82 660 249 975 575 975 c 0
 794 975 909 846 909 625 c 0xfa
 909 299 742 -14 416 -14 c 0
416 84 m 0xfa
 570 84 719 332 719 637 c 0
 719 784 671 877 575 877 c 0
 417 877 272 625 272 322 c 0
 272 181 316 84 416 84 c 0xfa
EndSplineSet
EndChar

StartChar: ograve
Encoding: 242 242 219
Width: 989
GlyphClass: 2
Flags: HMW
HStem: -14 98<366 493 366 579> 877 98<497 624>
VStem: 82 190<251 473 251 498> 719 190<484 711>
AnchorPoint: "Anchor-3" 604 956 basechar 0
AnchorPoint: "Anchor-2" 528 0 basechar 0
LayerCount: 2
Fore
SplineSet
713 1036 m 1
 463 1208 l 2
 430 1231 416 1255 416 1286 c 0
 416 1329 450 1358 489 1358 c 0
 516 1358 538 1350 563 1321 c 2
 758 1087 l 1
 713 1036 l 1
416 -14 m 0
 197 -14 82 115 82 336 c 0
 82 660 249 975 575 975 c 0
 794 975 909 846 909 625 c 0
 909 299 742 -14 416 -14 c 0
416 84 m 0
 570 84 719 332 719 637 c 0
 719 784 671 877 575 877 c 0
 417 877 272 625 272 322 c 0
 272 181 316 84 416 84 c 0
EndSplineSet
EndChar

StartChar: ohungarumlaut
Encoding: 337 337 220
Width: 989
GlyphClass: 2
Flags: HMW
HStem: -14 98<366 493 366 579> 877 98<497 624> 1346 41G<660 697>
VStem: 82 190<251 473 251 498> 719 190<484 711>
AnchorPoint: "Anchor-3" 604 956 basechar 0
AnchorPoint: "Anchor-2" 528 0 basechar 0
LayerCount: 2
Fore
SplineSet
485 1040 m 1
 442 1085 l 1
 594 1333 l 2
 619 1374 645 1386 676 1386 c 0
 719 1386 750 1360 750 1317 c 0
 750 1288 740 1264 709 1237 c 2
 485 1040 l 1
698 1040 m 1
 653 1092 l 1
 862 1321 l 2
 882 1344 903 1354 930 1354 c 0
 967 1354 1006 1329 1006 1282 c 0
 1006 1253 991 1227 954 1204 c 2
 698 1040 l 1
416 -14 m 0
 197 -14 82 115 82 336 c 0
 82 660 249 975 575 975 c 0
 794 975 909 846 909 625 c 0
 909 299 742 -14 416 -14 c 0
416 84 m 0
 570 84 719 332 719 637 c 0
 719 784 671 877 575 877 c 0
 417 877 272 625 272 322 c 0
 272 181 316 84 416 84 c 0
EndSplineSet
EndChar

StartChar: omacron
Encoding: 333 333 221
Width: 989
GlyphClass: 2
Flags: HMW
HStem: -14 98<366 493 366 579> 877 98<497 624> 1147 100<391 893 408 877>
VStem: 82 190<251 473 251 498> 719 190<484 711>
AnchorPoint: "Anchor-3" 604 956 basechar 0
AnchorPoint: "Anchor-2" 528 0 basechar 0
LayerCount: 2
Fore
SplineSet
391 1147 m 1
 408 1247 l 1
 893 1247 l 1
 877 1147 l 1
 391 1147 l 1
416 -14 m 0
 197 -14 82 115 82 336 c 0
 82 660 249 975 575 975 c 0
 794 975 909 846 909 625 c 0
 909 299 742 -14 416 -14 c 0
416 84 m 0
 570 84 719 332 719 637 c 0
 719 784 671 877 575 877 c 0
 417 877 272 625 272 322 c 0
 272 181 316 84 416 84 c 0
EndSplineSet
EndChar

StartChar: oslash
Encoding: 248 248 222
Width: 989
GlyphClass: 2
Flags: HMW
HStem: -14 98<387 493 387 579> -8 43G<41 41> 877 98<497 601>
VStem: 82 190<315 473 315 498> 719 190<484 648>
AnchorPoint: "Anchor-3" 604 956 basechar 0
AnchorPoint: "Anchor-2" 528 0 basechar 0
LayerCount: 2
Fore
SplineSet
915 950 m 1xb8
 844 860 l 1
 887 801 909 721 909 625 c 0
 909 299 742 -14 416 -14 c 0
 326 -14 254 8 199 49 c 1
 117 -55 l 1
 96 -57 l 1xb8
 76 -47 53 -28 41 -8 c 1
 137 115 l 1x78
 100 172 82 246 82 336 c 0
 82 660 249 975 575 975 c 0
 659 975 727 957 778 922 c 1
 840 997 l 1
 860 999 l 1
 880 987 899 970 915 950 c 1xb8
272 322 m 0
 272 310 272 297 274 285 c 1
 686 805 l 1
 663 852 626 877 575 877 c 0
 417 877 272 625 272 322 c 0
719 637 m 0
 719 660 717 680 715 698 c 1
 297 170 l 1
 320 117 359 84 416 84 c 0
 570 84 719 332 719 637 c 0
EndSplineSet
EndChar

StartChar: oslashacute
Encoding: 511 511 223
Width: 989
GlyphClass: 2
Flags: HMW
HStem: -14 98<387 493 387 579> -8 43G<41 41> 877 98<497 601>
VStem: 82 190<315 473 315 498> 719 190<484 648>
AnchorPoint: "Anchor-3" 604 956 basechar 0
AnchorPoint: "Anchor-2" 528 0 basechar 0
LayerCount: 2
Fore
SplineSet
807 1208 m 2xb8
 557 1036 l 1
 512 1087 l 1
 705 1317 l 2
 728 1346 751 1358 780 1358 c 0
 819 1358 854 1329 854 1288 c 0
 854 1257 844 1235 807 1208 c 2xb8
915 950 m 1
 844 860 l 1
 887 801 909 721 909 625 c 0
 909 299 742 -14 416 -14 c 0
 326 -14 254 8 199 49 c 1
 117 -55 l 1
 96 -57 l 1xb8
 76 -47 53 -28 41 -8 c 1
 137 115 l 1x78
 100 172 82 246 82 336 c 0
 82 660 249 975 575 975 c 0
 659 975 727 957 778 922 c 1
 840 997 l 1
 860 999 l 1
 880 987 899 970 915 950 c 1
272 322 m 0
 272 310 272 297 274 285 c 1
 686 805 l 1
 663 852 626 877 575 877 c 0
 417 877 272 625 272 322 c 0
719 637 m 0
 719 660 717 680 715 698 c 1
 297 170 l 1
 320 117 359 84 416 84 c 0
 570 84 719 332 719 637 c 0
EndSplineSet
EndChar

StartChar: otilde
Encoding: 245 245 224
Width: 989
GlyphClass: 2
Flags: HMW
HStem: -14 98<366 493 366 579> 877 98<497 624> 1128 125<716 781 716 786> 1202 125<493 558>
VStem: 82 190<251 473 251 498> 719 190<484 711>
AnchorPoint: "Anchor-3" 604 956 basechar 0
AnchorPoint: "Anchor-2" 528 0 basechar 0
LayerCount: 2
Fore
SplineSet
379 1126 m 1xdc
 350 1134 333 1151 319 1167 c 1
 350 1220 437 1327 543 1327 c 0xdc
 629 1327 678 1253 754 1253 c 0
 809 1253 854 1294 897 1333 c 1
 926 1323 942 1308 958 1292 c 1
 925 1239 835 1128 737 1128 c 0xec
 643 1128 598 1202 518 1202 c 0
 467 1202 422 1165 379 1126 c 1xdc
416 -14 m 0xec
 197 -14 82 115 82 336 c 0
 82 660 249 975 575 975 c 0
 794 975 909 846 909 625 c 0
 909 299 742 -14 416 -14 c 0xec
416 84 m 0
 570 84 719 332 719 637 c 0
 719 784 671 877 575 877 c 0
 417 877 272 625 272 322 c 0
 272 181 316 84 416 84 c 0
EndSplineSet
EndChar

StartChar: oe
Encoding: 339 339 225
Width: 1505
GlyphClass: 2
Flags: HMW
HStem: -14 98<366 486> -14 106<1008 1102> 399 100<889 1012 889 1052> 877 98<497 624> 881 94<1128 1221>
VStem: 82 190<251 473 251 498> 719 160<262 711> 1296 180<686 793>
AnchorPoint: "Anchor-3" 881 956 basechar 0
LayerCount: 2
Fore
SplineSet
1061 92 m 0x77
 1167 92 1284 174 1341 217 c 1x77
 1401 141 l 1
 1327 67 1184 -14 1020 -14 c 0
 875 -14 791 55 748 147 c 1
 668 49 557 -14 416 -14 c 0xb7
 197 -14 82 115 82 336 c 0
 82 660 249 975 575 975 c 0
 714 975 811 917 860 813 c 1
 944 915 1061 975 1196 975 c 0
 1393 975 1477 869 1477 758 c 0
 1477 559 1225 399 879 399 c 1
 879 352 l 2
 879 172 955 92 1061 92 c 0x77
1182 881 m 0xaf
 1026 881 922 715 889 500 c 1
 1135 500 1296 610 1296 762 c 0
 1296 823 1260 881 1182 881 c 0xaf
416 84 m 0
 570 84 719 332 719 637 c 0
 719 784 671 877 575 877 c 0xb7
 417 877 272 625 272 322 c 0
 272 181 316 84 416 84 c 0
EndSplineSet
EndChar

